<svg xmlns="http://www.w3.org/2000/svg" width="1440" height="1440" version="1.0" viewBox="0 0 1080 1080"><path d="M610.5 126.6c-6 1.9-12 3.5-13.2 3.6-1.2.1-2 .5-1.7.9.6 1-7.2 2.4-11.9 2.2-2.1-.1-4.9-.9-6.2-1.7-1.4-.9-3.2-1.6-4.2-1.5-1.4 0-1.3.2.5.9 3.8 1.6 2.4 2.2-3.5 1.6-3.2-.3-6.5-.5-7.3-.6-.8 0 .3-.9 2.5-1.9 4.8-2.3 3.4-2.7-2.5-.6-2.3.8-5.3 1.5-6.6 1.5-1.3 0-2.4.4-2.4 1 0 .5-1.7.9-3.7.9-3.1-.2-3.3-.3-1-.6 1.5-.2 2.7-.9 2.7-1.5 0-.7-1.6-.8-4.7-.3-9.3 1.4-9.5 1.4-8.1-.3 1.1-1.3.9-1.4-1.7-.8-1.6.4-8.4 1.4-15 2.1-6.6.8-14 1.8-16.5 2.4-2.5.5-11 1.6-19 2.3-10.5.9-13.4 1.4-10.5 1.8l4 .6-5 .8c-2.7.4-6.3 1.4-8 2.1-1.6.7-4.6 1.6-6.5 2-1.9.4-4.4 1.2-5.5 1.8-1.1.6-2.4 1.1-3 1.2-.5 0-2.5.7-4.2 1.5-2.3 1-3.1 2-2.8 3.2.5 1.3-.7 2.1-5.2 3.7-3.2 1.2-6.9 2.8-8.3 3.7-1.4.8-4.1 2.2-6 3-1.9.8-4.2 1.9-5 2.4-.8.5-3.7 2.2-6.5 3.6-2.7 1.5-8.2 4.6-12.1 7-3.9 2.4-7.4 4.4-7.8 4.4-.4 0-1.9 1.1-3.4 2.5s-2.1 2.5-1.5 2.5c.7 0 1 .7.7 1.5-.4.8-1 1.5-1.5 1.5s-.9-.7-.9-1.5c0-1.9-1.4-1.9-3 0-1.1 1.3-1 1.4.5.9 1.4-.6 1.6-.3 1 1.7-.4 1.3-1.5 3-2.6 3.8-1 .7-1.9 2-1.9 2.7 0 .8-.5 1.4-1.2 1.4-2 0-4.7 3.1-4.1 4.8.5 1.2.2 1.4-1.1.9-1-.4-1.5-.3-1.1.3.3.6.1 1-.5 1-1.5 0-18.5 17.3-23.8 24.2-2.3 3.1-4.1 6.2-4 6.9.2.7-.7 1.8-2 2.4-2.2 1-2.5 3.2-.3 2.7 1.8-.4 1.3.5-3.4 5.5-2.4 2.6-4.5 5.1-4.5 5.5 0 .4-.6 1.3-1.2 2-4.6 5-11.8 16.1-11.8 18.3 0 .3.7.5 1.5.5.9 0 1.2.6.9 1.5-.4 1 0 1.5 1.2 1.5 1.5 0 1.3.4-.8 1.8-1.7 1-2.8 2.5-2.8 3.9 0 1.3-.4 2.3-1 2.3-.5 0-1 .6-1 1.3 0 .7-.9 2.1-2.1 3-1.6 1.4-1.8 2.1-.9 3.2.6.8.9 2.4.5 3.7-1.8 6.1-1.8 6.4-.4 5 .7-.6 2-1.2 2.9-1.2 1.1.1 1 .5-.7 1.9-1.4 1.2-2.1 2.7-1.8 4 .2 1.3-.5 2.7-2.1 4-1.5 1.2-2.4 2.9-2.4 4.7 0 1.5-.9 3.7-1.9 4.8-1.1 1.2-2.3 3.4-2.7 5-.6 2.6-.5 2.7 1.5 1.7 1.1-.7 2.1-1.6 2.1-2.1 0-.6.8-1.8 1.8-2.8 4.2-4.4 8-10.1 10-15.2 1.3-3 3.1-6.6 4.1-7.9l1.9-2.5-.5 3c-.4 2.7-.3 2.8 1.1 1 .8-1 1.7-2.4 1.9-3 .2-.6.7-.9 1-.6.6.6-1.2 6.5-2.6 8.8-.5.7-.5 2.1-.2 3.2.4 1.4.2 2-.7 1.8-.7-.2-1.4.7-1.6 1.9-.4 2.7 1.3 3 2.7.5.6-.9 1.1-1.4 1.1-.9 0 1-2.2 4.7-3.8 6.5-.7.7-1 1.8-.7 2.2.3.5-.8 2.4-2.5 4.1-3 3.2-3 3.2-3 .8-.1-2.6.2-3.1-4.3 7.3-3.3 7.7-3.7 8.8-2.6 8.8.5 0 0 1-1.2 2.2-2.6 2.8-9.1 15.5-8.1 16 1 .4 4.4 8 3.8 8.5-.9.9-2.6-.8-2.6-2.5 0-.9-.5-2.4-1.1-3.2-.9-1.3-1-1.2-.5.2.3 1.2 0 1.8-.9 1.8-2.2 0-1.8 1.3 1 4.4 1.4 1.5 2.5 3.2 2.5 3.8 0 .6-1.8-.9-4-3.3-3-3.3-3.8-5-3.5-6.9.3-1.4 0-3.2-.6-4-.8-1.2-.9-.9-.5 1.2.3 1.5.2 2.9-.3 3.2-1.6 1 .1 4.7 2.5 5.8 1.3.6 2.4 1.5 2.4 2 0 1.7.3 2.3 1.9 3.5.9.7 1.1 1.3.6 1.3-.6 0-1.1.9-1.2 2-.1 1.1.2 1.8.7 1.5.5-.3.8 1.7.7 4.5 0 2.7-.1 5-.2 5s-1.5-1.8-3-4.1c-2.3-3.2-3-3.7-3.7-2.5-.5.8-1.5 1.3-2.3 1-1.2-.5-1.2-.1.1 2.5.9 1.7 2.2 3.1 3.1 3.1 2.3 0 1 2.1-2.4 4l-3.1 1.6 3.1 2.9 3.1 2.9-2.7 1.1-2.8 1.1 4 1.9c2.3 1 4.1 2.4 4.1 3.2 0 .7.7 1.3 1.5 1.3s1.5.4 1.5.9c0 1.6-2.1 2.4-3.3 1.2-1.7-1.7-3-1.3-2.4.9.3 1.1 0 2-.6 2-3.2.1 3.2 3 6.6 3 2.3 0 3.6.4 3.2 1-.6.9 1.1 1.9 6 3.5 3.4 1.1-.4 2.5-6.1 2.3-5.2-.1-7.8.7-6.9 2.2.7 1.1-3.1 5.7-4 4.8-.4-.3.2-1.5 1.3-2.6s1.8-2.3 1.5-2.6c-.3-.3-.1-1.2.6-1.9.9-1.2.4-1.5-3.1-2-5.2-.7-10.8 1-10.8 3.4 0 .9-.9 1.9-2.1 2.2-1.8.5-1.9.8-.9 2.7 1 1.9.8 2.7-.9 5.1-2.8 3.7-2.7 4.3.4 2.3 2.8-1.8 3.5-.8.8 1.2-1.4 1-1.5 1.5-.6 2.5 1 1 .6 1.6-1.7 3.1-3.6 2.2-5.1 2.3-4.4.4.7-1.8-3.4-3.2-4.9-1.7-.8.8-.8 1.1.2 1.1.7 0 2.4 1.3 3.7 3 2.1 2.4 3 2.8 5.5 2.3 3.2-.6 4 1 1.2 2.6-1.4.7-1.5 1.2-.5 2.3.9 1.2.7 1.7-1.2 2.8-1.4.7-3.2 1-4.1.6-.9-.3-2.1-.4-2.5-.1-1.4.9 0 3.5 1.9 3.5 1.2.1.9.7-1.1 2.3-1.6 1.3-2.8 3-2.8 4 0 1.4.4 1.5 2.5.5 3.9-1.8 5.6.5 2.4 3.1-3.2 2.6-6.9 3.4-10.3 2.1-3.6-1.3-3.9-1.3-3.3.5.4.8.2 1.7-.2 2-.5.3-1.1-.2-1.5-1-.6-1.7-3.6-2.1-3.6-.5 0 .5.7 1 1.5 1 .9 0 1.8.7 2.1 1.5.9 2.2 4.8 2 4-.3-.4-1 .1-.8 1.3.7 1.5 2 2.4 2.3 5.5 1.8 2-.3 3.6-.2 3.6.4 0 .5.1 1.2.3 1.6.1.3-.7.7-1.8.9-1.1.2-2.1.8-2.3 1.4-.2.6-1.4 1.5-2.7 2-3.4 1.3-5.4 5.9-4.1 9.2 1 2.4 1.3 2.5 3.6 1.3 5.5-2.8 6.7-2.7 7.5.2.5 1.5.7 3.4.6 4-.1.7.3 1.4.9 1.4.5.1 1.6.2 2.2.3 3.1.3 1.4 6.3-3.8 13.3-1.3 1.7-2.4 4.4-2.4 6 0 2.9 3.3 9.3 4.8 9.3.5 0 1.5 1.1 2.2 2.5.7 1.3 3 3.6 5.1 4.9 2.5 1.7 4.1 3.8 4.9 6.3 1.6 4.8 2.8 6.3 5 6.3 2.4 0 7 4.2 7 6.4 0 .9 2.1 3.8 4.6 6.4 4.9 4.9 7.4 9.5 7.4 13.5 0 1.9-.7 2.6-2.9 3-3.2.7-7.1-.1-7.1-1.4 0-.5-.8-.9-1.7-.9-1.2 0-.3 1.3 2.7 4l4.4 4h-4.6c-2.6 0-5 .5-5.4 1.2-.4.6-.3.8.3.5.6-.4 1.3 0 1.7.8.3.8 1.6 1.5 2.8 1.6 2.2.1 2.2.1-.2.8-1.4.5-3.3.7-4.2.5-2.3-.4-2.3.9-.1 2.7 1 .9 4.5 1.4 9.7 1.5 11 .2 14.9 1.1 14.3 3.4-.4 1.4.1 1.6 3.2 1.3 2.6-.3 4.1 0 5 1.1.8.9 1.9 1.6 2.7 1.6 1 0 1.1-.6.2-3.1-1.3-3.6 0-5.4 3.1-4.4 1.3.4 2.4 2 3.2 4.8 1.3 4.8 4.5 9.7 6.3 9.7 1.3 0 5.6 4.1 5.6 5.4 0 1 5 7.8 7.2 9.6.9.8 3.1 4.1 4.8 7.2 3.3 6.4 4 13.1 1.5 16.4-1.9 2.5-1.9 5-.1 5.7.8.3 1.5 1.9 1.6 3.4 0 1.5.2 4.3.3 6.2.2 3.1 0 3.4-3.1 3.6-2.3.2-3.8-.4-5.5-2.1-1.2-1.3-2.7-2.4-3.4-2.4-.6 0-1.4-.6-1.6-1.3-.3-.6-.6-.3-.6.9-.1 1.1 1 3.6 2.4 5.5l2.6 3.4-2.2.5c-2.1.5-1.9.8 2.1 4.3 2.4 2 6.3 4.4 8.7 5.3 4.1 1.6 4.6 1.6 7.9.1 2.4-1.2 4.7-1.5 7.4-1.1l3.8.6-1.5 4.7c-.9 2.5-2.2 6.2-3 8.1-.7 1.9-1.6 4.5-1.8 5.7-.3 1.3-.8 3.3-1.1 4.5-.4 1.3-.9 4.9-1.1 8.2-.4 4.8-.1 6.4 1.6 8.7 1.5 2 1.7 2.9.8 3.3-.8.3-.7.9.6 1.9 1.9 1.6 2.4 3.2.5 2.1-.7-.4-.8-.3-.4.5.4.6 1.3 1.1 1.9 1 2.6-.3 3.7.2 3.7 1.7 0 .8-.5 1.2-1 .9-.6-.4-1 .5-1 2 0 1.4.7 2.8 1.5 3.1.8.4 1.5 1.6 1.5 2.9 0 1.2.7 2.8 1.6 3.6 2.4 1.9 3.5-.6 3.2-7.1-.1-3 0-6 .4-6.5.4-.6.3-1.7-.2-2.4-.4-.8-.4-2.7.1-4.4.6-2 .3-5-.8-9.5-1.3-5.2-1.4-6.6-.3-7.2 1.1-.7 1.1-2 .2-6.7-.6-3.2-1.1-8.7-1.1-12.3.2-11.9-.6-17.4-3.3-23-3.6-7.6-7-16.7-10.8-28.5-5.1-16.1-5.4-17-7.5-17.4-4.1-.7-18.5-12.8-18.5-15.5 0-.7-2.5-5.2-5.5-10-3.1-4.9-6.4-10.5-7.4-12.5s-5.4-10.4-9.8-18.6c-10.7-20.2-13.5-26.2-13.1-28.8.3-1.8 1.2-1 5.3 4.7l5 6.8.7-7.3c.5-4.1 1.5-9.7 2.3-12.5.8-2.9 1.5-6.8 1.5-8.8 0-3.7 2.2-5.1 3.4-2.1.9 2.4 7.8 1.9 10.5-.7 2.2-1.9 2.2-2.2.7-3.3-.9-.7-1.6-1.7-1.6-2.4 0-1.3-1.8-4.8-3.8-7.3-.8-.9-1.1-2.1-.8-2.6.6-1-1.4-3.2-2.6-2.9-.3.1-.9-.1-1.2-.4-.3-.3 1.9-.6 5-.7 4.4-.1 5.5.2 5.1 1.2-.3.8 0 2.2.7 3.2 1.3 1.7 1.4 1.6 2.1-.5.9-2.8-.2-9.1-1.6-9.1-.6 0-.9-1-.7-2.3.4-2.7 5.5-3.9 5.5-1.3 0 .9-.7 1.6-1.5 1.6-1 0-1.2.5-.7 1.7.5 1 .9 2.7 1 3.9.1 1.1.5 2.6 1 3.4.5.8.4 1.1-.2.7-1.1-.7-2.6 1.9-1.9 3.2.3.4.8 3.2 1.1 6.4.6 5.3.5 5.8-2.1 8.1-2.4 2-2.6 2.4-.9 2.2 2.4-.1 2.5.2 2.5 5.6 0 4-.1 4.1-1.9 2.4-1.3-1.2-2.1-1.4-2.6-.6-.4.6-2.5 1-4.6.9-4.3-.4-6.3 1-6.5 4.4-.1 1.2-.5 3-.9 4s-.5 4.5-.2 7.7c.8 7.4 5.3 15.1 10.9 18.6 3.9 2.5 4.1 2.5 8 .9 2.2-.8 4.9-1.3 5.9-1 2.3.8 2.5-1.1.4-5.1-.8-1.6-1.5-3.7-1.5-4.7s-.4-1.6-.9-1.3c-.5.4-.6-.9-.1-2.9.5-2.2.4-3.5-.2-3.5-.6 0-.8-1.4-.4-3.5.5-2.5.3-3.7-.6-4-2-.8-2-4.6 0-6.1 1.4-1 1.4-1.6.4-3.9-1.1-2.3-1-2.7.5-3.1 1.5-.4 1.8-1.7 1.9-8 0-4-.4-7.4-.9-7.4s-.6-1-.3-2.3c1-3.2 1.3-8.7.5-8.7-.7 0 0-16.2.8-17 .2-.2.8.2 1.3 1 .9 1.3 1 1.3 1.1 0 .1-.8.3-2.4.4-3.5.2-1.1.6-4.6.9-7.8.4-3.3 1.2-6.9 1.8-8 .6-1.2 1-2.3.9-2.5-.2-.1 0-2.8.4-6 .4-3.1.9-8.3 1-11.4.2-3.1.7-6.3 1.1-7 .5-.7.7-2.5.5-4-.2-2.4.9-3.9 3.4-4.5.6-.1 4.4-.9 8.5-1.8 8.1-1.6 20.8-7.3 24.1-10.8 2-2.1 2.1-2.1 1.7-.2-.1 1.1-1.2 2.8-2.3 3.8-2 1.8-2 1.9.1 1.4 1.2-.2 2.9 0 3.8.5 1.1.6 3.4.5 6.4-.2 3.7-.9 5.4-.9 7.7.1 4.1 1.7 6.7 2.1 6 1-.8-1.4 3.4-2.4 4.9-1.2 1 .8 1.6.7 2.5-.3 1.1-1.3 1.7-1.3 4.7.2 3.1 1.4 3.6 1.4 4.4.2.7-1 1-1.1 1-.3 0 .7 1.1 1.3 2.5 1.3s2.5.5 2.5 1.1c0 .5-.4.8-.9.5-1.7-1.1-3.9.5-3.4 2.5.4 1.3 0 1.9-1.1 1.9-1 0-1.5.4-1.2.9.3.4-.6.7-2.1.5-1.5-.1-4.3.8-6.7 2.3-2.2 1.5-4.6 2.6-5.3 2.6-.7 0-1.7 1.3-2.4 2.9-.6 1.5-1.6 2.8-2.1 2.8s-2.1 2.6-3.5 5.7c-1.5 3.2-3.8 7.5-5.1 9.6-1.9 2.9-2.6 5.3-2.8 10.2-.1 3.6.2 6.7.7 7 .5.4 1.9 0 3.2-.7 9.7-5.4 14-7.2 14.4-6.1.3.7 1 1.3 1.6 1.3.6 0 2.1 1.1 3.3 2.6 1.3 1.5 2.5 2.1 2.9 1.5.3-.6 1.5-1.1 2.6-1.1s1.7-.5 1.4-1c-.3-.6-.3-1 .2-1.1 7.2-.4 9.3-.4 9.3.2 0 .3 2.1 1.2 4.6 1.9 3.7 1.1 6.2 1.1 12.1.2 6.3-1 7.8-1.7 10.3-4.3 3.2-3.5 5.6-11.5 4.6-15.4-.5-1.9-.3-2.3.9-1.9.8.4 1.5 1.3 1.5 2.1 0 .7.6 1.3 1.3 1.2 2.9-.5 6.7 2.5 7.9 6.4 1.5 4.8.6 6.3-5.3 9.5-5.7 3.2-5.5 2.9-3.6 5 2.4 2.6 1.4 3.1-4 2.1-3.1-.6-5-.5-6 .2-1 .9-1.3.8-1.3-.1s-.3-1-1.3-.1c-1.1.8-1.6.5-2.5-1.4-1-2.2-1.4-2.3-4.1-1.4-3 1.1-13.3.7-16.2-.5-3-1.3-10.4-.3-10.4 1.4 0 1 1 1.5 3.1 1.5 2.6 0 3.1.4 2.8 1.8-.2 1.3.1 1.7 1.1 1.3.8-.3 2.1.2 3 1 .9.9 1.5 1.1 1.5.4 0-.7.7-.5 1.6.4.8.9 2 1.4 2.5 1.1 1.2-.8 1.1 1.6-.1 3.5-.8 1.2-1 1.2-1-.5 0-1.8-.1-1.8-1.6.3-.8 1.2-2.3 2.2-3.3 2.2s-3.4.6-5.2 1.4c-1.9.8-4.6 1.3-6.2 1.1-1.5-.2-2.5.1-2.1.6.3.5 1.3.9 2.3.9.9 0 2.2.5 2.8 1.1 1.4 1.4 5.9 2 15.3 1.9 9.9-.2 13.4-.5 14.9-1.4.7-.4 2.2-.9 3.4-1.1 3.4-.5 14.1-5.3 14.5-6.4.2-.6.8-.9 1.3-.5.5.3 1.2-.3 1.6-1.3.4-1 1.5-2.5 2.4-3.4 1.4-1.2 1.6-1.8.6-2.8-.9-1-.8-1.1.4-.6 1 .4 2 .2 2.3-.4.8-1.2-4.3-.9-6.3.3-.6.4-1.4 0-1.7-.8-.3-.9-1.2-1.6-2-1.6s-1.4-.7-1.4-1.6c0-1.1.6-1.5 2-1.1 1.1.3 2.3.1 2.6-.4.3-.6 1.5-.7 2.6-.3 1.3.4 1.8.2 1.4-.4-.3-.6 1-1.3 3.1-1.6 9-1.3 14.9-2 15.6-1.8 1.6.4.5-2.6-2.8-7.2-3.5-5-4.4-7.6-2.5-7.6.6 0 1 .4 1 .8s1.2.9 2.8 1c1.5.1 2.8.6 3 1.2.2.5 1 .6 1.8.3s1.4.1 1.4 1.1c0 .9.5 1.6 1.1 1.6.5 0 .7-.5.3-1.2-.5-.8-.2-.9 1-.5 1 .4 2 .7 2.2.7.3 0 .2.5-.1 1-.8 1.3 4 .8 5.2-.5.4-.4.2-.5-.4-.1-.8.5-1.3.1-1.3-.9 0-.9.9-1.9 2.1-2.2 1.6-.4 1.7-.8.7-1.4-1-.7-1.1-.9 0-.9.7 0 1.1-.4.7-.9-.3-.6.4-.8 1.6-.6 1.3.3 2.6 1 3.1 1.7.6 1 .8.9.8-.4 0-.9.6-1.8 1.3-2.1.9-.3.9-.7.1-1.8-.9-1.1-.7-2.1.6-4.2 1.2-1.9 2-2.5 2.5-1.7.5.7 1.2.2 2.2-1.7.9-1.8 1.1-2.9.4-3.1-.6-.2-1.1-1.7-1.1-3.2 0-2.6.4-2.9 4.5-3.6 4.3-.6 4.5-.8 3-2.3-1.8-2-2-3.5-.4-2.5.7.4 1 .1.7-.7-.3-.8-1.7-1.4-3.1-1.4-1.4.1-2.3-.3-2.1-.7.3-.4 1.2-.8 2.1-.8 1.3 0 1.3-.3.3-1.5s-1-1.5.3-1.5c1 0 1.4-.6 1.1-1.4-.4-.9.3-1.6 1.8-1.9 1.9-.3 1.8-.5-.7-.6-3.5-.1-7.8-2.8-7-4.2.4-.5-.1-.9-.9-.9-.9 0-1.5-.6-1.4-1.3.2-.7-.5-1.1-1.8-.9-1.3.2-2.4-.4-2.8-1.3-.3-.9-.2-1.4.3-1.1.5.3 1.1 0 1.4-.7.4-1.2-.7-1.4-7.5-1.7-3.1-.1-3.7-1.7-1.1-2.7 1.5-.6 1.4-.7-.3-1.3-1.2-.5-2.4-.1-3.5 1.1-.9 1-1.9 1.6-2.2 1.2-.4-.3.1-1.2 1.1-2 1.6-1.2 1.6-1.3 0-.7-1 .3-1.8.2-1.8-.4 0-.5-1.5-1.2-3.2-1.6-2.3-.5-2.9-.9-2-1.5 1-.6.9-1-.7-1.4-3.7-.9-2.3-2.6 1.7-2.1 2 .3 3.2.2 2.6-.3-1.6-1.2-2.4-4.2-1.4-4.8.6-.4 1-.1 1 .4 0 .6.8 1.1 1.8 1.1 1.4 0 1.5-.2.2-1-1.1-.7-1.1-1-.2-1 .7 0 1.1-.4.7-.9-.3-.5 0-1.3.6-1.7.8-.4.9-.3.5.4-1.3 2.1.8 1.2 3.3-1.3 1.3-1.4 2.7-2.5 3.2-2.5s.9-.8 1-1.8c0-1 .3-1.2.6-.5.2.7.9 1.3 1.4 1.3.4 0 .6-.7.3-1.5-.4-1 0-1.5 1.1-1.5.9 0 1.4-.4 1.1-.9-.3-.5.8-1.4 2.4-2.1 1.7-.7 3-1.6 3-2.1s.6-.9 1.3-.9c.6 0 2.3-1.2 3.6-2.5 1.2-1.4 2.8-2.2 3.5-1.8.6.3.8.3.4-.2-.5-.5.2-1.3 1.5-2 1.2-.6 2.1-1.7 1.9-2.3-.1-.7.3-1.2.9-1.2.6 0 1.8-.7 2.6-1.6.9-.9 2.6-1.4 3.9-1.1 1.9.3 2.1.2 1.1-1.4-.7-1.2-1.4-1.4-1.8-.7-.4.6-1.2.7-1.9.3-.8-.5-.5-1.4 1-3 1.2-1.3 2-2.7 1.7-3.2-.3-.5-.1-1.5.5-2.3.8-1.3.9-1.2.5.2-.3.9 0 1.9.7 2.1 1 .4 1.2-.1.9-1.4-.4-1.5 0-1.9 2.3-1.9 1.7 0 2.4-.4 1.7-.8-1.6-1 1.2-4.6 3.1-3.9 1.2.5 1.3 1.3.6 3.8-1.2 4.3-.6 4.8 1 .9.7-1.6 1.6-3 2-3 .4 0 .7-.8.6-1.7 0-.9.9-2.2 2.2-2.8 3.4-1.8 4-2.8.9-1.6-1.5.6-2.7.7-2.7.3 0-1.9 5.2-11.3 6.4-11.8.8-.3 1.7-1.7 2.1-3.1.3-1.4.9-2.3 1.2-1.9.3.3 1.4-.8 2.4-2.4 1.1-1.7 2.6-3 3.5-3 1.3 0 1.5.8.9 5.2-.3 2.9-1 6.2-1.4 7.3-.5 1.1-1.4 5.1-2.1 9-2.5 15-3 16.9-4.5 17.7-1.9 1.1-2 4.2-.1 3.5 1.4-.6 1.1 1.6-.9 6.5-.4 1-.5 1.8-.2 1.8 1.4 0 3.7-7.2 5.1-16 .9-5.2 1.8-10.4 2-11.5.2-1.1.6-4.1 1-6.7.7-4.6 3.6-9 3.6-5.4 0 1-.4 2.5-.9 3.4-.4.9-1.1 4.8-1.4 8.6-1.1 11.9.3 6.9 3.3-12.4.9-5.8 3-10.7 3-7 0 .7 1.1 2.8 2.5 4.6 1.4 1.8 2.5 3.7 2.5 4.2s1.2 1.5 2.6 2.2c3 1.7 5.3 5.7 5.6 9.7.1 1.9.3 1.4.8-1.7.4-2.5.8-3.5.8-2.3.2 1.5.7 2.1 1.7 1.7.9-.4 2.6.6 4.2 2.4 7.9 8.5 10.3 11.5 10.3 13 0 1.3.2 1.4.9.4.6-1.1 2.5.2 7.7 5 3.8 3.4 7.1 6.6 7.4 6.9.3.4 1.4.9 2.6 1.3 1.1.3 3.9 2.6 6.3 5.1 2.4 2.5 4.8 4.2 5.3 3.8.7-.3.8-.1.4.6-.4.6-1.7 1.1-2.9 1-1.2-.1-3.7-.1-5.6-.1l-3.4.2 2.1 1.9c1.2 1 1.9 2.1 1.5 2.5-1.1 1-4.8.7-6.1-.6-.9-.9-1.2-.8-1.2.5 0 2-3 2.3-4.9.4-1.1-1-1.2-.9-.6.2.7 1.1.1 1.3-2.6.8-1.9-.3-2.8-.3-2.1 0 .6.2 1.2 1.1 1.2 1.8 0 1.4-7.8 2.6-8.2 1.3-.2-.4-1.3-.5-2.5-.2-1.3.4-2 1-1.7 1.5.3.5-1.6.9-4.3 1-3.6 0-4.3.3-2.8.9 1.7.7 1.5.9-1.1.9-2.3.1-3.7.9-4.9 2.7-1.3 2.1-1.9 2.4-2.6 1.3-.6-1-.9-1.1-1-.2-.4 3.8-1.6 5.4-3.4 4.6-1-.3-1.5.1-1.5 1.3 0 1.5.2 1.6.9.5.6-.9 1.1-1 1.5-.2.4.6.4 1.6.1 2.2-.9 1.3-4.5-1.8-4.1-3.4.2-.7.1-.9-.1-.4-.3.4-.9.5-1.4.1-.5-.3-1.4-.2-2 .2-.8.4-.7.9.2 1.5 1 .6.5.9-1.4.9-1.6 0-2.6.4-2.3.9.8 1.2-5 2.5-6.6 1.5-1-.6-1-.4 0 .9 1.4 1.6.8 4.2-.7 3.3-.4-.3-.8.1-.8.8 0 .8.7 1.2 1.5.9 1.2-.5 1.2-.3.1 1.6-.8 1.1-1.7 2.1-2.1 2.1-.5 0-.8.4-.8 1 0 .5.7.7 1.5.4 2.3-.9 1.9 2.2-.5 3.9-2 1.4-1.9 1.4.4 2.6 3.2 1.7 3.4 6.8.3 8.2-2 .8-1.9.9.6.5 2.1-.3 2.7 0 2.3 1.1-.8 1.9.4 6.3 1.6 6.3.5 0 .6-.4.3-1s.1-.7 1-.4c1 .4 1.3 1.3 1 2.5-.4 1.2-.1 2.1.9 2.5.9.3 1.3 1.1.9 1.7-.4.6 0 .8 1 .4 1.1-.4 1.4-.2 1 .8-.3.8-.8 1.3-1.2 1-1.9-1.1-.4 2.3 2.2 5 1.5 1.6 2.5 2.3 2.2 1.4-.4-1-.2-2 .4-2.4.6-.3 1.1.1 1.1 1.1 0 1.2.5 1.5 2.3.9 1.2-.3 2.9-.8 3.7-.9.8-.1 2.6-.8 3.9-1.5 3.1-1.7 4.9-.1 3.4 3.1-3.3 7-3.9 11.3-1.4 11.5.9 0 4.5.6 8.1 1.3 3.5.6 7.5.9 8.7.5 1.3-.3 2.3-.3 2.3 0 0 1.2-3.6 4.5-5 4.5-1 0-1.1.3-.4.8 1.8 1.1 1.3 4.4-.5 3.7-.9-.3-.5.4.9 1.5 2.7 2.1 4 2.5 4 1.1 0-.5 1.6-.2 3.4.7 1.9.9 3.3 1.9 3.1 2.3-.7 1 4.1 3.9 6.5 3.9 1.2 0 1.8.4 1.5 1-.4.7.3.9 1.9.6 1.4-.3 2.6-.1 2.6.4 0 .4 1.1.7 2.5.6 1.3-.2 2.2.1 1.9.5-.3.5.1 1 .8 1 .7.1 2 .2 2.8.3.8 0 1.8-.3 2.2-.8.4-.6 1.2-.5 2.1.2.7.7 1.7.9 2 .5.4-.3.7 0 .7.8.1 1 .3.9 1.1-.4.5-.9 2.2-1.8 3.7-1.8 2.7-.2 2.7-.2.2-.6-5.3-1-6.3-4.7-1.2-4.1 2.5.3 2.7 0 2.4-3-.3-2.3.1-3.2 1.1-3.2s1.3-.8.9-2.6c-.3-1.7-.1-2.5.5-2.1.6.4 1.8-.5 2.8-1.9 1.4-2.2 1.9-2.3 3.3-1.3 1.6 1.2 1.6 1.1 0-.6-1.5-1.6-1.9-1.7-3.5-.4-1.6 1.3-1.7 1.2-.5-.3 1-1.2 2.4-1.5 5.8-1.2 3.6.4 4.4.2 4.4-1.1 0-.8.7-1.8 1.5-2.1.8-.4 1.2-1.1.8-1.7-.4-.6 0-.8 1-.4 1.6.6 2.2-.8 1.8-3.5-.1-.9 1.9-.1 7.5 2.9l4.2 2.2v-2.4c0-1.4-.4-2.5-.9-2.5s-.8-.4-.7-.9c.4-1.2-7.4-8.3-10.9-10.1-1.5-.8-4.3-2.7-6.1-4.2-1.8-1.6-3.8-2.8-4.5-2.8-.7 0-2.7-1.4-4.5-3-3.8-3.4-4.7-3.7-3.8-1.3.5 1.6.4 1.6-.6.3-.7-.8-2.9-1.5-4.8-1.6-6.4-.1-12-.9-12-1.6 0-.4-.6-.5-1.3-.2-.8.3-2-.2-2.7-1.1-1.2-1.4-1.1-1.8.1-2.6 1-.6 1.1-.9.1-.9-.7 0-1-.5-.6-1.1 1.1-1.8 24.4.1 30.9 2.6 8.6 3.2 11.5 5.6 17.3 14.1 2.3 3.4 4.9 6.7 5.7 7.4 3.9 3.2 2.2-2.3-3-10-2.7-4-13.7-16-13.9-15.2-.1.4-2.1-.1-6.6-1.8-1.9-.7-5.4-1.4-7.8-1.5-2.3-.2-4.9-.9-5.7-1.5-.9-.7-1.8-1-2.2-.7-.3.3-1.8 0-3.3-.8-1.5-.8-3-1.1-3.4-.8-.3.4-.6 0-.6-.8 0-3.5 8.2-7.2 16.5-7.4 2.2-.1 5.3-.7 6.8-1.3 1.6-.7 4.3-1.2 6-1.2 3 .1 3.1.1 1.3 1.5-1.1.8-1.5 1.5-.9 1.5s2.3-1 3.8-2.1c1.5-1.2 3-1.8 3.3-1.3.4.5 1.4.9 2.2.9 6.4 0 16.2 1.8 16.7 3.1.6 1.7 4.3 1.9 4.3.2 0-2.7 1.6.9 1.9 4.5.1.4 1.2 0 2.5-.8 2.9-1.9 2.5-4.3-1.2-7.7-1.9-1.7-2.4-1.9-1.9-.6.3 1 .1 2-.5 2.4-.7.5-.8.2-.3-.6.5-.9.2-1-1.4-.5-1.2.3-2.1.2-2.1-.4 0-.5.8-1.2 1.8-1.4.9-.3-.1-.6-2.3-.7-3-.1-3.5-.3-2.1-.9 1.8-.7 1.8-.8.3-1.4-.9-.3-2.5-.3-3.4 0-1.5.6-1.6.5-.3-.9.8-.9 2.9-1.5 4.6-1.4 4.4.2 3.9-2.3-.8-4.2-2.1-.8-3.8-1.9-3.8-2.3 0-.5-1.8-1.4-4-2-3.2-1-3.8-1.5-2.9-2.6.6-.7.8-1.3.3-1.3-.4 0-.3-.5.4-1.2s1.2-1.7 1.2-2.2c0-.6-.9 0-1.9 1.3-3.2 4.2-10.2 3-14.8-2.7-2-2.5-1.6-2.9 2.3-2.6 3.1.2 3.4.1 2.2-1.3-1.1-1.4-1.1-1.5.2-1.1.8.2 2.1-.1 2.8-.9.7-.7 2.5-1.3 3.8-1.3 1.5 0 2.3-.4 1.9-1-.4-.6-1.6-1-2.8-.8-1.4.2-2.2-.2-2.2-1.2 0-1.2 1.3-1.5 5.5-1.5 4.8 0 5.8-.4 7.9-2.8 1.2-1.5 2.1-3.4 1.7-4.2-.3-.8-.1-1.7.3-2 .5-.3.6-1.5.3-2.8-.5-1.8-.8-1.4-1.7 2.3-.9 3.6-1.7 4.8-4.5 6.3-4.1 2.1-14.7 2-14.2-.1.3-1.5-1-1.6-2.5-.1-.7.7-1.4.6-2.4-.4-.8-.7-2-1.2-2.7-.9-.7.2-3.2-.9-5.5-2.4-2.3-1.6-4.6-2.7-5.2-2.5-.5.1-.5-.3.2-1 .9-.9.5-1.7-2-3.4-1.8-1.2-3.1-2.7-2.9-3.3.1-.7-.2-1.2-.8-1.2-1.3 0-4.8-7.2-4.3-8.8.3-.6-.1-1.2-.7-1.2-.7 0-1-.7-.6-1.5.3-.8.1-1.5-.4-1.5-.6 0-.9-.3-.8-.8.1-.4-.8-2.8-2-5.4-4.7-10.1-6.5-20.7-6.4-37.8 0-5.6-.2-7.8-.8-6.5-.7 1.7-.9 1.4-.9-1.3-.1-2 .3-3.1.9-2.7.6.3 1-.1 1-.9 0-.9-.5-1.6-1-1.6-.6 0-.5-.8.2-2 .7-1 1.5-1.6 1.8-1.2.3.4 1.6 1.6 3 2.7l2.5 2-2.3-2.7c-1.4-1.5-1.9-2.8-1.3-3.2.5-.4 2.1 1 3.5 3.1 2.7 3.9 3.5 3.9 1.4 0-2.6-5-2.8-5.8-2.3-6.8.9-1.3 2.7 0 1.9 1.4-.4.7-.4.9.1.5.4-.4 1.4-.3 2.2.3.9.9 1.3.8 1.3 0 0-1.8 2.4-.8 3.2 1.4.6 1.9.6 1.8.7-.3.1-2.2.1-2.2 3.1.5 1.7 1.5 4.2 4.2 5.6 6.1 2.5 3.2 2.5 3.4.8 4.7-1.7 1.3-1.6 1.4 1.1.6 1.7-.5 4.5-1.7 6.4-2.7 2.5-1.4 3.5-1.6 3.8-.7.3.7 1.3 1.3 2.4 1.3 1.1 0 2.3 1 2.8 2.2l.8 2.2.5-2.2c.4-1.2.2-2-.2-1.7-.5.3-.8-.3-.7-1.3.1-1.8.3-1.8 2.8-.3 1.5.8 2.5 1.9 2.3 2.3-.2.3 0 .9.6 1.3.5.3 1-.2 1-1.2 0-2.6 5.1-2.8 5.7-.2.3 1 1 1.9 1.7 2 .6.1 0 .5-1.4.9-2.4.8-2.3.8.8.9 2.8.1 3.5.6 4.8 3.6 1.7 4.1 1.7 4.8.4 4-.5-.3-1-.1-1 .4 0 .6.7 1.1 1.5 1.1s1.5.5 1.5 1.1c0 .5 1.2 2.5 2.7 4.3 1.4 1.9 2.6 3.6 2.5 4-.1.3 1.4 3.9 3.3 8.1 1.9 4.1 3.2 7.5 2.8 7.5-.3 0 .2.9 1.1 1.9 1 1.1 1.7 3 1.6 4.3-.1 1.3-.1 2.5 0 2.8.3.9.8 3.5 1.5 7.5.4 2.2 1.2 4.6 1.7 5.2.7.9.7 1.7-.1 2.6-.6.8-.8 1.7-.5 2 .4.3.8 2.1 1 3.9.3 1.8.6 4.6.8 6.3.7 5.2 1.5 18.4 2.1 35.5.8 20.8 2.6 33.9 6.4 46 3.8 12.1 5.8 20.8 6.7 29 .3 3.6.8 6.8 1.1 7.3.6 1 .4 29.3-.2 37.2-.2 3.3-.7 8.5-1 11.5-.3 3-.8 7.8-1 10.5-.2 2.8-.7 6.8-1.1 8.9l-.7 3.9 2.2-2.2c1.1-1.1 2.1-2.6 2.1-3.2 0-.5.3-.8.8-.6.4.3 1.3-.1 2-.9s1.1-1.4.8-1.4c-.3 0 .1-1.2.9-2.7.9-1.6 1.1-3.2.5-4.2-.5-1-.3-2.6.7-4.4.9-1.9 1.3-5 1.1-8.9-.2-3.7.1-6.2.8-6.5 1.9-.6 5.4 8.1 5.4 13.4 0 2.7.3 5.3.6 5.6 1.1 1.1 5.9-6.5 7.8-12.3 2.9-8.8 3.5-10 4.7-10 .8 0 1 1.8.5 6.2-.7 6-2.7 11.4-10.2 27.5-3.6 7.6-4 9.3-2.4 9.3.6 0 1-.5 1-1.1 0-2.2 17.5-18.6 21.3-20 2-.7 3.7-1.7 3.7-2.2 0-.4 3.7-4.5 8.1-9 9.5-9.4 11.1-12.6 10.8-21.2-.2-5.2.1-6.6 1.9-8.6 1.2-1.2 2.2-2.6 2.2-3.1 0-.4.4-.8 1-.8.5 0 2-1 3.3-2.3 1.3-1.2 4-3.7 6-5.5 2-1.9 3.7-3.8 3.7-4.3 0-.6.4-.8.9-.5.4.3.8-1.2.8-3.4s-.4-4-.8-4c-2.5 0-.4-2.8 2.9-3.9 4.2-1.6 5.2-2.6 5.2-5.9 0-1.5.4-2.1 1.3-1.6.6.3-.1-.5-1.8-2-1.6-1.4-3.4-2.5-3.9-2.6-.5 0-1.7-.7-2.7-1.6-.9-.8-3.2-1.8-5.1-2-1.9-.3-4.1-1.6-5.2-3-1-1.4-2.9-3-4.2-3.5-1.5-.5-2.4-1.7-2.4-2.9s-.9-2.4-2.4-2.9c-1.7-.7-2.5-2-3-4.9-.3-2.2-.9-4.2-1.3-4.4-1.3-.5-4.4-8-3.7-8.7.4-.3.9 0 1.1.6.3.7.8 1.3 1.3 1.3 1.4 0 2.1-3.2.9-4.6-1-1.2-.8-1.3.7-.8 1.8.5 1.8.5.2-.9-1-.8-1.8-2.7-1.8-4.3 0-2.6-.1-2.7-1.4-.9-.8 1.1-1.2 2.4-.9 3 .4.5.2.6-.2.2-.5-.4-1-1.3-1.1-2-.1-.7-.5-2.4-.9-3.8-.6-2.3-.3-2.7 2.2-3.4 1.5-.4 2.2-1 1.6-1.2-1.9-.7-1.7-6.3.2-6.3.9 0 1.5.9 1.5 2.3 0 1.2.9 4.8 2 8 1.1 3.1 2 6.8 2 8.2 0 1.4.4 2.5.9 2.5 1.7 0 .8 4-1 4.5-1 .3-1.7 1.6-1.7 3.3 0 4.1.9 4.7 3 2.1l1.8-2.4-.9 2.7c-.7 1.8-.7 2.9 0 3.4 1.4.8 4-1.6 3.2-3-1.2-1.8-1.5-4.9-1.1-10.1.2-2.8-.5-4.8-1.9-6-.7-.5-1.5-2.4-1.7-4-.9-6-2.4-13.2-4.4-20.5-1.3-4.7-1.8-7.8-1.2-8.4.6-.6 1-2.4 1-4.1 0-1.7.6-3.7 1.3-4.4 1-1.1.8-1.3-1.2-.8-1.4.3-2.9 0-3.7-.8-1.6-1.6-.7-2.4 3-2.7 1.4-.1 2.6-.6 2.6-1.1 0-1.1-3.3-4.4-3.6-3.7-.2.3-1.5-1.7-2.9-4.4-3.1-5.8-2.7-7.9 1.2-7 1.6.4 2.5.3 2.1-.1-.4-.5-.3-1.4.3-2.1.8-.9.5-1.1-.9-.7-2.5.6-6.2-1.3-6.2-3.2 0-.8-1.1-2.6-2.5-4.1-1.9-2.1-2.2-3-1.4-4 .9-1.1.7-1.4-.7-1.4-1.1 0-2.5-1-3.3-2.1-1.1-1.9-1.1-2.1.2-1.6 1.2.4 1.4 0 1.1-2-.6-3-6-9.8-8.6-10.8-2.2-.8-6.3-7.8-4.9-8.3.6-.2.9-.8.5-1.3-1-1.7 1.2-.9 2.9 1.1.9 1.1 2.2 2 2.9 2 1.6-.1-4.3-5-5.9-5-1.7 0-3.4-3.5-2.7-5.5.4-1 .2-1.5-.7-1.3-.7.2-1.3-.2-1.4-.7 0-.6-1.3-2.7-2.9-4.8-1.6-2.1-2.6-4-2.4-4.3.3-.3 1.5.7 2.7 2.2 1.1 1.5 2.1 2.4 2.1 2 0-.8 7.4 2.9 11.2 5.5 3.1 2.2 5.2 2.5 2.4.4-1.1-.8-1.6-1.5-1.2-1.5.5 0-1.9-1.4-5.3-3.2-3.5-1.8-6.7-4.1-7.2-5.1-.6-1-2.7-3.4-4.7-5.3-4.1-3.9-3.2-4.7 1.2-.9 3.1 2.6 6.3 3.4 5 1.2-1-1.6-5.8-5.3-6-4.7-.5 1.1-5.4-4.4-5.4-5.9.1-1.1.8-.8 2.5 1.1 1.3 1.6 2.7 2.3 3 1.8.3-.6.3-1-.2-1-1.2-.1-4.6-5-3.4-5 2.3 0 6.4 4.7 6.4 7.3 0 1.5.3 2.7.7 2.7.5 0 .7-1.1.6-2.5-.3-2.1-.1-2.3 1.6-1.4 1 .5 1.6 1.4 1.3 1.9-.3.5 0 1.2.6 1.6.8.4.9.3.5-.4-1.3-2.1 1-1.3 3 1 1.5 1.9 1.6 2 .2.9-1.2-.9-1.8-.9-1.8-.2 0 .6 1.7 1.9 3.9 3 2.1 1.1 4.1 2.7 4.4 3.6.4.8 1.4 1.5 2.2 1.5.9 0 1.3-.4 1-1-.3-.6.1-.7.9-.4.9.3 1.6.1 1.6-.5s-.4-1.1-1-1.1c-1.3 0-5.1-3.2-12.3-10.2-3.2-3.1-6.6-6-7.5-6.3-1.5-.6-1.5-.8.3-1.5 2.6-1 4.8-.1 4.1 1.7-.3.8-.1 1.1.5.8.5-.4 2.1.4 3.4 1.7 1.2 1.2 3.8 3.1 5.7 4.2 2.6 1.5 2.2.9-2-2.9s-5.2-5.3-5-7.4c.2-1.9-.3-2.9-2.1-3.9-1.6-.8-2.8-.9-3.4-.3-.7.7-1.7.6-3-.1-1.9-1-1.7-1.2 1.8-2.3 2-.8 4.3-1.1 5-.9.7.3 1.5-.2 1.9-1.1.5-1.3.2-1.5-1.7-.9-4.6 1.5-7.2 1-7.5-1.3-.3-2.1-.4-2.1-2.1-.5-1 .9-1.6 2-1.4 2.4.2.4-.4.5-1.3.1-1.1-.4-1.3-.8-.6-1.1.7-.2 1-.7.7-1.2-.3-.5.2-1.5 1-2.4 1.3-1.2 1.4-2 .5-3.6-.9-1.6-.7-2.6.9-4.8 1-1.5 2.6-4.3 3.4-6.2l1.5-3.5.1 2.9c.1 3.2.9 3.1 1.6-.2.2-1.1.9-3 1.5-4.1 1.3-2.6-.4-2.9-1.9-.4-1.5 2.6-1.3.1.2-3.6 1-2.4 1.6-2.8 2.5-1.9.9.9.9.4 0-2-1.4-3.6-2.8-4.2-2.8-1.1 0 1.1-.4 1.7-1 1.4-1-.6-1.2 0-1.4 4.5-.1 1.5-.8 2.6-1.8 2.8-1.7.3-1.7.1-.1-4.5.9-2.6 2.2-6.3 3-8 1.1-2.6 1.1-3.7.2-5.5-1.1-2.1-1.1-2.2.4-.9 1 .7 1.7 2.4 1.7 3.7 0 1.2.5 2.6 1 2.9 1.3.8 1.3-2.6 0-5.9-.5-1.4-.6-2.6-.2-2.6 1.8 0 .9-3.9-.9-4.5-2.1-.7-3.2-2.9-4.3-8.5-.6-2.9-.5-3.3.6-2 .7.8 2.2 2.2 3.3 3 1.1.8.7 0-.9-1.8-1.6-1.7-3.2-2.9-3.6-2.7-.4.3-1.4-1-2.1-2.8-2.4-5.9-10-17.7-11.5-17.7-.8 0-1.4-.4-1.4-.9 0-1.8-12.5-13.4-20.3-18.8-10.9-7.7-16-10.1-23.4-10.9-5.8-.6-6.3-.5-5.6 1.1.4 1.2.3 1.6-.4 1.2-.6-.4-1.3-.2-1.5.3-.2.7-2.5.3-6.1-.9-3.2-1.1-6.2-2-6.5-1.9-.4.1-2-.4-3.7-1.1-2.1-.9-3.1-.9-3.3-.1-.2.6-1.9 1.7-3.8 2.5-2.8 1.2-3.4 1.9-3.4 4.5s-.6 3.3-3.7 4.7l-3.7 1.5-4.9-5.1c-2.7-2.8-5.4-5.1-6-5.1-.7 0-2.1-.7-3.1-1.5-1.1-.8-2.5-1.5-3-1.5-.6 0-.2.7.8 1.5 1.7 1.3 1.8 1.5.3 1.5-.9 0-1.8-.5-1.8-1-.3-1.9-.5-2.5-2.7-6.7-3.7-7.1-5.8-8.1-17-8.1-8.1 0-11.5.6-20.7 3.4zm17.2-1c-1.6.9-3.1 1.3-3.4 1-.3-.3.5-1 1.8-1.5 3.7-1.5 4.7-1.2 1.6.5zm11.3.4c.6 1.1 1.6 1.9 2.2 1.7.7-.1 1.3.7 1.5 1.8.1 1.1 0 1.5-.3.9-.2-.6-1.6-.9-2.9-.6-1.5.2-2.5 0-2.5-.7 0-.6-.4-1.1-1-1.1-1.5 0-1.2 3 .3 3.1.9 0 .9.2-.1.6-.6.2-1 .9-.6 1.4.7 1.2.2 1.1-3.4-.7-1.8-.8-3.2-2-3.2-2.5s-.7-.9-1.5-.9c-2.7 0-1.6-1.8 1.8-2.9 2.9-.9 6.1-1.7 7.9-2 .4 0 1.2.8 1.8 1.9zm-21 1.6c0 2.5-2.5 4.3-6.8 4.9-2.6.4-5.7 1.1-7 1.7-1.7.9-2.5.9-3.4 0-.9-.9-.4-1.3 2-1.8 1.8-.4 3.5-1 3.8-1.5.2-.5 1.7-.7 3.2-.5 1.5.2 2 .1 1.2-.2-1-.3-.3-.9 2-1.8 4.1-1.5 5-1.6 5-.8zm27.8 3.9c-.3.3-.9-.2-1.2-1.2-.6-1.4-.5-1.5.5-.6.7.7 1 1.5.7 1.8zm-21.8.7c0 1-4.9 2.2-5.6 1.5-.4-.3-.3-1 0-1.6.8-1.2 5.6-1.1 5.6.1zm-25 2.9c0 .5-1.9.9-4.2.8h-4.3l3.5-1.3c3.6-1.3 5-1.2 5 .5zm44.6 2.5c-1.3 1.4-2.7-.2-1.9-2.2.4-1 .8-1 1.7-.1.9.8 1 1.4.2 2.3zm3.9-2.6c.3.5.1 1-.4 1-.6 0-1.1-.5-1.1-1 0-.6.2-1 .4-1 .3 0 .8.4 1.1 1zm-27.8 1.6c-.3.3-1.2.4-1.9.1-.8-.3-.5-.6.6-.6 1.1-.1 1.7.2 1.3.5zm7.3 2c0 1.6-2.6 1.9-3.5.4-.3-.6-.4-1.4 0-2 .8-1.3 3.5-.1 3.5 1.6zm-92.5 1.9c3.9.7 7.2 1.4 7.5 1.5.3.2-2.2.6-5.4 1-4.8.6-6.7.4-10-1.1-2.3-1-5.2-1.9-6.6-2-2.3-.1-2.3-.2.5-.9 1.7-.5 3.9-.6 5-.3s5.2 1.1 9 1.8zM621 139c0 .5-.7.7-1.5.4-.8-.4-1.5-.8-1.5-1 0-.2.7-.4 1.5-.4s1.5.4 1.5 1zm-5.3.6c-.3.3-1.2.4-1.9.1-.8-.3-.5-.6.6-.6 1.1-.1 1.7.2 1.3.5zm38.8 1.4c.4.6 1.1.8 1.6.4 1.3-.8 6.1 2.4 5.4 3.6-.3.5-.1 1.1.5 1.5.6.4.8 1.1.4 1.6-.3.5-.9.7-1.3.5-.4-.3-.8.1-.8.9 0 1.8 1.4 2 1.9.3.5-1.4 2.8-.2 2.8 1.4 0 .6-.3.9-.6.5-.4-.3-1.3 0-2.1.8-1.8 1.9-4.7 2-4 .1.3-.8-.1-1.3-1.1-1.2-1.1.1-1.7-.6-1.7-1.9 0-1.1-.8-2.8-1.7-3.8-1-.9-1.8-2.6-1.8-3.7 0-2.1 1.5-2.7 2.5-1zm36 .1c1.6.7 1.2.8-1.7.6-2.1-.2-3.8 0-3.8.4s-.7.9-1.5 1.3c-1 .4-1.5-.1-1.5-1.4 0-1.6.7-2 3.3-1.9 1.7 0 4.1.5 5.2 1zm-168.1 1.2c2.9 1.3 2.8 1.3-2 1-2.7-.1-5.5-.2-6.1-.2-.7-.1-1.3-.6-1.3-1.1 0-1.4 5.9-1.2 9.4.3zm96.6-.3c.8.5 1.2 1.2.9 1.5-.8.8-3.9-.5-3.9-1.6s1.1-1.1 3 .1zm62 .6c0 1.7-2.2 1.4-2.8-.4-.2-.7.3-1.2 1.2-1.2.9 0 1.6.7 1.6 1.6zm-34.1 2.4c1.1 2.4 1.1 2.4-.3.6-.9-1.1-1.6-2.4-1.6-3 0-1.2.5-.7 1.9 2.4zm49.1-2c0 .5-1.7.9-3.7.9l-3.8-.2 3.5-.7c1.9-.4 3.6-.8 3.8-.9.1 0 .2.3.2.9zm3.4 5.2c-.8 4.3-2.9 7.5-5.1 8.1-1 .2-.5.3 1 .1 1.7-.2 2.6 0 2.2.6-.3.6-2.7 1-5.3.9-3.5 0-4.2-.3-2.7-.9 1.1-.5 1.4-.9.6-.9-.7-.1-1.1-.7-.7-1.6.4-1-.1-1.4-1.7-1.2-1.8.2-2.3-.4-2.5-3-.3-3.1-.2-3.2 5-4.1 9.5-1.7 9.8-1.7 9.2 2zm-238.9-.2c-3.2 2.1-4.5 2.5-4.5 1.2 0-.5 1.2-1.3 2.8-1.9 4.3-1.7 5-1.5 1.7.7zm223.3 4.5c.2 1.6-.3 2-3 2-2.3 0-3.4-.5-3.6-1.8-.4-2 .9-2.2 2.7-.5 1 1.1 1.1.9.5-.6-.5-1.4-.3-1.7 1.2-1.4 1 .2 2 1.2 2.2 2.3zm21.2 0c0 .8-.9 1.5-2 1.5-2 0-2.6-1.1-1.3-2.3 1.2-1.3 3.3-.7 3.3.8zm4.5 1.5c.3.5.1 1-.4 1-.6 0-1.1-.5-1.1-1 0-.6.2-1 .4-1 .3 0 .8.4 1.1 1zm8 1c1 1.1 1.6 2 1.3 2-.3 0-1.3-.9-2.3-2-1-1.1-1.6-2-1.3-2 .3 0 1.3.9 2.3 2zm-52 1c-.3.5 0 .7.9.4.8-.3 1.9.3 2.5 1.4 1.1 2 .6 3.2-1.4 3.2-1.7 0-6.7-4.5-5.9-5.3 1.1-1.1 4.6-.8 3.9.3zm71.8 1.5c.4.8 1.2 1.3 1.7 1 1.1-.6 6.4 7.4 5.6 8.3-.3.3-.2 1 .3 1.6.4.6 1.1 1.9 1.4 2.8 1 2.7-1.5 1.2-4-2.5-3-4.3-9.6-11.3-10.5-11-.4.2-.5-.4-.2-1.1.7-1.8 4.5-1.2 5.7.9zM711 157c0 .5-.7 1-1.5 1s-1.5-.5-1.5-1c0-.6.7-1 1.5-1s1.5.4 1.5 1zm12.5 3c2.7 1.8 2.8 2 .8 2-1.2 0-2.9-.7-3.7-1.6-3.1-3-1.5-3.3 2.9-.4zm-27.3 2c-.2.8-.8 1.7-1.4 1.9-.6.2-.5.7.3 1.3 1.1.7.9.8-.6.6-1.1-.2-2-1-2-1.8s-.3-2-.7-2.5c-.4-.7.4-1.1 2-1 1.8 0 2.6.6 2.4 1.5zm-6.7 0c-.3.5-.2 1 .2 1 .5 0 .9 1 1 2.2.2 2.2.1 2.2-1.2-.2-1.7-3-1.8-4-.4-4 .5 0 .7.4.4 1zm12.2.4c-.3.8-.1 1.7.6 2 .7.2.5.5-.5.5-.9.1-1.9-.7-2.2-1.7-.2-.9-.4-.1-.3 1.8.2 2.7-.2 3.5-1.8 3.9-1.1.2-2.5 1-3.1 1.9-.9 1.2-1.3 1.2-1.9.2-.5-.9-.4-1.1.3-.6 1.1.7 1.7-.6 1.3-2.8-.1-.5.5-.6 1.3-.3 1.8.7 3.1-.9 1.6-1.8s1.1-4.5 3.3-4.5c1.3 0 1.7.5 1.4 1.4zm12.2 2c-.3.3-1.1-.5-1.8-1.7-1.3-2.1-1.2-2.1.5-.5 1 1 1.6 2 1.3 2.2zm-28.8 1.2c2.1 2.4 2.2 2.6.3 1.6-2.5-1.3-5-4.2-3.7-4.2.5 0 2 1.2 3.4 2.6zm39.4.7c1.1 1.1 1.3 1.6.4.9-.9-.7-2-.8-2.4-.4-.5.4-.5.1-.1-.6.6-1 .1-1.1-1.8-.6-2 .5-2.6.2-2.6-1.1 0-2.1 3.7-1.1 6.5 1.8zm-41.5 3.6c0 1.8-.4 1.4-2.4-2.9l-1.7-3.5 2 2.5c1.1 1.4 2.1 3.1 2.1 3.9zm-6-3.9c0 .5-.2 1-.4 1-.3 0-.8-.5-1.1-1-.3-.6-.1-1 .4-1 .6 0 1.1.4 1.1 1zm30.1.7c1.1 1.5 1.1 1.6 0 .6-2.1-1.8-4.1.6-3 3.4.5 1.4.5 2.3-.1 2.3s-1-.7-1-1.6c0-.8-.4-1.2-1-.9-.6.4-1-.5-1-2 0-1.4.4-2.4.9-2 .5.3 1.2.1 1.6-.5.9-1.5 2.1-1.2 3.6.7zm-27.3 2.8c-.3.3-.9-.2-1.2-1.2-.6-1.4-.5-1.5.5-.6.7.7 1 1.5.7 1.8zM722 168c1.2.8 1.1 1-.7 1-1.3 0-2.3-.5-2.3-1 0-1.3 1.1-1.3 3 0zm-253.9 2.6c1.2 1.5.6 1.7-2.8.8-1.3-.4-2.3-1.2-2.3-1.9 0-1.6 3.5-.8 5.1 1.1zm242.9-1.3c0 .7-.9 1.3-2 1.4-1.6.1-1.7-.1-.7-1.2 1.5-1.8 2.7-1.9 2.7-.2zm-259 .7c0 .5-.7 1-1.6 1-.8 0-1.2-.5-.9-1 .3-.6 1-1 1.6-1 .5 0 .9.4.9 1zm235 .1c0 .5-.5.7-1.1.3-.8-.4-.9.1-.4 1.7.6 1.9.5 2.2-.5 1.2-.7-.6-1-1.9-.7-2.7.7-1.8 2.7-2.2 2.7-.5zm62.8 1.4c-.3.3-.9-.2-1.2-1.2-.6-1.4-.5-1.5.5-.6.7.7 1 1.5.7 1.8zm-50 1.3c-.4 2.1-3.2 2.2-3.6.2-.2-1 .5-1.6 1.8-1.7 1.5-.1 2 .3 1.8 1.5zm23 .1c1.1.7 1.1.9-.1 1.4-.9.3-1.8-.1-2.1-.9-.6-1.6.2-1.8 2.2-.5zm4.7.1c.3.5-.1 1-1 1s-1.3-.5-1-1c.3-.6.8-1 1-1 .2 0 .7.4 1 1zM521 174.5c1.1 1.3 1 1.4-.4.9-.9-.3-1.6-1-1.6-1.5 0-1.3.6-1.1 2 .6zm-109.2.7c-.2.6-2 1.4-3.9 1.6-5.1.5-1.9-1.9 3.4-2.7.5 0 .7.4.5 1.1zm296.9 2.4c.4 1.2-5.3 4.4-7.8 4.4s-2.4-.8.3-3.1c2.3-2.1 3.8-2.4 3.8-.9 0 .5.4 1 1 1 .5 0 .7-.7.3-1.6-.4-1.1-.2-1.5.7-1.2.8.2 1.5.8 1.7 1.4zm14.8-.6c.3.5.1 1-.4 1-.6 0-1.1-.5-1.1-1 0-.6.2-1 .4-1 .3 0 .8.4 1.1 1zm3.5 2.2c0 .5-.4.8-1 .8-.5 0-1-1-1-2.3 0-1.8.2-1.9 1-.7.5.8 1 1.8 1 2.2zm4.6.8c1.7 2.5 3 3.7 3.4 3 .5-.8.9-.6 1.4.5.3 1 .1 2.4-.6 3.3-1 1.2-1 1.6 0 1.9 1.5.6 1.6 5.3.1 5.3-.5 0-.7-.4-.4-1 .3-.5-.5-2-1.8-3.2-2.4-2.4-4.3-6.5-5.1-11.1-.6-3.6-.1-3.4 3 1.3zm3.2.6c-1 1-2.8-.6-2.8-2.4 0-1.5.1-1.5 1.7.1.9.9 1.4 1.9 1.1 2.3zm26.7.4c.9 1.6 1.1 3 .6 3-.5 0-1.1-.8-1.5-1.8-.3-.9-.9-2.3-1.2-3-1.2-2.6.6-1 2.1 1.8zm-296.5-.9c0 .5-.4.7-1 .4-.5-.3-1 .1-1 .9 0 1.9.1 1.9-3.8.5-1.8-.6-2.9-1.5-2.6-2 .7-1.3 8.4-1.1 8.4.2zm251.7 1.1c-.2.7-1 1.2-1.6 1-.6-.1-1.1.3-1.1 1 0 .6-.2.9-.5.6-1-.9.7-3.8 2.2-3.8.8 0 1.3.6 1 1.2zm1.1 3.1c-.7.7-2.2 1.6-3.3 2.1-1.5.5-1.2-.1 1-2.1 2.9-2.7 5.1-2.7 2.3 0zm11 2.3c.7 1.3.8 2.4.4 2.4-1.2 0-3.8-2-2.7-2 .6 0 .2-.5-.8-1.1-.9-.6-1.5-1.4-1.2-1.9.9-1.4 3.1-.1 4.3 2.6zm-18.8-1.1c0 .8-.6 1.5-1.4 1.5-.8 0-1.6-.7-2-1.5-.4-1 .1-1.5 1.4-1.5 1.1 0 2 .7 2 1.5zm-207.9 1.2c1.3 1.6 1.2 1.7-.3.4-1-.7-1.8-1.5-1.8-1.7 0-.8.8-.3 2.1 1.3zm-89.1 6.4c0 1-9.5 2-11.5 1.2-1.8-.6-1.7-.7.1-1.4 2.3-.8 11.4-.7 11.4.2zm328.7 1.1c-.3.8-.6.5-.6-.6-.1-1.1.2-1.7.5-1.3.3.3.4 1.2.1 1.9zm25.3-.1c0 .6-.4.7-1 .4-.5-.3-1-1.1-1-1.6 0-.6.5-.7 1-.4.6.3 1 1.1 1 1.6zm-378.7 5.6c-.7.2-1.9.2-2.5 0-.7-.3-.2-.5 1.2-.5s1.9.2 1.3.5zm380 9.7c.3-.3.3.3 0 1.5-.5 2-2.3 3-2.3 1.3 0-.4-.3-1.8-.6-3.2-.5-2.3-.4-2.4.9-.8.8 1 1.7 1.5 2 1.2zm-397.8 8.5c-.3.6-1.1 1.1-1.7 1.1-.6 0-.6-.6.2-1.5 1.4-1.7 2.6-1.3 1.5.4zm-4.3 1.3c-.7.7-1.2.8-1.2.2 0-1.4 1.2-2.6 1.9-1.9.2.3-.1 1.1-.7 1.7zm396.5 1c-.3.7-.5.2-.5-1.2s.2-1.9.5-1.3c.2.7.2 1.9 0 2.5zm4 2c-.3.7-.5.2-.5-1.2s.2-1.9.5-1.3c.2.7.2 1.9 0 2.5zM383 224.9c0 .9-6.1 2.2-6.9 1.5-.5-.4 3.9-2.2 5.7-2.3.6-.1 1.2.3 1.2.8zm-11.7 5.7c-1.8 1.8-4.5 3.5-5.8 3.8-1.5.4-3.3 2.1-4.4 4.4-2 3.7-2 3.7-2.1.9 0-1.9 1-3.7 3.2-5.7 1.7-1.6 3.5-2.7 3.9-2.4.4.2 1.1-.2 1.6-1 .4-.7 1.7-1.6 2.8-1.8 1.3-.2 1.9-1 1.7-2.2-.3-1.5-.1-1.6 1.1-.5 1.2 1.1.9 1.8-2 4.5zm13.2 1.4c.3.5.1 1-.4 1-.6 0-1.1-.5-1.1-1 0-.6.2-1 .4-1 .3 0 .8.4 1.1 1zm-5.6 3.3c-.7.7-2.6 1.4-4.3 1.5l-3.1.2 2.5-1.5c3.3-1.9 6.6-2 4.9-.2zm20.8 2.3c-.3.3-1.2.4-1.9.1-.8-.3-.5-.6.6-.6 1.1-.1 1.7.2 1.3.5zm-37.9 4.8c-2.1 3.1-4.9 5-7 4.7-.5-.1-.8.4-.8 1.1 0 .6-.3.9-.6.6-.7-.8 2.5-5.8 3.8-5.8.5 0 .6.4.3 1-.3.5-.1 1 .5 1s1.9-1.3 2.8-3c.9-1.6 2-3 2.5-3 .4 0-.3 1.6-1.5 3.4zm10.3.9c-1 .9-1.1.8-.5-.6.3-1 .9-1.5 1.2-1.2.3.3 0 1.1-.7 1.8zm393.3.8c-.3.5-1.2.9-2.1.9-1.2 0-1.3-.3-.4-1.3.6-.8.7-1.8.3-2.3-.4-.4.1-.2 1 .5 1 .7 1.5 1.7 1.2 2.2zM405.5 243c.3.6-.1.7-.9.4-1.8-.7-2.1-1.4-.7-1.4.6 0 1.3.4 1.6 1zm-47.2 6.9c-1.2 1-1.9 2.1-1.6 2.5.4.3.1.6-.5.6-.7 0-1.2.7-1.2 1.5 0 .9-1.6 2.9-3.5 4.6-1.9 1.7-3.5 3.7-3.5 4.4 0 .7-.7 1.8-1.5 2.5-2.4 2-1.8.1 1.7-5.4 3.6-5.7 9.8-12.5 11.3-12.5.6 0 0 .8-1.2 1.8zm10.1 2.4c-.3.8-1.2 1.8-2 2.1-1.1.4-1.1 0 .2-2 1.8-2.6 2.8-2.7 1.8-.1zm280 .3c.7 1.9-1.2 4.7-2.5 3.8-.5-.3-.9-1.6-.9-3 0-2.7 2.4-3.3 3.4-.8zm-299.6 3.9c-1 2.3-2.8 3.4-2.8 1.8 0-.7 3.1-4.3 3.6-4.3.2 0-.2 1.1-.8 2.5zm126.7 2.5c-.9 1.6-1.8 3-2.1 3-.2 0 .2-1.4 1.1-3 .9-1.7 1.8-3 2.1-3 .2 0-.2 1.3-1.1 3zm39.2.7c-.3 1-.5.4-.5-1.2 0-1.7.2-2.4.5-1.8.2.7.2 2.1 0 3zm255.7-2.9c.2.4-.3 1.3-1.2 1.8-1.3.8-2.1.6-3.4-.8-1.7-1.7-1.7-1.8 1.1-1.8 1.7 0 3.2.4 3.5.8zm5-.2c.9.3 1.6 1 1.6 1.4 0 1-3.8.1-4.6-1.1-.6-1 .7-1.2 3-.3zm-148.2 4.6c-.2 1 .1 1.8.8 1.8.9 0 1 .3.1 1.3-.6.8-.9 1.6-.6 1.9.3.3-.2 1.1-1.2 1.9-1.1.9-1.4 1-.9.2.4-.7.3-2.8-.3-4.7-1-3.7-.8-4.3 1.3-4.3.8 0 1.1.8.8 1.9zm21.8 5.1c0 4.5-2.5 1.2-2.7-3.7-.3-4-.3-4.1 1.2-1.6.8 1.4 1.4 3.8 1.5 5.3zm-305.6-.3c-.9 2.3-1.4 4.3-1.1 4.6.3.4.1 1.8-.4 3.3l-.9 2.6 2.6-3c2.5-2.9 2.5-2.9 1.9-.5-.4 1.4-1.7 3.3-3 4.2-1.2 1-3.7 4.2-5.6 7.3-1.9 3-4 5.5-4.6 5.5-1.7 0-1.6-.5.4-4.3.9-1.8 1.8-4.5 1.9-6 .2-1.6 1.2-4.1 2.3-5.5 1-1.5 2.1-3.7 2.5-4.9.7-2.1 4.3-7.3 5.2-7.3.2 0-.3 1.8-1.2 4zm173.2.1c-.7 4.6-2.8 8.3-4.1 7.1-.4-.4-.5.1-.2 1 .3 1 .2 2-.3 2.3-.6.4-1-.8-1-2.5s.3-2.9.8-2.6c.4.2.6-1.4.4-3.6-.3-2.7-.1-3.8.6-3.4.6.3 1.7 0 2.4-.8 2-2.3 2.1-2 1.4 2.5zM350.5 265c.3.5.1 1-.4 1-.6 0-1.1-.5-1.1-1 0-.6.2-1 .4-1 .3 0 .8.4 1.1 1zm40.7 1.7c-.3 1.6-.7 2.2-1 1.5-.4-1.3.4-4.2 1.1-4.2.2 0 .2 1.2-.1 2.7zm242.1 1.1c.4 2.1.3 3.1-.3 2.7-.6-.3-1-2-1-3.7 0-3.8.5-3.4 1.3 1zm-260.8 5.1c-.8 4-1.5 8.4-1.4 9.9.1 2.6.1 2.6 1.1-.6 1.9-5.8 2.7-4 2.7 6.2 0 2.8-.2 5.2-.4 5.5-.3.2-.5-2.5-.6-6-.1-6-.2-6.2-1.1-2.9-.5 1.9-1.5 6.5-2.1 10.2-1.3 7.2-2.5 9.7-2.1 4.5.1-1.8-.2-5.4-.7-8-.6-3.5-.5-5.7.5-8 1.1-2.8 2.3-7.6 4.2-16.6.3-1.3.7-2.1 1-1.9.2.3-.2 3.7-1.1 7.7zm3.2-5.7c-.3.8-.6.5-.6-.6-.1-1.1.2-1.7.5-1.3.3.3.4 1.2.1 1.9zm29.4 4c-.8 2.8-.9 3-1 .8-.1-3.4 1.2-8 1.7-5.8.2.9-.1 3.1-.7 5zm-11.4-2c-.3.8-.6.5-.6-.6-.1-1.1.2-1.7.5-1.3.3.3.4 1.2.1 1.9zm286.8-1.2c.3.5-.1 1-.9 1-.9 0-1.6-.5-1.6-1 0-.6.4-1 .9-1 .6 0 1.3.4 1.6 1zm-351.5.4c0 .2-.7.7-1.6 1-.8.3-1.2.2-.9-.4.6-1 2.5-1.4 2.5-.6zm7.4 1.7c-.3.5-1 .7-1.5.3-.5-.3-.7-1-.3-1.5.3-.5 1-.7 1.5-.3.5.3.7 1 .3 1.5zm66.3 1.6c-.3 1-.5.4-.5-1.2 0-1.7.2-2.4.5-1.8.2.7.2 2.1 0 3zm5-1.5c-.3.8-.6.5-.6-.6-.1-1.1.2-1.7.5-1.3.3.3.4 1.2.1 1.9zm-42.6 3.5c-1.2 2-1.4 1.4-.5-1.2.4-.9.9-1.4 1.1-1.1.3.2 0 1.3-.6 2.3zm3 1.6c-1 .9-1.1.8-.5-.6.3-1 .9-1.5 1.2-1.2.3.3 0 1.1-.7 1.8zm282.6.9c-.3.7-.5.2-.5-1.2s.2-1.9.5-1.3c.2.7.2 1.9 0 2.5zm-246.8 3.7c.1 3.5-.5 2.2-1.2-2.4-.5-2.8-.4-3.4.3-2 .5 1.1.9 3.1.9 4.4zm112.8-2.7c-.3.7-.5.2-.5-1.2s.2-1.9.5-1.3c.2.7.2 1.9 0 2.5zm-163.5 0c-.7.7-1.2.8-1.2.2 0-1.4 1.2-2.6 1.9-1.9.2.3-.1 1.1-.7 1.7zm254.9.1c-1 .9-1.1.8-.5-.6.3-1 .9-1.5 1.2-1.2.3.3 0 1.1-.7 1.8zm-259.2 1.9c-1 3.5-2.4 5.4-3.1 4.1-.9-1.5 1.2-7.3 2.7-7.3 1.1 0 1.2.7.4 3.2zm58.8-1c-.3.8-.6.5-.6-.6-.1-1.1.2-1.7.5-1.3.3.3.4 1.2.1 1.9zm-42.7 1.1c0 .7-1 2.3-2.1 3.7-1.7 2-1.9 2.1-1.4.5.4-1.1 1-3 1.2-4.2.5-2.3 2.3-2.2 2.3 0zm-21 .7c-.6 1.1-1.5 2-2.1 2-.6 0-.7.6-.3 1.2.5 1 .3 1-.7 0-1.2-1.1-1-1.6 1.1-3.2 3.1-2.5 3.3-2.5 2 0zm59.1 3c.6 0 .7.6.2 1.2-.4.7-.7 3.1-.6 5.3.2 2.5-.4 4.6-1.5 5.9-.9 1.1-1.1 1.6-.4 1.2 1.1-.7 1.3.3.8 5-.4 4-.3 5.3.3 3.9 1.3-2.8 1.3-.2 0 3.2-.6 1.5-1.1 5-1.2 7.8 0 2.9-.2 3.8-.5 2.1-.3-2.3-.6-2.6-1.4-1.5-.7 1-.7.5-.2-1.6.4-1.7.5-4.4.3-6-.6-5.8.1-21.9 1.1-22.9.6-.6 1.1-2.8 1.1-5.1.2-2.9.3-3.3.6-1.3.2 1.6.9 2.8 1.4 2.8zm107.9 5.1-1.9 7.4.2-5.5c.1-3 .6-5.8 1.1-6.2.6-.4.5-1.2-.2-2-.9-1.1-.9-1.7 0-2.6 2.4-2.4 2.7 1.4.8 8.9zm-159-7.6c0 .3-.4 1.3-.9 2.3-4.2 7.8-6.7 15.8-3.7 11.6.8-1 1.7-1.7 1.9-1.4.3.3-.6 1.8-1.9 3.3l-2.4 2.8.4-6.5c.4-5.5.2-6.4-.9-5.3-1.5 1.5-5.9 9.7-7.5 14.2-.9 2.3-1.3 2.6-2 1.5-.6-.9-.6-1.6 0-1.8.6-.2 1-1.2 1-2.3 0-1 .5-1.9 1-1.9.6 0 1-1.1 1-2.5s.8-3.3 1.8-4.3c.9-1 2.2-2.7 2.8-3.8.6-1 1.7-2 2.5-2 .8-.1 1.9-.2 2.6-.3.6 0 1.5-1 1.8-2.1.6-1.7 2.5-2.9 2.5-1.5zm14.1 4.8c-.6.6-1.1 2.1-1.1 3.4 0 1.3-.4 2.3-1 2.3-1.4 0-1.2-1.5.6-5.8 1-2.2 1.8-3.1 2.1-2.4.3.8 0 1.9-.6 2.5zm-41.2.8c-.9.5-1.5.4-1.8-.2-.2-.6.3-1.5 1-2 .9-.5 1.5-.4 1.8.2.2.6-.3 1.5-1 2zm327.8 1.1c-.3.7-.5.2-.5-1.2s.2-1.9.5-1.3c.2.7.2 1.9 0 2.5zm-315.1 3.3c-.3.8-1 1.5-1.5 1.5-.7 0-.6-1 .1-2.6 1.2-2.6 2.5-1.6 1.4 1.1zm22.9-1.5c.3.5.1 1-.4 1-.6 0-1.1-.5-1.1-1 0-.6.2-1 .4-1 .3 0 .8.4 1.1 1zm278.1 2.3c.4 1.2 2 4.9 3.5 8.3 1.6 3.4 2.9 6.8 2.9 7.7 0 .9.4 1.8.9 2.1.5.3 1.8 3.7 3 7.5 1.1 3.7 2.8 7.4 3.6 8.1.8.7 1.5 2.1 1.5 3.1s.5 2.1 1 2.4c.6.4.8 1.1.5 1.6-.4.5-.1.9.5.9s.8.5.5 1c-.4.6-2.2-.5-4.2-2.5-5.4-5.4-15.3-17.8-15.3-19.1 0-.6-.6-1.7-1.4-2.3-.8-.7-1.2-2.1-.8-3.3.3-1.2.1-1.9-.4-1.5-.6.3-1.1-.5-1.2-1.8-.1-1.3.3-2.7.8-3 .6-.3 1-1.1 1-1.6 0-.6-.5-.7-1.1-.3-.8.4-.9-.1-.4-1.7 1-3.3 1.5-3.6 2.6-1.6.6.9 1.7 1.7 2.5 1.7 1.1 0 .9-.8-1-3.3-1.5-1.9-2.6-3.9-2.6-4.5 0-1.9 2.9-.2 3.6 2.1zm-315.8-.9c-.7.8-1.7 1.2-2.2.9-.4-.3-.2-.9.5-1.4 2.2-1.3 3.1-1.1 1.7.5zm43.3 5.9c-1 2.9-.9 3 .4 1.3.8-1.1 1.5-1.5 1.5-.9 0 .5-.9 2-2 3.3-1.1 1.3-2 3.3-2 4.4 0 1.2-.6 3-1.4 4.1-.7 1.1-1.7 3.6-2.1 5.5-.9 4.4-4.6 13.2-5.3 12.6-.7-.8-3.4 2.3-2.8 3.3.8 1.2-3.8 4.1-6.6 4.1h-2.3l2.5-1.3c1.3-.7 3.2-2.8 4.1-4.7 4.4-8.9 6.1-13.2 5.5-13.7-.3-.4-.6.1-.6 1s-.5 1.7-1.1 1.7c-1.5 0-.1-4.1 2.4-6.8 1.4-1.5 1.6-2.2.7-2.2-1 0-1-.4.2-1.8.9-.9 1.9-3.2 2.3-4.9.3-1.8 1.1-3.6 1.7-3.9.6-.4.8.1.3 1.5-.3 1.1-.2 2.1.3 2.1s1.7-2.8 2.8-6.3c1.3-4.3 2-5.5 2.2-3.9.2 1.3-.1 3.8-.7 5.5zm-8.2-1.9c-.7 1.4-1.6 2.6-2.1 2.6s-.1-1.4.7-3.1c2-3.7 3.1-3.3 1.4.5zm5.4-.4c-.3 1.2-.8 1.9-1.1 1.6-.5-.6.5-3.6 1.2-3.6.2 0 .2.9-.1 2zm33.4 5.2c-.2 1.3-.4.5-.4-1.7-.1-2.2.1-3.2.4-2.3.2 1 .2 2.8 0 4zm-53.7-1.7c0 1.4-.4 2.5-.9 2.5-.4 0-.6-1.1-.3-2.5.2-1.4.6-2.5.8-2.5.2 0 .4 1.1.4 2.5zm10.6 3c-.3.8-.1 1.5.3 1.5.5 0 1.2-.6 1.4-1.3.4-.9.6-.9.6.1.1 1.1-3.9 3.4-4.7 2.7-.4-.3 2.1-4.5 2.6-4.5.2 0 .2.7-.2 1.5zm154.1 1.7c-.3.8-.6.5-.6-.6-.1-1.1.2-1.7.5-1.3.3.3.4 1.2.1 1.9zm108.6 4.9c-.8 2.8-2.6 2.3-2.1-.6.3-1.3.1-2.2-.3-1.9-.5.3-.9-.7-.9-2.3v-2.8l1.9 2.8c1 1.6 1.6 3.7 1.4 4.8zm-270.9-3.6c-.3.7-1.4 1.1-2.5.8-1-.3-1.9 0-1.9.6s-.8 1.1-1.7 1.1c-1.4 0-1.3-.4.6-2.4 2.3-2.5 6.4-2.5 5.5-.1zm50.1 2.6c-.5 2.2-.3 3.4.6 4 .7.4 1.1 1 .8 1.3-.2.3-1.1.1-1.8-.3-1-.6-1.2-1.9-.7-4.5.4-2 .9-3.6 1.2-3.6.3 0 .3 1.4-.1 3.1zm223.9-1.5c.3.8.2 1.2-.4.9-.6-.3-1-1-1-1.6 0-1.4.7-1.1 1.4.7zm-113.3 2.5c-.5 1.3-1 1.9-1 1.2-.1-1.5 1-4.5 1.5-4 .3.2 0 1.5-.5 2.8zm-153.2 2.4v2l-.9-2c-.5-1.1-.9-2.7-.9-3.5-.1-1.3 0-1.3.9 0 .5.8.9 2.4.9 3.5zm244 3.9c-.9.8-1 .5-.5-1.4.3-1.4.7-3.4.7-4.5.1-1.1.4-.5.6 1.4.3 1.9-.1 3.9-.8 4.5zM340 308c0 .5-.5 1-1.1 1-.5 0-.7-.5-.4-1 .3-.6.8-1 1.1-1 .2 0 .4.4.4 1zm24.9 2.7c0 2.5-.1 2.5-.8.8-.5-1.1-.7-2.3-.4-2.8.8-1.4 1.3-.7 1.2 2zm254.7 0c-.3.8-.2 1.2.2.9 1.1-.6 2.5.4 4.5 3.4 1.9 2.7 2.3 5.5.7 4.5-.6-.3-.7.1-.4.9 1.6 4.1-3.5 0-6.3-5.1-1.9-3.3-1.7-7.4.3-6.6.8.3 1.3 1.2 1 2zM339 313.4c0 .2-.7 1.7-1.5 3.2-1.5 2.9-2.2 1.3-.9-2 .5-1.4 2.4-2.3 2.4-1.2zm1.4 6.7c-.8 1.6-1.7 2.9-2 2.9-.4 0 0-5.5.5-6.7.1-.1.8 0 1.6.3 1.3.5 1.3.9-.1 3.5zm106.2-2.6c-1.1.8-2.4 1.5-3 1.5-.5 0-.1-.7 1-1.5 1-.8 2.4-1.4 2.9-1.4.6 0 .1.6-.9 1.4zM578 319c-.6 1.1-1.2 2-1.4 2-.3 0-.1-2.3.3-3.8.1-.1.6-.2 1.1-.2.7 0 .7.6 0 2zm-189 .4c0 .2-.8 1-1.7 1.7-1.6 1.3-1.7 1.2-.4-.4 1.3-1.6 2.1-2.1 2.1-1.3zm186 1c0 .2-.8 1-1.7 1.7-1.6 1.3-1.7 1.2-.4-.4 1.3-1.6 2.1-2.1 2.1-1.3zm55.4 1.1c.3.8.1 1.5-.3 1.5-.5 0-1.1-.7-1.5-1.5-.3-.8-.1-1.5.3-1.5.5 0 1.1.7 1.5 1.5zm-295.4.3c0 .5-.7 1.7-1.5 2.8-1.5 1.9-2 .8-.9-2 .6-1.7 2.4-2.2 2.4-.8zm241 .6c0 .2-.8 1-1.7 1.7-1.6 1.3-1.7 1.2-.4-.4 1.3-1.6 2.1-2.1 2.1-1.3zm-239.8 3.8c-.3 1.3-1.1 2.7-1.9 3.1-.7.4-1.4 2.5-1.4 4.5-.1 2-.3 2.9-.6 1.9-.2-.9-.8-1.7-1.3-1.7-.4 0-.6-.9-.3-2s.9-2 1.3-2 1.3-1.4 2-3c1.4-3.5 3.1-4 2.2-.8zm9.1-.5c-.3 1-1.2 2.5-1.8 3.3-.7.8-1.5 2.2-1.8 3-.5 1.3-.6 1.3-.6 0-.1-1.5 3.5-8 4.4-8 .2 0 .2.8-.2 1.7zm226.7-.8c0 .6-.4 1.2-.8 1.5-.5.3-.9-.1-.9-.9s.4-1.5.9-1.5c.4 0 .8.4.8.9zm66.6 5.8c4.1 4.4 6.3 7.4 6 8.5-.2 1 .1 1.8.7 1.8s.7.3.4.6c-1 1-5.7-2.5-5.7-4.2 0-.9-.5-1.2-1.2-.8-.7.4-.8.3-.4-.5.4-.6 0-1.4-.8-1.7-.9-.3-2.4-2.3-3.3-4.3-.9-2-2.4-4.1-3.3-4.8-1.2-1-1.2-1.2-.1-1.3.7 0 4.2 3 7.7 6.7zm-317.2 4.1c-.6 3.2-3.4 4.6-3.4 1.7 0-.8.5-1.5 1.1-1.5.6 0 .8-.7.5-1.6-.8-2 .3-3.9 1.5-2.7.5.5.6 2.4.3 4.1zm324.1-2.8c1 1.1 1.6 2 1.3 2-.3 0-1.3-.9-2.3-2-1-1.1-1.6-2-1.3-2 .3 0 1.3.9 2.3 2zm-306 4.9c-.3 1.2-1.1 2.1-1.6 2.1-1.5 0-1 3.7.6 4.4 1.3.5 2-.9 1.7-3.5-.1-.8 4.8-2.2 5.5-1.6.2.3.3 2.7.1 5.3-.3 4.6-.4 4.8-1.6 2.4-1.1-2.3-1.1-2.2-.6 1.4.6 3.7.6 3.8-1.6 2.6-1.8-1-2.1-.9-1.8.2.3.7 1.1 1.3 1.9 1.3.8 0 1.4.8 1.4 1.7 0 .9.3 2 .7 2.3 1 1-1.5 3.3-2.9 2.8-2.2-.9-1.4 1.3 1 2.6 2.2 1.1 2.2 1.1-.3.5-1.4-.4-2.7-1.1-2.8-1.5-.2-.5-.8-.7-1.3-.3-.5.3-.9 0-.9-.5 0-.6.5-1.1 1.2-1.1.6 0 .1-1.1-1.2-2.5-1.6-1.7-2.6-2.1-3.1-1.4-.8 1.3-2.9-2-2.9-4.5 0-1.8 1.6-2.1 2.5-.6.3.5.1 1-.4 1-.6 0-1.1.5-1.1 1.1 0 .8.7.6 2.2-.3 2.2-1.5 3.6-5.8 1.8-5.8-.6 0-1 .3-1 .7 0 .5-1.1.8-2.4.8-2 0-2.2-.3-1.3-2.2.5-1.3 1.7-2.5 2.6-2.8.9-.3 2.5-2.1 3.5-4 2-3.7 3.2-4 2.1-.6zm310.8.6c2.3 3.2 1.7 3.2-1.3 0-1.3-1.4-1.9-2.5-1.4-2.5s1.7 1.2 2.7 2.5zm3.1 6.7c6.9 5.4 13.1 11.1 13.8 13 .4 1 .5 1.8.2 1.8-1.1 0-6-3.7-7.8-5.8-1-1.3-2.1-2.1-2.4-1.7-.7.7-6.2-4.5-6.2-5.9 0-.5-.7-1.8-1.7-2.8-2.5-2.8-.5-2.1 4.1 1.4zM326 345.5c-.7.9-1.5 1.3-1.9 1-.3-.3.1-1 .9-1.5 2.1-1.4 2.4-1.2 1 .5zm198 2.4c0 .5-.7 1.2-1.6 1.5-1.4.5-1.5.4-.4-.9 1.4-1.7 2-1.9 2-.6zm-195.4 2.7c-.4.9-.9 1.5-1.1 1.2-.3-.3-.3-1.3.1-2.2.4-.9.9-1.5 1.1-1.2.3.3.3 1.3-.1 2.2zm342 2.1c-.7.7-2.6-.7-2.6-1.9 0-.6.6-.6 1.5.2.9.7 1.3 1.5 1.1 1.7zm-348.4 3.8c.3 1.4.1 2.5-.3 2.5-.5 0-.9-1.1-.9-2.5s.2-2.5.4-2.5.6 1.1.8 2.5zM683 359c1.3.9 1.3 1 0 1.1-1 0-.9.3.5 1 1.7.7 1.7.8.2.6-1-.1-1.7-.6-1.7-1.1.1-.5-.4-1.3-1.2-1.7-.7-.5-.8-.9-.3-.9.6 0 1.7.5 2.5 1zm-368.4 5.7c-.7.7-2.6-.7-2.6-1.9 0-.6.6-.6 1.5.2.9.7 1.3 1.5 1.1 1.7zm382.9-.5c.7.7-.6.9-4.4.5-3-.4-5.9-1.2-6.5-1.8-.8-.9.3-1 4.4-.5 3 .4 6 1.2 6.5 1.8zm101.3 3.2c.1 1.7.7 8.2 1.3 14.4.6 6.3.8 11.7.4 12-.4.4-1.5-.3-2.5-1.6-1.4-1.6-1.8-3.6-1.6-7.5.1-2.8-.2-6.6-.7-8.2-1.4-4.6-2.7-12.7-2.2-13.6.3-.4 1.5-.2 2.8.4 1.6.7 2.4 2 2.5 4.1zm-128-.4c.6 0 1.2.6 1.2 1.4 0 1.8-6.2.6-6.8-1.3-.3-1 .2-1.2 1.9-.8 1.3.4 3 .7 3.7.7zm-357.4.6c.9.3 1.6 1.5 1.6 2.6s.8 2.2 1.9 2.5c1.1.3 2.2 1.5 2.6 2.6.4 1.4.8 1.7 1.2.9 1.1-2.8 3.7.3 4.8 5.8.1.8.8 1.4 1.5 1.2.6-.1.9.2.5.8-.4.6.5 2.6 1.9 4.4 1.4 1.9 2.2 3.6 1.9 4-.4.3-.1.6.5.6 1.7 0 1.5-1-.5-3.3-1-1.1-1.2-1.7-.5-1.3 1.2.7 6.2 8 6.2 9.1 0 .3-.6.5-1.3.5-1.4 0-11.7-9.9-11.7-11.2 0-.4-.6-.8-1.4-.8-.8 0-1.6-1-2-2.3-.8-3.1-6.3-9-6.9-7.3-1.6 4 3.7 13.3 10.1 17.6 1.8 1.3 3.1 2.4 2.9 2.6-.9.9-7.7-3.4-8.6-5.5-1-2-1.4-2.1-2.9-1-1.3 1-1.4 1-.6 0 .9-.9.6-2.3-.9-5.4-1.7-3.5-3.4-17.7-2.2-17.7.2 0 1 .3 1.9.6zM715 387c1.3.9 1.3 1 0 1-.8 0-2.2-.5-3-1-1.3-.9-1.3-1 0-1 .8 0 2.2.5 3 1zm-402.7 2.8c-.4 1.8-.8 2-1.9 1.1-1.9-1.5-1.8-3 .1-2.3.8.4 1.5.1 1.5-.7 0-.7.2-1 .5-.8.2.3.2 1.5-.2 2.7zm114.7 1.6 4.5 1.5h-4.3c-2.4.1-4.1-.3-3.7-.8.3-.5-.3-1.2-1.2-1.4-1-.3-1.3-.5-.8-.6.6 0 3 .6 5.5 1.3zM315.5 394c.3.6-.1.7-.9.4-1.8-.7-2.1-1.4-.7-1.4.6 0 1.3.4 1.6 1zm222.4 1.6c.2.2-1 .4-2.7.4-1.8 0-3.2-.5-3.2-1 0-.9 4.7-.4 5.9.6zm162.8-1c-.3.3-1.2.4-1.9.1-.8-.3-.5-.6.6-.6 1.1-.1 1.7.2 1.3.5zm-276 1c-.3.3-1.2.4-1.9.1-.8-.3-.5-.6.6-.6 1.1-.1 1.7.2 1.3.5zm-90.9 6.3c1.3 1.4 2 1.9 1.6 1.1-.4-.9.2-.7 1.7.6 3.1 2.7 5.4 4.1 4.5 2.6-.3-.6-.2-1.3.3-1.6.5-.4 1.2.2 1.5 1.1.8 2.5 5.6 7.4 6.6 6.8.4-.3 1.1.2 1.4 1.1.5 1.2.2 1.5-1 1-.8-.3-2.4-.6-3.4-.6s-2-.9-2.3-2c-.4-1.7-1.1-1.9-3.1-1.4-1.4.3-2.6.2-2.6-.2 0-.5-1.6-2-3.6-3.3-1.9-1.3-4.3-3.6-5.4-5.1-1.7-2.4-1.7-2.7-.3-2.7.9 0 2.8 1.2 4.1 2.6zm390.2-1.4c.7.9.8 1.5.2 1.5-.5 0-1.2-.7-1.6-1.5-.3-.8-.4-1.5-.2-1.5s.9.7 1.6 1.5zM434 408c-.8.5-2.2 1-3 1-1.3 0-1.3-.1 0-1 .8-.5 2.2-1 3-1 1.3 0 1.3.1 0 1zm-99.9.9c-1.1.7-.4 1.2 2.7 2 5.8 1.6 5.8 2.6-.2 2.9-3 .1-4.6-.1-3.8-.6 1-.7 1-1.1-.3-2.2s-1.3-1.5-.3-2.1c.7-.5 1.8-.9 2.3-.9.6 0 .4.4-.4.9zM430 411c0 .5-.7 1-1.5 1s-1.5-.5-1.5-1c0-.6.7-1 1.5-1s1.5.4 1.5 1zm30.5 2c.3.5.1 1-.4 1-.6 0-1.1-.5-1.1-1 0-.6.2-1 .4-1 .3 0 .8.4 1.1 1zm-2.1 1.9c.3.5-.3 1.1-1.3 1.4-1.2.3-2.2-.1-2.5-.9-.6-1.6 2.9-2 3.8-.5zm-136.2 1.4c-2.4.7-3.6.7-4.4-.1-.9-.9-.1-1.2 3.3-1.1l4.4.1-3.3 1.1zM335 418c-.8.5-2.2 1-3 1-1.3 0-1.3-.1 0-1 .8-.5 2.2-1 3-1 1.3 0 1.3.1 0 1zm215.5.8c-.3.3-1.1 0-1.8-.7-.9-1-.8-1.1.6-.5 1 .3 1.5.9 1.2 1.2zm-81.1 6.7c.3.8.1 1.5-.3 1.5-.5 0-1.2-.6-1.4-1.3-.3-.6-.6-.3-.6.8-.1 1.6-.3 1.7-1.1.5-.6-.9-.5-1.7.3-2.2 1.8-1.1 2.4-1 3.1.7zm9 .2c1.2 3-2.7 3.7-6.1 1-2.2-1.7-1.4-2.7 2.1-2.7 2.2 0 3.6.6 4 1.7zm4.2.9c-.4.9-.9 1.5-1.1 1.2-.3-.3-.3-1.3.1-2.2.4-.9.9-1.5 1.1-1.2.3.3.3 1.3-.1 2.2zm-38.4 5.8c.6.9-.3 4.5-1.2 4.5-.3-.1-2.4 1.8-4.8 4-2.4 2.3-4.9 4.1-5.7 4.1-.8 0-1.5.4-1.5 1 0 .5-1.3 1.6-3 2.5-3.7 1.9-3.7 1.6-.4-4.3 5.2-9.3 13.9-15.5 16.6-11.8zm368.6 1.8c1.7 1.7 1.5 3.8-.3 3.8-.8 0-1.5-.4-1.5-.9s-.3-1.6-.6-2.5c-.7-1.9.7-2.1 2.4-.4zm-132.9 1.7c.4.7 1.2 1.1 1.7 1 2.3-.4 5.5 1.6 6 3.8.8 3.2-3.4 6.9-9.1 7.9-2.2.3-4.6 1.5-5.3 2.6-1 1.4-1.7 1.6-2.6.9-.9-.8-1.3-.7-1.3.4 0 .8.7 1.5 1.6 1.6.9 0 .5.5-.9 1-1.4.6-4 .7-5.9.4l-3.4-.6 3.1-1.9c3.6-2.2 7.7-9 8.6-14.2.4-2 1.2-3.9 1.9-4.1 1.9-.8 4.8-.2 5.6 1.2zM475 438c0 .5-.4 1-1 1-.5 0-1-.5-1-1 0-.6.5-1 1-1 .6 0 1 .4 1 1zm164.2 8.3c3.8 6.5 6.5 8 14.4 7.8l6.5-.1-2.7 2.5c-3 2.7-3.9 3.2-2.8 1.2.5-.8.2-.8-.9.2-1.5 1.1-1.7 1.1-1.7-.2 0-.8-.9-1.7-1.9-2-1.5-.4-2 .2-2.6 2.7-.6 3-.7 3-1.6.8-.5-1.3-.7-2.8-.3-3.3.3-.5 0-.9-.5-.9-.6 0-1.2.8-1.2 1.7-.1 1.6-.2 1.6-.6.2-.2-1-1.3-1.9-2.5-2.2-1.1-.3-1.7-1-1.4-1.5.3-.5-1.2-1.2-3.3-1.6-2.1-.3-4.1-1.2-4.4-1.9-.3-.7 0-3.7.6-6.7 1-5.1 1.1-5.2 2.6-3.3.9 1.1 2.8 4.1 4.3 6.6zm-187.4 1.1c2.5 5.5 3.5 9.6 2.2 9.6-.5 0-1-.4-1-.9 0-.8-3.7-1.9-9.4-2.7-3.7-.5-4-.8-3.2-3.8.6-2.4 5.5-6.3 8.1-6.3.8 0 2.3 1.9 3.3 4.1zm374.6-.8c2.6 1 1.8 2.4-1.4 2.4-2 0-3-.5-3-1.5 0-1.6 1.7-1.9 4.4-.9zM624.5 448c-.3.5-1.3 1-2.1 1s-1.2-.5-.9-1c.3-.6 1.3-1 2.1-1s1.2.4.9 1zm210.5 1c0 1.3-1.2 1.9-2.6 1.3-2.1-.8-1.7-1.9.6-1.9 1.1 0 2 .3 2 .6zm-324 4.5c0 .8-.7 1.5-1.6 1.5-1.4 0-1.4-.3-.4-1.5.7-.8 1.4-1.5 1.6-1.5.2 0 .4.7.4 1.5zm-222.8 1.7c-.9.9-1.5.9-2.4 0-.9-.9-.7-1.2 1.2-1.2s2.1.3 1.2 1.2zm353.5 2.5c1.3 2 1.2 2-3.4 1.6-5.8-.4-6.2-.8-2.6-2.6 3.4-1.8 4.2-1.7 6 1zm18.8-.7c.3.5.1 1-.4 1-.6 0-1.1-.5-1.1-1 0-.6.2-1 .4-1 .3 0 .8.4 1.1 1zm-8 4c.3.5.1 1-.4 1-.6 0-1.1-.5-1.1-1 0-.6.2-1 .4-1 .3 0 .8.4 1.1 1zm13.1 5.7c-.3.4-.6.1-.6-.6s-.4-.9-1-.6c-.6.4-.7-.1-.3-1.1.6-1.5.7-1.5 1.5.1.6.9.7 1.9.4 2.2zm6.4 1.3c0 1.3-1.2 1.9-2.6 1.3-.8-.3-1.2-.8-.9-1.2.5-1 3.5-1 3.5-.1zm-323.3 19.6c-.3.3-1.2.4-1.9.1-.8-.3-.5-.6.6-.6 1.1-.1 1.7.2 1.3.5zm4.3 36.5c0 .5-1 .9-2.1.9-1.8 0-1.9-.2-.9-1.5 1.2-1.5 3-1.2 3 .6zm31.2 126.7c-.6.2-.8 1-.5 1.8.3.8.1 1.4-.4 1.4-2 0-2.2-1.3-.5-3.5.9-1.3 1.9-1.8 2.1-1.2.2.6-.1 1.3-.7 1.5zm-6.2 4.6c0 .8-.4 1.7-.9 2-1 .7-2.3-1.9-1.4-2.8 1.1-1.1 2.3-.6 2.3.8zm3.7 5.3c-.9.2-1.4.9-1.1 1.5.4.7.2.8-.5.4-1.5-1-.4-2.6 1.7-2.5 1.5.1 1.5.2-.1.6zm4.7 3.1c.2.4-.4.9-1.5.9-1.1.1-1.7-.2-1.4-.8.7-1.1 2.2-1.2 2.9-.1zm6.3 37.8c-.8 7.6-4.7 8.8-4.7 1.5 0-3.9 1.4-6.1 3.8-6.1 1.1 0 1.3 1 .9 4.6z"/><path d="M658.5 144c.3.5 1.1 1 1.6 1 .6 0 .7-.5.4-1-.3-.6-1.1-1-1.6-1-.6 0-.7.4-.4 1zm36.7 5.9c-1.1.6-1 1 .4 1.5 2 .8 3.2 0 1.8-1.4-.5-.5-1.5-.5-2.2-.1zM636.5 305c-.3.5-.1 1 .4 1 .6 0 1.1-.5 1.1-1 0-.6-.2-1-.4-1-.3 0-.8.4-1.1 1zm-276-2.1c-.3.5-.1 1.2.5 1.6.5.3 1-.1 1-.9 0-1.8-.6-2.1-1.5-.7zm-2.7 9.6c-.3 1.4-.1 2.5.3 2.5.5 0 .9-1.1.9-2.5s-.2-2.5-.4-2.5-.6 1.1-.8 2.5zm217.8-187.7c-.2.4 1.2.8 3.2.9 2 0 5.1.4 6.7.7 2.8.7 2.9.7 1.1-.8-2-1.7-10.1-2.2-11-.8zm-33 2.8c-2.4 2.3-1.9 2.7.9.8 1.4-.9 2.5-1.8 2.5-2 0-1-2-.3-3.4 1.2zM516 130c-.9.6-1 1-.3 1 .6 0 1.5-.5 1.8-1 .8-1.2.4-1.2-1.5 0zm-67.2 13.7c.7.3 1.6.2 1.9-.1.4-.3-.2-.6-1.3-.5-1.1 0-1.4.3-.6.6zM777 202.6c0 .8.4 1.2 1 .9.5-.3 1.2.7 1.6 2.2.9 4.4 1.2 5 1.3 2.6.1-2.9-1.6-7.3-2.9-7.3-.5 0-1 .7-1 1.6zm2 20.8c0 1.4.4 2.7.8 3 .5.3.6-.8.4-2.5-.5-3.5-1.2-3.8-1.2-.5zm-10 14.1c-2.2 2.3-1.8 3.4.6 1.7 1-.6 2.7-4.2 2-4.2-.1 0-1.3 1.1-2.6 2.5zm-430.5 4.6c-1.1 1.6-.1 1.9 1.3.3.7-.8.8-1.4.3-1.4s-1.3.5-1.6 1.1zm443.8 16.6c.9.2 2.3.2 3 0 .6-.3-.1-.5-1.8-.5-1.6 0-2.2.2-1.2.5zm-116.9 19c1.1 1.3 2.6 2.3 3.5 2.2 1.4 0 1.4-.1.1-.6-.8-.3-2.4-1.3-3.5-2.2-2-1.6-2-1.6-.1.6zm110.6 1.1c0 .5 1.6 1.6 3.5 2.5 1.9.9 3.5 2.2 3.5 2.9 0 .6.3.9.6.5.3-.3 1.6.3 2.7 1.4 1.2 1.1 3.3 2.3 4.7 2.6 1.4.3 4.1 2 6 3.6l3.4 3 1.2-2.9c1.1-2.6 1-3.1-1.4-5.1-3.3-2.6-3.9-2.3-1.7 1.1 1 1.4 1.3 2.6.8 2.6-1.4 0-4.4-3.5-3.7-4.2.3-.3-1-.6-2.8-.5-2.2.1-4.6-.8-6.9-2.5-4.4-3.3-9.9-6.1-9.9-5zm-102 2.3c0 .5.5.7 1 .4.6-.3 1-.8 1-1.1 0-.2-.4-.4-1-.4-.5 0-1 .5-1 1.1z"/><path d="M791.6 281.7c-2.6 1.4-2.7 1.6-1.2 2.5 1 .5 1.8.8 1.9.6.1-.1.8-1.3 1.5-2.6.7-1.2 1.1-2.2 1-2.2-.2.1-1.6.8-3.2 1.7zM682 282c0 .5.5 1 1.1 1 .5 0 .7-.5.4-1-.3-.6-.8-1-1.1-1-.2 0-.4.4-.4 1zm19.5 0c-1.9.8-1.9.9.3.9 1.2.1 2.2-.4 2.2-.9 0-.6-.1-1-.2-.9-.2 0-1.2.4-2.3.9zm-16.4.5c.8.7 12.9.9 13.6.2.3-.4-2.7-.7-6.7-.7s-7.1.2-6.9.5zm110 .4c-.8.5-.9 1.1-.3 1.5 1.4.8 4.3-.4 3.6-1.5-.7-1.1-1.5-1.1-3.3 0zm-5.6 11.1c.3.5 1.1 1 1.6 1 .6 0 .7-.5.4-1-.3-.6-1.1-1-1.6-1-.6 0-.7.4-.4 1zm13.6 1.2c.8.7 2.1 2.1 2.8 3 1.2 1.5 1.1 1.8-.3 1.8-1 0-1.5-.4-1.2-.9.3-.5-.2-1.5-1.1-2.2-1.3-1.1-1.5-1.1-.9-.1s0 1.2-3.1.8l-3.8-.5 3.9 1.2c2.2.8 4.2 1.9 4.4 2.5.2.7.8 1 1.3.7.5-.3 1.7-.1 2.8.5 2.1 1 5.1.4 5.1-1.1 0-.5-.3-.8-.7-.7-.9.3-6.3-4.9-5.7-5.4.1-.2-.9-.5-2.3-.6-2.3-.2-2.5 0-1.2 1zm-490.6 5.9c-1.1 1.7.1 2.1 1.5.4.8-.9.8-1.5.2-1.5-.6 0-1.4.5-1.7 1.1zm-4.5 6.4c-1.1 2.1-1.1 2.7 0 3.8 1 .9 1.1.9.6-.1-.4-.6-.2-1.2.3-1.2.6 0 1.1-.5 1.1-1.1 0-.7.8-1.8 1.8-2.5 1.6-1.2 1.6-1.3-.4-1.4-1.2 0-2.6 1-3.4 2.5zm17.6 5.2c-.6 1.4-.5 1.5.5.6.7-.7 1-1.5.7-1.8-.3-.3-.9.2-1.2 1.2zm-17.9 1c-.4.3-.7 1.1-.7 1.7 0 .6.5.5 1.2-.2.6-.6.9-1.4.7-1.7-.3-.3-.9-.2-1.2.2zm10.9 3.6c-.8 1.9-1.9 3.8-2.5 4.1-1.2.8-1.5 4.6-.3 4.6s6.1-10.9 5.1-11.5c-.4-.3-1.5 1-2.3 2.8zm502.4 1.6c0 .5.6 1.4 1.4 2.1 1.2.9 1.5.8 1.3-.9-.1-2-2.7-3.1-2.7-1.2zm-512.7 9.3c-.4.7-.8 1.7-.8 2.3-.1.5-.4 1.7-.6 2.5-1.4 3.8-3.9 11.8-3.9 12.4 0 .3.6.6 1.3.6 1.7 0 4.9-3.4 4.1-4.3-.8-.8.5-4.7 1.7-4.7.5 0 .9.8.9 1.7.1 1.7 4-5.1 4-6.8 0-1.6-2.8.3-3.3 2.2-.3 1-1 1.9-1.6 1.9-1.2 0-1.5-3.3-.4-4.4 1-.9 1.1-4.6.2-4.6-.4 0-1.1.6-1.6 1.2zm511.4 1.9c.7.7 1.5 1 1.8.7.3-.3-.2-.9-1.2-1.2-1.4-.6-1.5-.5-.6.5zm6.9.5c-.8 2.1-.8 2.4.3 2.4 1.2 0 2.2-2.8 1.2-3.5-.5-.3-1.2.2-1.5 1.1zm-230.9 9.1c-.4.3-.7 1.8-.6 3.2.1 2.6.1 2.5 1-.3.9-3.1.7-4.1-.4-2.9zm38.4 6.9c0 1.1.3 1.4.6.6.3-.7.2-1.6-.1-1.9-.3-.4-.6.2-.5 1.3zM303 349.4c0 .8.5 1.8 1.1 2.1.6.4.8 1.4.5 2.2-.3.8-.1 1.1.4.8.6-.4.8-1.7.6-3-.3-1.6.1-2.5 1.2-2.8 1-.3.5-.5-1-.6-1.8-.1-2.8.4-2.8 1.3zm266 2.1c1.3 1.4 2.6 2.5 2.8 2.5.3 0-.5-1.1-1.8-2.5s-2.6-2.5-2.8-2.5c-.3 0 .5 1.1 1.8 2.5zm108-2.1c0 .2.9.6 2 .9 1.1.3 1.8.1 1.4-.4-.5-.9-3.4-1.3-3.4-.5zm16.9.3c-.1.5-.2 1.4-.3 2.1 0 .7-.8 1.7-1.6 2.2-1.2.8-1.1 1 .8 1 1.8 0 2.2-.6 2.2-3 0-2.6-.8-4.3-1.1-2.3zm-120.2 6.4c.4 1.3 5.9 3.4 7 2.5.1-.1-1.5-1.1-3.6-2.2-3.5-1.9-3.8-1.9-3.4-.3zm-279.1 5.4c-1.7 2.7-2.1 5.5-.7 5.5 1.2 0 4.1-4.6 4.1-6.5 0-2.3-1.6-1.8-3.4 1zm288.2-1.8c.7.3 1.6.2 1.9-.1.4-.3-.2-.6-1.3-.5-1.1 0-1.4.3-.6.6zm132.6 1.5-1.9 2.3 2.3-1.9c2.1-1.8 2.7-2.6 1.9-2.6-.2 0-1.2 1-2.3 2.2zm-425.8 8.5c-.6 1.4-.5 1.5.5.6.7-.7 1-1.5.7-1.8-.3-.3-.9.2-1.2 1.2zm7.4-.8c0 .6.4 1.2.8 1.5.5.3.9-.1.9-.9s-.4-1.5-.9-1.5c-.4 0-.8.4-.8.9zm399 .9c0 .5 1.1 1.4 2.5 2 1.4.6 2.5 1 2.5.8 0-.2-1.1-1.1-2.5-2-1.4-.9-2.5-1.3-2.5-.8zM287 376c0 .6.7 1 1.5 1s1.5-.2 1.5-.4-.7-.6-1.5-1c-.8-.3-1.5-.1-1.5.4zm5 3c0 .5.5 1 1.1 1 .5 0 .7-.5.4-1-.3-.6-.8-1-1.1-1-.2 0-.4.4-.4 1zm315.7 2c-.3 1.1-.1 2.3.4 2.6.5.3.9-.6.9-2 0-3.1-.6-3.4-1.3-.6zm103.8 19c2.7 1.2 4.3 1.2 2.5 0-.8-.5-2.2-.9-3-.9-1 0-.8.3.5.9zm-126.2 1.5c0 .8.4 1.2.9.9.5-.3.6-1 .3-1.5-.9-1.3-1.2-1.1-1.2.6zm-292 1.4c-1.3 1.1-2.3 2.1-2.3 2.4 0 .5 8.3-.3 8.9-.8.5-.5-2.6-3.5-3.6-3.5-.4.1-1.8.9-3 1.9zm425.4 1.2c.7.7 1.5 1 1.8.7.3-.3-.2-.9-1.2-1.2-1.4-.6-1.5-.5-.6.5zM586 407c0 .5.5 1 1.1 1 .5 0 .7-.5.4-1-.3-.6-.8-1-1.1-1-.2 0-.4.4-.4 1zm136 .4c0 .2.9.6 2 .9 1.1.3 2 .1 2-.4s-.9-.9-2-.9-2 .2-2 .4zm-318.7 8.1c1 2.1 1.8 2.5 5.2 2.4l4-.2-4-.6c-3.6-.6-3.8-.7-1.6-1.5 1.8-.6 2.1-1 1-1.7-.8-.5-2.4-.9-3.6-.9-1.9 0-2 .2-1 2.5zm-115.7.1c-.9.9-2.9 1.9-4.4 2.3-2.7.7-4.4 4.1-2.1 4.1 1.2 0 11.9-6.9 11.9-7.7 0-1-4.1-.1-5.4 1.3zM556 417c0 .5.5 1 1.1 1 .5 0 .7-.5.4-1-.3-.6-.8-1-1.1-1-.2 0-.4.4-.4 1zm-13.7 26.1c1.5 2.3 2.6 2.5 2.3.2-.2-.9-1-1.7-1.9-1.9-1.3-.2-1.4.1-.4 1.7zM274 445.5c0 .8-.4 1.5-1 1.5-.5 0-1 .5-1 1 0 .7 1.4.8 3.8.4 5.1-.9 5.8-1.5 3.7-3.1-2.5-1.7-5.5-1.7-5.5.2zm220 .5c0 .5.5 1 1 1 .6 0 1-.5 1-1 0-.6-.4-1-1-1-.5 0-1 .4-1 1zm-7.5 16c-.4.6-1.1.7-1.7.4-.7-.4-.8-.2-.4.4.7 1.2 3.6.5 3.6-.9 0-1.2-.7-1.1-1.5.1zm-123.4 15.6c0 1.1.3 1.4.6.6.3-.7.2-1.6-.1-1.9-.3-.4-.6.2-.5 1.3zm-90.5 16.9c-2.2 2.3-1.1 10.6 2 15.3 2.7 3.9 3 3.4 3.7-4.5.3-3.8.1-5-.9-4.6-.6.2-1.5 0-1.9-.6-.3-.6-.1-1.1.5-1.1.7 0 .9-.8.5-2.3-1.1-3.4-2.1-4-3.9-2.2zm251.8 29c-.9 1.9-1.6 5-1.6 7 0 1.9-.5 3.5-1.1 3.5-.7 0-.7.4.1 1.2 1 .9 1.5.9 2.7-.2 2.5-2.6 5.2-9.1 4.7-11.5-.7-3.8-3-3.8-4.8 0zM360.5 533c-.3.5-.1 1 .4 1 .6 0 1.1-.5 1.1-1 0-.6-.2-1-.4-1-.3 0-.8.4-1.1 1zm224.6 11.9c-.7.5-3.1.9-5.2.9-2.1.1-4.5.4-5.1.9-2.2 1.3-5.1 1.4-6.1.1-.6-.9-.7-.7-.3.6.5 1.4.2 1.7-1 1.2-1.5-.6-1.5-.4-.3 1.1.9 1.1 1 1.4.1.9-.7-.4-1.5-.1-1.8.9-1.3 3.2 7.3 6.8 10.3 4.3.7-.6 1.3-.7 1.3-.2 0 .5.7.1 1.4-.9 1.1-1.5 1.5-1.5 1.9-.3.6 1.6 4.7 1.1 4.7-.6 0-.5.3-.7.8-.5 1.2.6 3.7-2.6 3.8-5.1.1-1.2-.4-2.2-1.1-2.2-.8 0-1.5-.4-1.7-1-.2-.5-.9-.6-1.7-.1zm197.4 4.7c-7.1 3.6-11.4 4-18.1 1.9-2.5-.8-4 1.8-2 3.4 1.5 1.3 11.2 1.7 14.4.6 2.9-.8 10.4-5.8 12.2-8 1.7-2 1.6-2-6.5 2.1z"/><path d="M601 550.9c-9.5 3.5-14.9 6.3-15 7.7 0 .6-1.7 1.7-3.7 2.5-4.3 1.7-4.9 1.6-18.9-4.2-14.7-6.1-30.2-7.7-33.2-3.4-.4.6-1.9 1.8-3.4 2.8-1.6 1-2.8 2.5-2.8 3.5s-.9.3-2.5-2c-1.4-2-2.5-4.2-2.5-4.7 0-1.5-1.7-1.4-1.7.1-.1 1.7-1 6.3-1.8 8.7-.3 1 .1 2.3.9 3 .8.7 1.8 2.6 2.1 4.2.5 2 1.3 2.9 2.6 2.9 1 0 1.9.4 1.9.9 0 1.2 7.4 3 14.2 3.3 2 .2 3.4.6 3.2 1-.8 1.3 1.7 2 3.1.8 1.2-1 1.5-1 1.5-.1 0 .8.9 1 2.3.7 1.2-.3 1.6-.3 1 0-2.1.9-1.5 2.6.7 1.9 1.4-.5 2-.2 2 1s.5 1.3 1.8.7c2.1-1 7.7-.1 7.4 1.3-.1.5.4 1 1.1 1 .6 0 1.5.4 1.9 1 .5.6 1.2.5 1.9-.2 1-1 1.7-.9 3.3.5 1.1.9 1.6 1.1 1.2.4-.5-.7-.1-1.2 1.1-1.3 2.4-.2 2.5-.2 4.6.6 1 .4 1.7.3 1.7-.5 0-.6-.5-.8-1.2-.4s-.8.3-.4-.4c.4-.6 1.3-.9 2.1-.6.8.3 2.8-.8 4.5-2.6 2.6-2.6 3.8-3.1 6.5-2.8 1.8.2 3.2.1 2.9-.3-.2-.4.4-1.3 1.3-2 1.4-1.2 1.6-1.2.8 0-.6 1-.4 1.2.4.6.7-.4 1.1-1.6.8-2.6-.3-1.1-.1-1.9.5-1.9.5 0 .6-.5.3-1-.3-.6-.1-1 .6-1s.9-.3.6-.6c-.4-.4.2-1.9 1.3-3.4 1.5-2.1 2.8-2.7 5.9-2.8 3.1-.1 4.1.2 4.1 1.3 0 .9-.6 1.8-1.4 2.1-.8.3-1.6 1.4-1.9 2.4-.4 1.5 0 1.8 2.7 1.4 11.8-1.4 16.1-3.5 16.8-8.3.5-3.4-.3-3.9-2.3-1.5-1.5 1.8-6.9 4.7-7.5 4.1-.3-.3.1-1.1.9-1.8 2.7-2.8 6.7-9.4 6.7-11.2 0-4.4-10.2-4.8-21-.8zm160.5 7.1c.3.5.8 1 1.1 1 .2 0 .4-.5.4-1 0-.6-.5-1-1.1-1-.5 0-.7.4-.4 1zm-14.8 36.8c-1.5.9-2.5 2.2-2.3 2.9.3.7-.1 1-.9.7-1.5-.6-6.1 2.1-5.9 3.4.1.4 0 1.1-.1 1.7-.2.5-1 4.1-2 8-2.9 12.3-9.6 31.7-14.7 43-7.2 16-7.2 15.8-4.8 14.5 1.1-.6 3.7-1.1 5.7-1.2 2.1 0 4.9-.5 6.3-1 3.9-1.5 7.2-2 6.6-1-.6 1.1-4.1 2.4-10.4 4.2-5.5 1.4-4.7 2.5 1.6 2.1 7.2-.4 18-6.8 22.2-13 1.4-2.1 3.7-5.1 5.3-6.6 1.8-1.8 2.7-3.8 2.7-5.9 0-1.7.7-4.4 1.5-6 2-3.7 2-7.6 0-7.6-1.6 0-2.1-2.5-.7-3.4 1.2-.7 1.4-14 .2-17.1-.5-1.4-1.2-4-1.5-5.8-.5-2.7-5.1-13.8-5.8-13.7-.1 0-1.4.8-3 1.8zm-5.1 16.7c.3 1.4.3 4.6-.1 7.1-.5 3.5-.9 4.4-1.8 3.5-1.1-1.1-1.8-9.5-.9-11.9.7-2 2.1-1.4 2.8 1.3zm-4.1 46.5c-.3.5-2.2 1.4-4.3 2-4.5 1.2-5.2 1.2-5.2.1 0-.5 1.7-1.3 3.8-1.9 5-1.3 6.4-1.4 5.7-.2zm3.5 5.9c0 .5-.9 1.1-2.1 1.4-1.6.4-1.8.3-.8-.9 1.3-1.6 2.9-1.9 2.9-.5zM543.5 596c-.3.6.1.7.9.4 1.8-.7 2.1-1.4.7-1.4-.6 0-1.3.4-1.6 1zm-17.8 7.1c.7.7 1.5 1 1.8.7.3-.3-.2-.9-1.2-1.2-1.4-.6-1.5-.5-.6.5zm-11.7.9c-.8.5-1 1-.5 1 .6 0 1.7-.5 2.5-1s1.1-1 .5-1c-.5 0-1.7.5-2.5 1zm-16.9 3.8c-1.2 1.3-1.2 1.4 0 1 .8-.3 2.1-.2 3 .3 1.1.6 2.1.4 2.9-.6.8-.9.8-1.5.2-1.5-.6 0-1.2.5-1.4 1.1-.3.8-.9.7-1.9-.3-1.3-1.3-1.6-1.3-2.8 0zm27.3-.8c-1.2.5-2.5 1.4-2.9 2-.4.7.7.4 2.4-.4 1.7-.9 3.1-1.9 3.1-2.1 0-.6.1-.6-2.6.5z"/><path d="M647.3 611.1c-2.4 2.5-4.3 4.9-4.3 5.3 0 1.6-5.8 5.7-9.5 6.7-2.2.6-5.7 1.8-7.7 2.6-3.7 1.6-6.8 1.2-6.8-.7 0-.5.9-1 2-1s2-.5 2-1c0-.6-.8-1-1.7-1-1 0-3-.7-4.5-1.4-1.6-.8-4.5-1.7-6.5-2.1-5.8-.9-11.2-2.5-11.7-3.4-.9-1.4-9.6-1.2-9.6.2 0 .9-.2.9-.8 0-.6-.9-2.2-.9-7.1.1-5.2 1.1-7.4 1.1-11.5.1-2.8-.7-5.8-1.3-6.6-1.4-.8 0-2.9-.3-4.6-.7-2.2-.4-5.8.4-12 2.6-4.9 1.8-9.8 3.2-10.9 3.3-1.1 0-2.3.5-2.7 1.1-.4.6-1.7 1.1-3 1.2-1.3.1-3.5.6-5 1.3-2.1.8-2.8.8-2.8-.1 0-.7-.5-.5-1.2.4s-2.5 1.9-4.1 2.2c-2.2.5-2.9.2-3.7-1.6-.5-1.3-.9-1.8-.9-1.3-.1.6-1.4 1.1-3.1 1-2.9 0-3.9-1.1-5.4-5.8-.3-1.1-1.5-2.1-2.6-2.4-1.1-.3-1.7-1-1.3-1.7.4-.6-.2-.4-1.2.4-1.5 1.2-1.7 1.2-1 .1.6-1.1.3-1.3-1.3-.8-1.2.4-3.2.9-4.4 1.2-1.8.4-1.9.4-.5-.3 1-.4 1.8-1.2 1.7-1.7-.1-.5.4-1.1 1.2-1.3.9-.2.8 0-.2.8-1.3 1-1.2 1.1.3.6 1-.3 2.1-.6 2.3-.6.3 0-.1-.6-.8-1.4-.7-.7-1.9-1.1-2.7-.8-.9.3-1.2.1-.7-.6.5-.8.1-1-1-.5-1.1.4-1.3.8-.6 1.1.9.3.8.9-.3 2.5-.8 1.2-1.5 3-1.5 4s-.4 1.6-.8 1.3c-1.4-.8-5.2 3.3-5.2 5.5 0 1.1-.4 1.8-.9 1.4-.6-.3-1.4.2-1.9 1.1-.5.9-1.2 1.5-1.5 1.5-2.3-.3-2.7 0-1.8 1.6.5 1 1.4 3 2.1 4.4.9 2.1 1.9 2.6 5.8 2.8 2.5.1 5.2.7 5.8 1.2.7.5 1.6.9 2 .7.5-.1 2.5.4 4.4 1.1 1.9.8 3.8 1.5 4.3 1.6.4.1.8.4 1 .5.6.7 4.7.6 4.7 0 0-.9 2.6-.7 3.6.2.3.4 1.6.3 2.8-.1 4-1.5 9.6-1.2 10.3.6.6 1.4.7 1.4 1.9-.1.6-.9 2.1-1.8 3.2-1.9 1.1 0 1.9-.4 1.6-.9-.2-.4.4-1.2 1.5-1.8 1.7-.9 2-.8 1.5.5-.7 1.7 1.6 1.7 2.8.1 1-1.5 5-1.8 4.2-.4-.5 1-.4 1 .5.2.7-.7 2.9-.8 5.9-.4 2.6.4 5.2.5 5.9.3.7-.3 1.3 0 1.3.6 0 1.6 2.5 1.4 4-.4.7-.8 1.7-1.2 2.2-.9.6.4.5 1-.3 1.6-.9.5-.3.6 1.6.2 1.7-.4 3.5-1 4-1.4.6-.5 3.3-1 6-1.2 2.8-.2 5.5-.7 6.2-1.1.6-.4 1.4-.3 1.7.2.4.5 1.7.8 3.1.6 1.4-.1 2.8.2 3.1.7.3.5 1.1.4 1.9-.2 1.2-1 6.5.2 6.5 1.5 0 .4-.4.3-1 0-.5-.3-1-.1-1 .4 0 .6.7 1.1 1.5 1.1s1.5-.4 1.5-.8c0-.9 5.9-3.2 8.4-3.2.9 0 1.4-.4 1.1-1-.4-.6.6-.8 2.4-.6 1.7.2 3.1-.1 3.1-.5 0-.5 1.1-.9 2.4-.9 1.2 0 3.8-.5 5.6-1.1 2.5-.9 4.9-.9 10.1.1 6.6 1.3 7.2 1.2 11.3-.9 5.8-2.9 15.9-1.8 17.1 1.9.7 2.1 6.2 2.3 8.3.2.8-.7 1.7-1 2.2-.7 1.3.8 1.8-1.8.8-3.9-.6-1-.8-3.2-.5-4.9.3-2.6.2-2.8-.9-1.3-1.1 1.5-1.2 1.3-1-1.8.2-1.9 0-3.3-.5-3.1-1.4 1-1.9-1.3-.6-2.7 1.2-1.1 1.2-1.6 0-2.6-.7-.7-1.3-1-1.3-.7 0 .4-1.4-.4-3.2-1.6-2.1-1.6-3.3-1.9-3.6-1.1-.2.7-.8 1.2-1.4 1.2-.6 0-.8-.6-.5-1.4 1.2-3-2.9-1-7 3.5zm-56.9 22.4c1.1.8 1.5 1.5.9 1.5-.7 0-1.5-.5-1.9-1.1-.5-.8-1-.6-1.6.5-.5.9-1.4 1.4-1.9 1-.6-.4-.6-1.1.2-2 1.4-1.7 1.9-1.7 4.3.1zm-25.9 2.5c-.3.5-1.1 1-1.6 1-.6 0-.7-.5-.4-1 .3-.6 1.1-1 1.6-1 .6 0 .7.4.4 1z"/><path d="M510.8 609.3c.4 1.4.7 1.6 1.3.5.7-1.1.9-1 .9.1 0 .8.2 1.2.5.9.9-.9-.5-3.5-1.9-3.5-.8 0-1.1.8-.8 2zm154.2.7c0 .6.7 1 1.5 1s1.5-.2 1.5-.4-.7-.6-1.5-1c-.8-.3-1.5-.1-1.5.4zm-179 2c-1.3.8-1.2 1 .3 1 .9 0 1.7-.5 1.7-1 0-1.2-.1-1.2-2 0zm19.7 8.5c.3.8.9 1.2 1.4.9 1.2-.7 1.1-1.1-.5-1.7-1-.4-1.3-.1-.9.8zm32 20.9c-.4 1-.1 1.3.8.9.8-.3 1.2-.9.9-1.4-.7-1.2-1.1-1.1-1.7.5zm4.1 1c-2.5 1.8-2.2 3.5.4 2.8 1.3-.3 1.9-.1 1.5.5-.4.6 0 1.3.8 1.7.8.3 1.7.1 1.9-.3 1-1.6 7.6.2 7.6 2 0 .6-1 .4-2.2-.3-3-1.6-4-1.6-6.1.2-1.6 1.4-1.6 1.6-.1 2.7.9.7 2.1 1 2.7.6.5-.3.7 0 .5.8-.3.8-1.4 1.4-2.6 1.3-1.2 0-1.8.4-1.5.9.4.6 0 .8-.9.4-1.2-.4-1.4-.1-1 1.5.3 1.5.1 1.9-.7 1.4-1.1-.7-4.5 1.9-4.7 3.6-.1.4-.3.9-.4 1-.7.8-.6 4.8.1 4.8.5 0 .9.7.9 1.6 0 1.1.5 1.4 1.6 1 1.4-.5 1.5-.4.5.8-.8.9-.8 1.6-.2 2 .5.4 1.3.1 1.7-.5.4-.8.9-.7 1.5.2.7 1.1.9 1 .9-.3 0-.9-.6-1.8-1.2-2.1-.7-.3-.3-.5.8-.4 1.6.1 2.1.7 1.9 2.4-.1 1.2.2 2 .7 1.7.5-.3.9 0 .7.7-.3 2.5.1 3.9 1.1 3.9.5 0 .7-.6.4-1.4-.6-1.6 1.9-1.6 3.3-.1.4.4.2.5-.4.1-2.3-1.3-1.3.4 1.8 3.2 2.8 2.5 3.7 2.7 11 2.7 4.3 0 7.9.4 7.9.8 0 .9 10.9.3 15.4-.9 1.4-.3 2.4-1 2.1-1.4-.3-.4.3-.7 1.3-.6.9 0 1.6-.5 1.4-1.2-.1-.8.2-1.1.7-.8 1 .7 4.1-1.9 4.1-3.4 0-.5-.8-1-1.7-1.3-1.2-.2-.7-.7 1.7-1.4 1.9-.6 2.9-1.2 2.3-1.2-.7-.1-1.3-.8-1.3-1.7 0-1.4.3-1.4 1.5-.4.9.7 1.8 1 2.1.7.9-.9 1.2-5.7.3-5.7-1 0-2.4-4.8-2.1-6.7.1-.6-.7-1.8-1.9-2.6l-2.1-1.5 2.1-1.8c2.6-2.2 2.7-3.4.4-3.4-1.5 0-1.6-.2-.3-.9.8-.6 1.9-.7 2.5-.4.5.4.6.2.2-.3-1.4-1.5-5.6-1.2-6.2.5-.5 1.3-.7 1.4-1.6.1-.5-1-1.2-1.1-1.6-.5-1.1 1.3-3.6 1.8-2.8.5.3-.5.1-1-.4-1-.6 0-1.1.4-1.1.8 0 .5-1.8.8-4 .7-2.2-.1-4 .2-4 .7 0 .5-.9.4-2-.2-1.6-.8-2.2-.8-2.6.4-.7 1.8-4 1.3-6.4-.9-1.1-1-2-1.2-2.4-.7-.3.6-1.6.8-2.8.4-1.2-.3-1.9-.1-1.5.4.5.8-1.1.9-5.6.5-.5-.1-.5-.6-.1-1.3.4-.6.3-.8-.3-.5-.6.4-1.4 0-1.7-.9-.3-.8-1-1.2-1.6-.9-.5.3-1 .1-1-.6 0-.6-.8-.9-2-.6-1.1.3-2.3 0-2.7-.5-.4-.7-.1-.8.7-.3.8.5 1.1.4.7-.3-.4-.5-1.7-.8-2.9-.4-1.4.3-1.9.2-1.4-.6.9-1.5.5-1.5-1.6.2zm-14.3.6c-.3.5-.1 1 .4 1 .6 0 1.1-.5 1.1-1 0-.6-.2-1-.4-1-.3 0-.8.4-1.1 1zm78 0c-.3.5.1 1 1 1s1.3-.5 1-1c-.3-.6-.8-1-1-1-.2 0-.7.4-1 1zm0 3c.3.5.8 1 1.1 1 .2 0 .4-.5.4-1 0-.6-.5-1-1.1-1-.5 0-.7.4-.4 1z"/><path d="M541.5 649c.4.6 1.1.8 1.6.5 1.4-.9 1.1-1.5-.7-1.5-.8 0-1.2.5-.9 1zM470 667c0 .5.5 1 1 1 .6 0 1-.5 1-1 0-.6-.4-1-1-1-.5 0-1 .4-1 1zm130.5 8c-.3.5-.1 1 .4 1 .6 0 1.1-.5 1.1-1 0-.6-.2-1-.4-1-.3 0-.8.4-1.1 1zm102 12.6c-2 3.1-3.5 19.4-1.8 19.4 1.3 0 3.6-2.8 3.9-4.6.1-.7 1.2-2.7 2.4-4.4 2.4-3.3 2.3-8.7-.1-11.6-1.6-2-2.4-1.8-4.4 1.2zm-162.1 44.1c-.7.2-1 1.3-.7 2.4.4 1.5.2 1.8-1.1 1.3-.9-.3-1.6-1.1-1.6-1.7 0-.6-1.3.3-3 2.1-2.3 2.6-3.4 3.1-5.5 2.6-1.6-.4-2.5-.2-2.5.6 0 .7-.7 1-1.5.6-1.7-.6-2.1.9-.5 1.9 1.5.9 1.2 2.5-.5 2.5-.8 0-1.5.4-1.5 1 0 .5.5 1 1.2 1 .6 0 .9.3.6.6-.4.3.2 1.4 1.3 2.5 2 2 2.6 4.5.9 3.4-.5-.3-1 .1-1 1s.5 1.3 1.1.9c.7-.4 1-.1.7.6-.8 2.6-3.5 3.5-5.3 1.7-.9-.9-1.3-2.1-1-2.7.3-.5.1-1-.4-1-.6 0-1.1.5-1.1 1.1 0 .5-.5.7-1.2.3-1.3-.8-.3 1.1 2.1 4 .9 1.1 1.1 1.7.6 1.3-.6-.3-1.1.3-1.1 1.3 0 1.5.4 1.7 1.9.8 1.5-.8 1.8-.7 1.2.3-.6.9-.3 1.1.8.6 1.1-.4 2 .1 2.7 1.3.6 1.1 1.8 2 2.6 2s1.2.4.9 1c-.3.5-.1 1 .5 1s.9.4.5.9c-.3.5-.1 1.2.5 1.6.6.4.8 1 .5 1.4-.2.5.8 1.4 2.3 2.1 2.4 1.1 2.5 1.3.9 1.9-1 .4-1.7.9-1.6 1.1.7 1.3-2.4 5.1-3.7 4.6-.9-.3-1.2-.1-.9.4.9 1.4-.9 1.2-2.3-.2-.7-.7-3.8-1.3-6.8-1.4-3.1-.1-5.9-.6-6.3-1.1-.3-.5-1.7-.9-3.1-.8-1.4 0-3.1-.8-3.9-1.8-.8-1.1-2-1.6-2.9-1.2-.9.3-1.3.3-.9-.1.3-.4-2.4-1.7-6.1-3-3.7-1.3-7.9-3.3-9.5-4.5-1.6-1.1-3.4-1.8-4.2-1.5-.7.2-1.6-.1-1.8-.8-.3-.7-2.2-2.1-4.3-3.1-3.4-1.6-3.8-1.6-4.6-.1-.5.9-1.5 1.6-2.3 1.6-1.6 0-.9 2.9.9 4.3.7.5.3.6-.8.3-1.1-.4-2.3-.1-2.7.5-.4.7-1.2.8-2 .3s-2.3-1-3.3-1.1c-1.1-.2-2.5-.8-3.2-1.4-1.4-1.1-3.4-.4-3.4 1.2 0 .5.6.8 1.3.6.6-.1 1.3.5 1.3 1.3.1.8.3 1.9.4 2.5.1.5.2 1.3.1 1.7 0 .4.8 1 1.9 1.3 1 .3 2.1 1.9 2.5 3.5.3 1.6 1.3 3.4 2.1 4 1.4 1.2.9 3.5-.6 2.5-.4-.3-1.3.2-2 1-1 1.2-.8 1.4.9 1 1.1-.2 2-.1 2 .3-.4 2.8 2.9 7.2 5.5 7.2.9 0 1.6.4 1.6 1 0 .9-1.5 1.4-3.3 1.1-.5-.1-.6.3-.2.9.3.6 1 .8 1.5.5.4-.3 1 .2 1.4 1 .3.8 1.3 1.5 2.2 1.5 1.3 0 1.4.3.5 1.4-.7.9-.8 1.7-.2 2 .5.3 1.1 0 1.4-.6.2-.7.7.2 1.1 1.9.8 3.3 5.1 7.7 6.7 6.7.8-.5 1.3 1 1 2.9-.1.4.4.7 1.1.6.7-.1 2-.1 2.8 0 1.2.1 1.3.3.1 1-1 .6-.2 2 3.4 5.7 2.5 2.7 4.7 4.7 4.8 4.4.2-.3 1.5.5 2.9 1.6 1.5 1.2 2.5 2.4 2.2 2.7-.3.3.3.8 1.4 1.1 1.1.4 2.3 1.4 2.6 2.2.3.9 1.1 1.2 1.8.8 1-.6 1.1-.4.1.7-1.7 1.7-1.6 3 .1 2.3.8-.3 1.7 0 2.2.7.5.8.3 1-.6.4-.9-.6-1.1-.4-.6.4.5.7 1.4 1 2.2.7.8-.3 1.4.1 1.4 1 0 .8.4 1.2 1 .9.6-.3.7.1.4.9-.7 1.9.7 2.1 2.5.3 1.1-1 1.2-.9.5.3-1.7 3-1.3 4.2 1.2 3.7 1.3-.2 2.6-.1 2.9.3.3.5 8 .5 8 0 0-.1 2.7-.3 6.1-.4 3.3-.1 6.5-.5 7-.9.5-.3 4.3-.5 8.4-.5 4.1 0 8.4-.4 9.4-.8 1.3-.5 1.7-.4 1.3.3-.8 1.3 1.1 1.2 3.2-.1 1.6-1 18.5-1.1 20.1-.1.5.3 1 .1 1-.5 0-1.5 4.3-3 5.1-1.8.4.7 1.4.6 2.8-.1 1.2-.7 2.6-.9 3.1-.6.6.3 1 .2 1-.4 0-.6.8-.8 1.8-.4 1.4.5 1.4.4-.2-.9-1.8-1.4-1.8-1.5.8-2.2 2.5-.6 2.6-.8 1.2-2.7-.7-1.1-1.1-2.9-.9-4 .5-1.8.6-1.9 1.9-.2 1.4 1.7 1.4 1.7 1.2-.2-.2-1.1-.7-2.3-1.3-2.7-.5-.4-.2-1 .8-1.4 2-.7 2.3-3.4.5-3.4-.7 0-1.4-1.4-1.5-3-.1-1.7.2-3 .6-3 .5 0 .8-1.4.7-3-.1-1.7.2-3 .7-3 .4 0 .5-.5.2-1-.4-.6-1-.8-1.4-.6-.4.3-.8-.1-.8-.9s.3-1.5.7-1.5c.3 0 .6-.9.7-2 .1-1.1-.3-2-.8-2-.6 0-.8.4-.4.9.3.5.1 1.2-.5 1.6-.5.3-1 0-1-.9 0-.8-.2-2-.3-2.8-.2-.7-.2-1 0-.6.3.5.9.8 1.4.8 1.4 0 1.1-6.8-.3-7.3-1-.4-.9-.8.2-1.6.8-.6 1.1-1.1.6-1.1-.5 0-.3-.7.4-1.6.8-.8.9-1.4.4-1.3-2.2.4-2.3-.2-.2-2.3 2-2 2.1-2.3.5-2.6-.9-.2-1.5-.8-1.1-1.3.3-.5 1.1-.7 1.7-.3.7.3.4-.1-.6-.9-1.3-1.1-1.4-1.6-.5-1.9.8-.3-.1-1.6-2.2-3.6-2.9-2.6-3.1-3-1.2-2.5 1.6.4 2.2.1 2.2-1.1 0-1 .4-1.5.8-1.2.5.3.9-.1.9-.9s-.4-1.2-.9-.9c-.4.3-.8.1-.8-.5 0-1.9 2.1-2.3 3.4-.6 1.1 1.6 1.3 1.6 1.9.2.3-.9 0-1.8-.9-2.1-1.6-.6-1.9-2.6-.3-2.6.6 0 3.1-1.6 5.5-3.6s4.4-3.2 4.4-2.8c0 .5.5.1 1.1-.9.5-.9 1.6-1.7 2.4-1.7 1.8 0 4.9-4.6 4-6-.3-.6-1.1-.8-1.6-.5-.5.4-.9.1-.9-.6 0-.8-.7-.6-1.9.5s-2.1 1.4-2.6.7c-.3-.6-.1-1.1.6-1.1 1 0 1-.3.2-1.1-.6-.6-.9-1.8-.6-2.5.3-.8-.1-1.4-.8-1.4-.8 0-2.3-.7-3.3-1.5-1.7-1.3-1.8-1.7-.6-2.8 1-1 1.1-.9.5.2-.5.9-.4 1.2.3.7 1-.6.8-2.4-.5-4.8-.2-.4-1.2-.4-2.1.1-.9.5-2.5 1.2-3.5 1.5-1.1.4-1.5 1.1-1.1 1.8.5.8.2.9-1 .5-1-.4-2-.7-2.2-.7-.2 0-.4-.7-.4-1.6 0-1.3-.3-1.4-1.4-.5-1 .8-1.6.9-2.1.1-.3-.6-1.2-.7-1.8-.3-.6.4-3.4 1-6.2 1.5-7.8 1.2-9 1.5-8.8 2.5.2 1.2-3.6 1.4-5.9.2-1.3-.7-1.8-.6-1.8.3-.1.9-.5.7-1.4-.4-.9-1.2-1.6-1.4-2.3-.7-1.3 1.3-3.6.2-2.7-1.2.3-.5 1-.7 1.5-.4.5.4.9-.1.9-.9 0-2.1-.9-2-3.2.1-1.6 1.4-2.2 1.5-4 .4-1.6-1-1.9-1-1.3.1.6 1 .5 1.1-.6 0-1.5-1.4-4.3-1.7-3.5-.3.4.5-.3.7-1.4.4-1.1-.3-1.8-.8-1.6-1.2.6-.9-2.1-3.1-2.9-2.3-.3.4-2.4.7-4.5.8-3.3.1-3.9-.2-4.2-2.1-.2-1.2-.8-2-1.4-1.8zm-2.4 4.9c0 .2-.7.4-1.5.4s-1.5-.4-1.5-1c0-.5.7-.7 1.5-.4.8.4 1.5.8 1.5 1zm73 .4c0 .5-.5 1-1.1 1-.5 0-.7-.5-.4-1 .3-.6.8-1 1.1-1 .2 0 .4.4.4 1zm-83 4c0 .5-.4 1-1 1-.5 0-1-.5-1-1 0-.6.5-1 1-1 .6 0 1 .4 1 1zm77.5 1.4c1.2 1.2 1 1.4-1.5 1.8-2.5.4-2.8.2-1.9-1.4 1.2-2.2 1.6-2.2 3.4-.4zm-8.2 90.1c-.3.9-.8 1.4-1 1.1-.3-.3-.2-.9.2-1.5.9-1.6 1.5-1.3.8.4z"/><path d="M530.5 737c-.3.6.1.7.9.4 1.8-.7 2.1-1.4.7-1.4-.6 0-1.3.4-1.6 1zm42.5 1c0 .5.5 1 1 1 .6 0 1-.5 1-1 0-.6-.4-1-1-1-.5 0-1 .4-1 1zm48.7 6.7c-1.2 1.2-.7 2.1 1.4 2.6 1.7.5 1.8.3.7-1.1-.7-.9-1.3-1.8-1.4-2 0-.1-.4.1-.7.5zm-17.6 57.9c0 1.1.3 1.4.6.6.3-.7.2-1.6-.1-1.9-.3-.4-.6.2-.5 1.3zm-266.3 14.5c-1.8 1-2.6 6.8-1 7 .4.1 1.6.3 2.7.4 3.9.4 13.3 7.9 11.5 9-1.3.8-1.3 5.5 0 5.5.6 0 1-.5 1-1.1 0-.5.5-.7 1-.4 1.6 1 1.2 4.8-.4 4.2-2.3-.9-2.7 2.1-.6 3.6 1.8 1.2 1.8 1.5.4 3.5s-1.4 2.1.3 1.6c1.4-.5 1.5-.4.4.4-2.2 1.6-7.6-1-6.8-3.3.3-.6-.6-1.2-2-1.3-1.9-.1-2.4.2-1.9 1.3.3.8.1 1.5-.5 1.5s-.7.4-.4 1c.3.6-.1.7-.9.4-.9-.3-2.4-.3-3.3.1-1 .5-2.3.9-2.9 1-.6.2-2.2.6-3.4 1-1.5.5-2 .4-1.6-.4.4-.6.1-1.3-.6-1.6-1.9-.7-9 2-8.1 3 .5.5.1.4-.7-.2-1.9-1.4-5.8 0-6.7 2.4-1.1 2.9-3 4.3-5.6 4.3-3.8 0-3.9 2.4-.1 5 3.8 2.5 3.3 5.2-.5 2.9-1.8-1.2-2.3-1.1-3.8.5-1.3 1.3-1.3 1.6-.3 1.1 1.1-.6 1-.3-.3 1.2-.9 1.1-1.4 2.3-1 2.6.3.4.1.7-.5.7-.7 0-1.2-.5-1.2-1.1 0-.6-.7-.9-1.5-.5-.8.3-2.8-.2-4.5-1.2-2.5-1.4-3-2.3-3-5.5 0-4.2-.9-4.6-3.5-1.7-1 1.2-2.4 1.9-3.1 1.6-.7-.3-1.5.2-1.8 1.1-.5 1.1-1.4 1.4-3.4 1-1.6-.3-4.6-.2-6.8.3-2.1.5-11.5 1.6-20.9 2.5-27.7 2.6-31.9 3.5-45.5 9.7-8.6 3.9-9.3 4.2-17.8 6.9-4 1.2-7.6 2.7-7.9 3.3-1.5 2.3 40.1 38.8 62.7 55.1 76.7 55.1 161.7 86 257.4 93.5 16.2 1.3 55.1 1.3 71.6 0 97.6-7.6 187.9-41.5 265-99.6 12.8-9.6 17.8-14 16.9-14.7-1.4-1-17.6-8.4-23.9-10.8-8.6-3.4-10.5-4.3-21.5-10.4-4.4-2.4-10.2-5.2-13-6.1-2.7-.9-6.8-2.4-9.1-3.4-2.2-1-6.5-2.6-9.5-3.4-4.7-1.4-6.1-2.4-9.5-6.9-2.1-2.8-4.3-5.4-4.8-5.6-.6-.2-2.6-2.2-4.5-4.4-2-2.2-5.1-5.6-7-7.6-1.8-1.9-4.7-6-6.4-9.1-5.6-9.9-9.7-15.9-11.6-17-2.9-1.5-17.1-1.3-17.1.3 0 .7 1.8 4.6 4 8.7s4 8.3 4 9.3c0 2.4-7.1 9.9-14.4 15.1-15 10.7-40.6 20.6-62.3 24-21.3 3.4-55.1 3-86.8-1-30.9-3.9-85.9-14.4-101.6-19.4-5.2-1.6-9.9-3-10.5-3-2.5 0-35.2-11.4-47.6-16.6-12.5-5.2-15.6-6.6-30.3-13.5-3.3-1.5-7.5-4.2-9.4-5.9l-3.4-3 1.9-2.3c1.1-1.2 4.6-5 7.7-8.5 3.1-3.5 5.7-6.7 5.7-7.1 0-1.3-33.2-1.3-35.2 0zm22.7 37.9c-.3.5-1 1-1.6 1-.5 0-.9-.5-.9-1 0-.6.7-1 1.6-1 .8 0 1.2.4.9 1zM326 877c0 .5-.5 1-1.1 1-.5 0-.7-.5-.4-1 .3-.6.8-1 1.1-1 .2 0 .4.4.4 1z"/><path d="M339.5 844c-.8 1.3 1.5 2.4 2.7 1.2.6-.6.4-1.1-.6-1.5-.8-.3-1.8-.2-2.1.3zm-39.1 20.1c-.3.6-.1 1.6.5 2.2.6.6 1.1.9 1.2.6 0-.2.2-1.2.4-2.2.4-1.9-1-2.3-2.1-.6z"/></svg>