<?xml version="1.0" standalone="no"?>
<!DOCTYPE svg PUBLIC "-//W3C//DTD SVG 20010904//EN"
 "http://www.w3.org/TR/2001/REC-SVG-20010904/DTD/svg10.dtd">
<svg version="1.0" xmlns="http://www.w3.org/2000/svg"
 width="1080.000000pt" height="1080.000000pt" viewBox="0 0 1080.000000 1080.000000"
 preserveAspectRatio="xMidYMid meet">
<metadata>
Created by potrace 1.14, written by Peter Selinger 2001-2017
</metadata>
<g transform="translate(0.000000,1080.000000) scale(0.100000,-0.100000)"
fill="#000000" stroke="none">
<path d="M6105 9534 c-60 -19 -120 -35 -132 -36 -12 -1 -20 -5 -17 -9 6 -10
-72 -24 -119 -22 -21 1 -49 9 -62 17 -14 9 -32 16 -42 15 -14 0 -13 -2 5 -9
38 -16 24 -22 -35 -16 -32 3 -65 5 -73 6 -8 0 3 9 25 19 48 23 34 27 -25 6
-23 -8 -53 -15 -66 -15 -13 0 -24 -4 -24 -10 0 -5 -17 -9 -37 -9 -31 2 -33 3
-10 6 15 2 27 9 27 15 0 7 -16 8 -47 3 -93 -14 -95 -14 -81 3 11 13 9 14 -17
8 -16 -4 -84 -14 -150 -21 -66 -8 -140 -18 -165 -24 -25 -5 -110 -16 -190 -23
-105 -9 -134 -14 -105 -18 l40 -6 -50 -8 c-27 -4 -63 -14 -80 -21 -16 -7 -46
-16 -65 -20 -19 -4 -44 -12 -55 -18 -11 -6 -24 -11 -30 -12 -5 0 -25 -7 -42
-15 -23 -10 -31 -20 -28 -32 5 -13 -7 -21 -52 -37 -32 -12 -69 -28 -83 -37
-14 -8 -41 -22 -60 -30 -19 -8 -42 -19 -50 -24 -8 -5 -37 -22 -65 -36 -27 -15
-82 -46 -121 -70 -39 -24 -74 -44 -78 -44 -4 0 -19 -11 -34 -25 -15 -14 -21
-25 -15 -25 7 0 10 -7 7 -15 -4 -8 -10 -15 -15 -15 -5 0 -9 7 -9 15 0 19 -14
19 -30 0 -11 -13 -10 -14 5 -9 14 6 16 3 10 -17 -4 -13 -15 -30 -26 -38 -10
-7 -19 -20 -19 -27 0 -8 -5 -14 -12 -14 -20 0 -47 -31 -41 -48 5 -12 2 -14
-11 -9 -10 4 -15 3 -11 -3 3 -6 1 -10 -5 -10 -15 0 -185 -173 -238 -242 -23
-31 -41 -62 -40 -69 2 -7 -7 -18 -20 -24 -22 -10 -25 -32 -3 -27 18 4 13 -5
-34 -55 -24 -26 -45 -51 -45 -55 0 -4 -6 -13 -12 -20 -46 -50 -118 -161 -118
-183 0 -3 7 -5 15 -5 9 0 12 -6 9 -15 -4 -10 0 -15 12 -15 15 0 13 -4 -8 -18
-17 -10 -28 -25 -28 -39 0 -13 -4 -23 -10 -23 -5 0 -10 -6 -10 -13 0 -7 -9
-21 -21 -30 -16 -14 -18 -21 -9 -32 6 -8 9 -24 5 -37 -18 -61 -18 -64 -4 -50
7 6 20 12 29 12 11 -1 10 -5 -7 -19 -14 -12 -21 -27 -18 -40 2 -13 -5 -27 -21
-40 -15 -12 -24 -29 -24 -47 0 -15 -9 -37 -19 -48 -11 -12 -23 -34 -27 -50 -6
-26 -5 -27 15 -17 11 7 21 16 21 21 0 6 8 18 18 28 42 44 80 101 100 152 13
30 31 66 41 79 l19 25 -5 -30 c-4 -27 -3 -28 11 -10 8 10 17 24 19 30 2 6 7 9
10 6 6 -6 -12 -65 -26 -88 -5 -7 -5 -21 -2 -32 4 -14 2 -20 -7 -18 -7 2 -14
-7 -16 -19 -4 -27 13 -30 27 -5 6 9 11 14 11 9 0 -10 -22 -47 -38 -65 -7 -7
-10 -18 -7 -22 3 -5 -8 -24 -25 -41 -30 -32 -30 -32 -30 -8 -1 26 2 31 -43
-73 -33 -77 -37 -88 -26 -88 5 0 0 -10 -12 -22 -26 -28 -91 -155 -81 -160 10
-4 44 -80 38 -85 -9 -9 -26 8 -26 25 0 9 -5 24 -11 32 -9 13 -10 12 -5 -2 3
-12 0 -18 -9 -18 -22 0 -18 -13 10 -44 14 -15 25 -32 25 -38 0 -6 -18 9 -40
33 -30 33 -38 50 -35 69 3 14 0 32 -6 40 -8 12 -9 9 -5 -12 3 -15 2 -29 -3
-32 -16 -10 1 -47 25 -58 13 -6 24 -15 24 -20 0 -17 3 -23 19 -35 9 -7 11 -13
6 -13 -6 0 -11 -9 -12 -20 -1 -11 2 -18 7 -15 5 3 8 -17 7 -45 0 -27 -1 -50
-2 -50 -1 0 -15 18 -30 41 -23 32 -30 37 -37 25 -5 -8 -15 -13 -23 -10 -12 5
-12 1 1 -25 9 -17 22 -31 31 -31 23 0 10 -21 -24 -40 l-31 -16 31 -29 31 -29
-27 -11 -28 -11 40 -19 c23 -10 41 -24 41 -32 0 -7 7 -13 15 -13 8 0 15 -4 15
-9 0 -16 -21 -24 -33 -12 -17 17 -30 13 -24 -9 3 -11 0 -20 -6 -20 -32 -1 32
-30 66 -30 23 0 36 -4 32 -10 -6 -9 11 -19 60 -35 34 -11 -4 -25 -61 -23 -52
1 -78 -7 -69 -22 7 -11 -31 -57 -40 -48 -4 3 2 15 13 26 11 11 18 23 15 26 -3
3 -1 12 6 19 9 12 4 15 -31 20 -52 7 -108 -10 -108 -34 0 -9 -9 -19 -21 -22
-18 -5 -19 -8 -9 -27 10 -19 8 -27 -9 -51 -28 -37 -27 -43 4 -23 28 18 35 8 8
-12 -14 -10 -15 -15 -6 -25 10 -10 6 -16 -17 -31 -36 -22 -51 -23 -44 -4 7 18
-34 32 -49 17 -8 -8 -8 -11 2 -11 7 0 24 -13 37 -30 21 -24 30 -28 55 -23 32
6 40 -10 12 -26 -14 -7 -15 -12 -5 -23 9 -12 7 -17 -12 -28 -14 -7 -32 -10
-41 -6 -9 3 -21 4 -25 1 -14 -9 0 -35 19 -35 12 -1 9 -7 -11 -23 -16 -13 -28
-30 -28 -40 0 -14 4 -15 25 -5 39 18 56 -5 24 -31 -32 -26 -69 -34 -103 -21
-36 13 -39 13 -33 -5 4 -8 2 -17 -2 -20 -5 -3 -11 2 -15 10 -6 17 -36 21 -36
5 0 -5 7 -10 15 -10 9 0 18 -7 21 -15 9 -22 48 -20 40 3 -4 10 1 8 13 -7 15
-20 24 -23 55 -18 20 3 36 2 36 -4 0 -5 1 -12 3 -16 1 -3 -7 -7 -18 -9 -11 -2
-21 -8 -23 -14 -2 -6 -14 -15 -27 -20 -34 -13 -54 -59 -41 -92 10 -24 13 -25
36 -13 55 28 67 27 75 -2 5 -15 7 -34 6 -40 -1 -7 3 -14 9 -14 5 -1 16 -2 22
-3 31 -3 14 -63 -38 -133 -13 -17 -24 -44 -24 -60 0 -29 33 -93 48 -93 5 0 15
-11 22 -25 7 -13 30 -36 51 -49 25 -17 41 -38 49 -63 16 -48 28 -63 50 -63 24
0 70 -42 70 -64 0 -9 21 -38 46 -64 49 -49 74 -95 74 -135 0 -19 -7 -26 -29
-30 -32 -7 -71 1 -71 14 0 5 -8 9 -17 9 -12 0 -3 -13 27 -40 l44 -40 -46 0
c-26 0 -50 -5 -54 -12 -4 -6 -3 -8 3 -5 6 4 13 0 17 -8 3 -8 16 -15 28 -16 22
-1 22 -1 -2 -8 -14 -5 -33 -7 -42 -5 -23 4 -23 -9 -1 -27 10 -9 45 -14 97 -15
110 -2 149 -11 143 -34 -4 -14 1 -16 32 -13 26 3 41 0 50 -11 8 -9 19 -16 27
-16 10 0 11 6 2 31 -13 36 0 54 31 44 13 -4 24 -20 32 -48 13 -48 45 -97 63
-97 13 0 56 -41 56 -54 0 -10 50 -78 72 -96 9 -8 31 -41 48 -72 33 -64 40
-131 15 -164 -19 -25 -19 -50 -1 -57 8 -3 15 -19 16 -34 0 -15 2 -43 3 -62 2
-31 0 -34 -31 -36 -23 -2 -38 4 -55 21 -12 13 -27 24 -34 24 -6 0 -14 6 -16
13 -3 6 -6 3 -6 -9 -1 -11 10 -36 24 -55 l26 -34 -22 -5 c-21 -5 -19 -8 21
-43 24 -20 63 -44 87 -53 41 -16 46 -16 79 -1 24 12 47 15 74 11 l38 -6 -15
-47 c-9 -25 -22 -62 -30 -81 -7 -19 -16 -45 -18 -57 -3 -13 -8 -33 -11 -45 -4
-13 -9 -49 -11 -82 -4 -48 -1 -64 16 -87 15 -20 17 -29 8 -33 -8 -3 -7 -9 6
-19 19 -16 24 -32 5 -21 -7 4 -8 3 -4 -5 4 -6 13 -11 19 -10 26 3 37 -2 37
-17 0 -8 -5 -12 -10 -9 -6 4 -10 -5 -10 -20 0 -14 7 -28 15 -31 8 -4 15 -16
15 -29 0 -12 7 -28 16 -36 24 -19 35 6 32 71 -1 30 0 60 4 65 4 6 3 17 -2 24
-4 8 -4 27 1 44 6 20 3 50 -8 95 -13 52 -14 66 -3 72 11 7 11 20 2 67 -6 32
-11 87 -11 123 2 119 -6 174 -33 230 -36 76 -70 167 -108 285 -51 161 -54 170
-75 174 -41 7 -185 128 -185 155 0 7 -25 52 -55 100 -31 49 -64 105 -74 125
-10 20 -54 104 -98 186 -107 202 -135 262 -131 288 3 18 12 10 53 -47 l50 -68
7 73 c5 41 15 97 23 125 8 29 15 68 15 88 0 37 22 51 34 21 9 -24 78 -19 105
7 22 19 22 22 7 33 -9 7 -16 17 -16 24 0 13 -18 48 -38 73 -8 9 -11 21 -8 26
6 10 -14 32 -26 29 -3 -1 -9 1 -12 4 -3 3 19 6 50 7 44 1 55 -2 51 -12 -3 -8
0 -22 7 -32 13 -17 14 -16 21 5 9 28 -2 91 -16 91 -6 0 -9 10 -7 23 4 27 55
39 55 13 0 -9 -7 -16 -15 -16 -10 0 -12 -5 -7 -17 5 -10 9 -27 10 -39 1 -11 5
-26 10 -34 5 -8 4 -11 -2 -7 -11 7 -26 -19 -19 -32 3 -4 8 -32 11 -64 6 -53 5
-58 -21 -81 -24 -20 -26 -24 -9 -22 24 1 25 -2 25 -56 0 -40 -1 -41 -19 -24
-13 12 -21 14 -26 6 -4 -6 -25 -10 -46 -9 -43 4 -63 -10 -65 -44 -1 -12 -5
-30 -9 -40 -4 -10 -5 -45 -2 -77 8 -74 53 -151 109 -186 39 -25 41 -25 80 -9
22 8 49 13 59 10 23 -8 25 11 4 51 -8 16 -15 37 -15 47 0 10 -4 16 -9 13 -5
-4 -6 9 -1 29 5 22 4 35 -2 35 -6 0 -8 14 -4 35 5 25 3 37 -6 40 -20 8 -20 46
0 61 14 10 14 16 4 39 -11 23 -10 27 5 31 15 4 18 17 19 80 0 40 -4 74 -9 74
-5 0 -6 10 -3 23 10 32 13 87 5 87 -7 0 0 162 8 170 2 2 8 -2 13 -10 9 -13 10
-13 11 0 1 8 3 24 4 35 2 11 6 46 9 78 4 33 12 69 18 80 6 12 10 23 9 25 -2 1
0 28 4 60 4 31 9 83 10 114 2 31 7 63 11 70 5 7 7 25 5 40 -2 24 9 39 34 45 6
1 44 9 85 18 81 16 208 73 241 108 20 21 21 21 17 2 -1 -11 -12 -28 -23 -38
-20 -18 -20 -19 1 -14 12 2 29 0 38 -5 11 -6 34 -5 64 2 37 9 54 9 77 -1 41
-17 67 -21 60 -10 -8 14 34 24 49 12 10 -8 16 -7 25 3 11 13 17 13 47 -2 31
-14 36 -14 44 -2 7 10 10 11 10 3 0 -7 11 -13 25 -13 14 0 25 -5 25 -11 0 -5
-4 -8 -9 -5 -17 11 -39 -5 -34 -25 4 -13 0 -19 -11 -19 -10 0 -15 -4 -12 -9 3
-4 -6 -7 -21 -5 -15 1 -43 -8 -67 -23 -22 -15 -46 -26 -53 -26 -7 0 -17 -13
-24 -29 -6 -15 -16 -28 -21 -28 -5 0 -21 -26 -35 -57 -15 -32 -38 -75 -51 -96
-19 -29 -26 -53 -28 -102 -1 -36 2 -67 7 -70 5 -4 19 0 32 7 97 54 140 72 144
61 3 -7 10 -13 16 -13 6 0 21 -11 33 -26 13 -15 25 -21 29 -15 3 6 15 11 26
11 11 0 17 5 14 10 -3 6 -3 10 2 11 72 4 93 4 93 -2 0 -3 21 -12 46 -19 37
-11 62 -11 121 -2 63 10 78 17 103 43 32 35 56 115 46 154 -5 19 -3 23 9 19 8
-4 15 -13 15 -21 0 -7 6 -13 13 -12 29 5 67 -25 79 -64 15 -48 6 -63 -53 -95
-57 -32 -55 -29 -36 -50 24 -26 14 -31 -40 -21 -31 6 -50 5 -60 -2 -10 -9 -13
-8 -13 1 0 9 -3 10 -13 1 -11 -8 -16 -5 -25 14 -10 22 -14 23 -41 14 -30 -11
-133 -7 -162 5 -30 13 -104 3 -104 -14 0 -10 10 -15 31 -15 26 0 31 -4 28 -18
-2 -13 1 -17 11 -13 8 3 21 -2 30 -10 9 -9 15 -11 15 -4 0 7 7 5 16 -4 8 -9
20 -14 25 -11 12 8 11 -16 -1 -35 -8 -12 -10 -12 -10 5 0 18 -1 18 -16 -3 -8
-12 -23 -22 -33 -22 -10 0 -34 -6 -52 -14 -19 -8 -46 -13 -62 -11 -15 2 -25
-1 -21 -6 3 -5 13 -9 23 -9 9 0 22 -5 28 -11 14 -14 59 -20 153 -19 99 2 134
5 149 14 7 4 22 9 34 11 34 5 141 53 145 64 2 6 8 9 13 5 5 -3 12 3 16 13 4
10 15 25 24 34 14 12 16 18 6 28 -9 10 -8 11 4 6 10 -4 20 -2 23 4 8 12 -43 9
-63 -3 -6 -4 -14 0 -17 8 -3 9 -12 16 -20 16 -8 0 -14 7 -14 16 0 11 6 15 20
11 11 -3 23 -1 26 4 3 6 15 7 26 3 13 -4 18 -2 14 4 -3 6 10 13 31 16 90 13
149 20 156 18 16 -4 5 26 -28 72 -35 50 -44 76 -25 76 6 0 10 -4 10 -8 0 -4
12 -9 28 -10 15 -1 28 -6 30 -12 2 -5 10 -6 18 -3 8 3 14 -1 14 -11 0 -9 5
-16 11 -16 5 0 7 5 3 12 -5 8 -2 9 10 5 10 -4 20 -7 22 -7 3 0 2 -5 -1 -10 -8
-13 40 -8 52 5 4 4 2 5 -4 1 -8 -5 -13 -1 -13 9 0 9 9 19 21 22 16 4 17 8 7
14 -10 7 -11 9 0 9 7 0 11 4 7 9 -3 6 4 8 16 6 13 -3 26 -10 31 -17 6 -10 8
-9 8 4 0 9 6 18 13 21 9 3 9 7 1 18 -9 11 -7 21 6 42 12 19 20 25 25 17 5 -7
12 -2 22 17 9 18 11 29 4 31 -6 2 -11 17 -11 32 0 26 4 29 45 36 43 6 45 8 30
23 -18 20 -20 35 -4 25 7 -4 10 -1 7 7 -3 8 -17 14 -31 14 -14 -1 -23 3 -21 7
3 4 12 8 21 8 13 0 13 3 3 15 -10 12 -10 15 3 15 10 0 14 6 11 14 -4 9 3 16
18 19 19 3 18 5 -7 6 -35 1 -78 28 -70 42 4 5 -1 9 -9 9 -9 0 -15 6 -14 13 2
7 -5 11 -18 9 -13 -2 -24 4 -28 13 -3 9 -2 14 3 11 5 -3 11 0 14 7 4 12 -7 14
-75 17 -31 1 -37 17 -11 27 15 6 14 7 -3 13 -12 5 -24 1 -35 -11 -9 -10 -19
-16 -22 -12 -4 3 1 12 11 20 16 12 16 13 0 7 -10 -3 -18 -2 -18 4 0 5 -15 12
-32 16 -23 5 -29 9 -20 15 10 6 9 10 -7 14 -37 9 -23 26 17 21 20 -3 32 -2 26
3 -16 12 -24 42 -14 48 6 4 10 1 10 -4 0 -6 8 -11 18 -11 14 0 15 2 2 10 -11
7 -11 10 -2 10 7 0 11 4 7 9 -3 5 0 13 6 17 8 4 9 3 5 -4 -13 -21 8 -12 33 13
13 14 27 25 32 25 5 0 9 8 10 18 0 10 3 12 6 5 2 -7 9 -13 14 -13 4 0 6 7 3
15 -4 10 0 15 11 15 9 0 14 4 11 9 -3 5 8 14 24 21 17 7 30 16 30 21 0 5 6 9
13 9 6 0 23 12 36 25 12 14 28 22 35 18 6 -3 8 -3 4 2 -5 5 2 13 15 20 12 6
21 17 19 23 -1 7 3 12 9 12 6 0 18 7 26 16 9 9 26 14 39 11 19 -3 21 -2 11 14
-7 12 -14 14 -18 7 -4 -6 -12 -7 -19 -3 -8 5 -5 14 10 30 12 13 20 27 17 32
-3 5 -1 15 5 23 8 13 9 12 5 -2 -3 -9 0 -19 7 -21 10 -4 12 1 9 14 -4 15 0 19
23 19 17 0 24 4 17 8 -16 10 12 46 31 39 12 -5 13 -13 6 -38 -12 -43 -6 -48
10 -9 7 16 16 30 20 30 4 0 7 8 6 17 0 9 9 22 22 28 34 18 40 28 9 16 -15 -6
-27 -7 -27 -3 0 19 52 113 64 118 8 3 17 17 21 31 3 14 9 23 12 19 3 -3 14 8
24 24 11 17 26 30 35 30 13 0 15 -8 9 -52 -3 -29 -10 -62 -14 -73 -5 -11 -14
-51 -21 -90 -25 -150 -30 -169 -45 -177 -19 -11 -20 -42 -1 -35 14 6 11 -16
-9 -65 -4 -10 -5 -18 -2 -18 14 0 37 72 51 160 9 52 18 104 20 115 2 11 6 41
10 67 7 46 36 90 36 54 0 -10 -4 -25 -9 -34 -4 -9 -11 -48 -14 -86 -11 -119 3
-69 33 124 9 58 30 107 30 70 0 -7 11 -28 25 -46 14 -18 25 -37 25 -42 0 -5
12 -15 26 -22 30 -17 53 -57 56 -97 1 -19 3 -14 8 17 4 25 8 35 8 23 2 -15 7
-21 17 -17 9 4 26 -6 42 -24 79 -85 103 -115 103 -130 0 -13 2 -14 9 -4 6 11
25 -2 77 -50 38 -34 71 -66 74 -69 3 -4 14 -9 26 -13 11 -3 39 -26 63 -51 24
-25 48 -42 53 -38 7 3 8 1 4 -6 -4 -6 -17 -11 -29 -10 -12 1 -37 1 -56 1 l-34
-2 21 -19 c12 -10 19 -21 15 -25 -11 -10 -48 -7 -61 6 -9 9 -12 8 -12 -5 0
-20 -30 -23 -49 -4 -11 10 -12 9 -6 -2 7 -11 1 -13 -26 -8 -19 3 -28 3 -21 0
6 -2 12 -11 12 -18 0 -14 -78 -26 -82 -13 -2 4 -13 5 -25 2 -13 -4 -20 -10
-17 -15 3 -5 -16 -9 -43 -10 -36 0 -43 -3 -28 -9 17 -7 15 -9 -11 -9 -23 -1
-37 -9 -49 -27 -13 -21 -19 -24 -26 -13 -6 10 -9 11 -10 2 -4 -38 -16 -54 -34
-46 -10 3 -15 -1 -15 -13 0 -15 2 -16 9 -5 6 9 11 10 15 2 4 -6 4 -16 1 -22
-9 -13 -45 18 -41 34 2 7 1 9 -1 4 -3 -4 -9 -5 -14 -1 -5 3 -14 2 -20 -2 -8
-4 -7 -9 2 -15 10 -6 5 -9 -14 -9 -16 0 -26 -4 -23 -9 8 -12 -50 -25 -66 -15
-10 6 -10 4 0 -9 14 -16 8 -42 -7 -33 -4 3 -8 -1 -8 -8 0 -8 7 -12 15 -9 12 5
12 3 1 -16 -8 -11 -17 -21 -21 -21 -5 0 -8 -4 -8 -10 0 -5 7 -7 15 -4 23 9 19
-22 -5 -39 -20 -14 -19 -14 4 -26 32 -17 34 -68 3 -82 -20 -8 -19 -9 6 -5 21
3 27 0 23 -11 -8 -19 4 -63 16 -63 5 0 6 4 3 10 -3 6 1 7 10 4 10 -4 13 -13
10 -25 -4 -12 -1 -21 9 -25 9 -3 13 -11 9 -17 -4 -6 0 -8 10 -4 11 4 14 2 10
-8 -3 -8 -8 -13 -12 -10 -19 11 -4 -23 22 -50 15 -16 25 -23 22 -14 -4 10 -2
20 4 24 6 3 11 -1 11 -11 0 -12 5 -15 23 -9 12 3 29 8 37 9 8 1 26 8 39 15 31
17 49 1 34 -31 -33 -70 -39 -113 -14 -115 9 0 45 -6 81 -13 35 -6 75 -9 87 -5
13 3 23 3 23 0 0 -12 -36 -45 -50 -45 -10 0 -11 -3 -4 -8 18 -11 13 -44 -5
-37 -9 3 -5 -4 9 -15 27 -21 40 -25 40 -11 0 5 16 2 34 -7 19 -9 33 -19 31
-23 -7 -10 41 -39 65 -39 12 0 18 -4 15 -10 -4 -7 3 -9 19 -6 14 3 26 1 26 -4
0 -4 11 -7 25 -6 13 2 22 -1 19 -5 -3 -5 1 -10 8 -10 7 -1 20 -2 28 -3 8 0 18
3 22 8 4 6 12 5 21 -2 7 -7 17 -9 20 -5 4 3 7 0 7 -8 1 -10 3 -9 11 4 5 9 22
18 37 18 27 2 27 2 2 6 -53 10 -63 47 -12 41 25 -3 27 0 24 30 -3 23 1 32 11
32 10 0 13 8 9 26 -3 17 -1 25 5 21 6 -4 18 5 28 19 14 22 19 23 33 13 16 -12
16 -11 0 6 -15 16 -19 17 -35 4 -16 -13 -17 -12 -5 3 10 12 24 15 58 12 36 -4
44 -2 44 11 0 8 7 18 15 21 8 4 12 11 8 17 -4 6 0 8 10 4 16 -6 22 8 18 35 -1
9 19 1 75 -29 l42 -22 0 24 c0 14 -4 25 -9 25 -5 0 -8 4 -7 9 4 12 -74 83
-109 101 -15 8 -43 27 -61 42 -18 16 -38 28 -45 28 -7 0 -27 14 -45 30 -38 34
-47 37 -38 13 5 -16 4 -16 -6 -3 -7 8 -29 15 -48 16 -64 1 -120 9 -120 16 0 4
-6 5 -13 2 -8 -3 -20 2 -27 11 -12 14 -11 18 1 26 10 6 11 9 1 9 -7 0 -10 5
-6 11 11 18 244 -1 309 -26 86 -32 115 -56 173 -141 23 -34 49 -67 57 -74 39
-32 22 23 -30 100 -27 40 -137 160 -139 152 -1 -4 -21 1 -66 18 -19 7 -54 14
-78 15 -23 2 -49 9 -57 15 -9 7 -18 10 -22 7 -3 -3 -18 0 -33 8 -15 8 -30 11
-34 8 -3 -4 -6 0 -6 8 0 35 82 72 165 74 22 1 53 7 68 13 16 7 43 12 60 12 30
-1 31 -1 13 -15 -11 -8 -15 -15 -9 -15 6 0 23 10 38 21 15 12 30 18 33 13 4
-5 14 -9 22 -9 64 0 162 -18 167 -31 6 -17 43 -19 43 -2 0 27 16 -9 19 -45 1
-4 12 0 25 8 29 19 25 43 -12 77 -19 17 -24 19 -19 6 3 -10 1 -20 -5 -24 -7
-5 -8 -2 -3 6 5 9 2 10 -14 5 -12 -3 -21 -2 -21 4 0 5 8 12 18 14 9 3 -1 6
-23 7 -30 1 -35 3 -21 9 18 7 18 8 3 14 -9 3 -25 3 -34 0 -15 -6 -16 -5 -3 9
8 9 29 15 46 14 44 -2 39 23 -8 42 -21 8 -38 19 -38 23 0 5 -18 14 -40 20 -32
10 -38 15 -29 26 6 7 8 13 3 13 -4 0 -3 5 4 12 7 7 12 17 12 22 0 6 -9 0 -19
-13 -32 -42 -102 -30 -148 27 -20 25 -16 29 23 26 31 -2 34 -1 22 13 -11 14
-11 15 2 11 8 -2 21 1 28 9 7 7 25 13 38 13 15 0 23 4 19 10 -4 6 -16 10 -28
8 -14 -2 -22 2 -22 12 0 12 13 15 55 15 48 0 58 4 79 28 12 15 21 34 17 42 -3
8 -1 17 3 20 5 3 6 15 3 28 -5 18 -8 14 -17 -23 -9 -36 -17 -48 -45 -63 -41
-21 -147 -20 -142 1 3 15 -10 16 -25 1 -7 -7 -14 -6 -24 4 -8 7 -20 12 -27 9
-7 -2 -32 9 -55 24 -23 16 -46 27 -52 25 -5 -1 -5 3 2 10 9 9 5 17 -20 34 -18
12 -31 27 -29 33 1 7 -2 12 -8 12 -13 0 -48 72 -43 88 3 6 -1 12 -7 12 -7 0
-10 7 -6 15 3 8 1 15 -4 15 -6 0 -9 3 -8 8 1 4 -8 28 -20 54 -47 101 -65 207
-64 378 0 56 -2 78 -8 65 -7 -17 -9 -14 -9 13 -1 20 3 31 9 27 6 -3 10 1 10 9
0 9 -5 16 -10 16 -6 0 -5 8 2 20 7 10 15 16 18 12 3 -4 16 -16 30 -27 l25 -20
-23 27 c-14 15 -19 28 -13 32 5 4 21 -10 35 -31 27 -39 35 -39 14 0 -26 50
-28 58 -23 68 9 13 27 0 19 -14 -4 -7 -4 -9 1 -5 4 4 14 3 22 -3 9 -9 13 -8
13 0 0 18 24 8 32 -14 6 -19 6 -18 7 3 1 22 1 22 31 -5 17 -15 42 -42 56 -61
25 -32 25 -34 8 -47 -17 -13 -16 -14 11 -6 17 5 45 17 64 27 25 14 35 16 38 7
3 -7 13 -13 24 -13 11 0 23 -10 28 -22 l8 -22 5 22 c4 12 2 20 -2 17 -5 -3 -8
3 -7 13 1 18 3 18 28 3 15 -8 25 -19 23 -23 -2 -3 0 -9 6 -13 5 -3 10 2 10 12
0 26 51 28 57 2 3 -10 10 -19 17 -20 6 -1 0 -5 -14 -9 -24 -8 -23 -8 8 -9 28
-1 35 -6 48 -36 17 -41 17 -48 4 -40 -5 3 -10 1 -10 -4 0 -6 7 -11 15 -11 8 0
15 -5 15 -11 0 -5 12 -25 27 -43 14 -19 26 -36 25 -40 -1 -3 14 -39 33 -81 19
-41 32 -75 28 -75 -3 0 2 -9 11 -19 10 -11 17 -30 16 -43 -1 -13 -1 -25 0 -28
3 -9 8 -35 15 -75 4 -22 12 -46 17 -52 7 -9 7 -17 -1 -26 -6 -8 -8 -17 -5 -20
4 -3 8 -21 10 -39 3 -18 6 -46 8 -63 7 -52 15 -184 21 -355 8 -208 26 -339 64
-460 38 -121 58 -208 67 -290 3 -36 8 -68 11 -73 6 -10 4 -293 -2 -372 -2 -33
-7 -85 -10 -115 -3 -30 -8 -78 -10 -105 -2 -28 -7 -68 -11 -89 l-7 -39 22 22
c11 11 21 26 21 32 0 5 3 8 8 6 4 -3 13 1 20 9 7 8 11 14 8 14 -3 0 1 12 9 27
9 16 11 32 5 42 -5 10 -3 26 7 44 9 19 13 50 11 89 -2 37 1 62 8 65 19 6 54
-81 54 -134 0 -27 3 -53 6 -56 11 -11 59 65 78 123 29 88 35 100 47 100 8 0
10 -18 5 -62 -7 -60 -27 -114 -102 -275 -36 -76 -40 -93 -24 -93 6 0 10 5 10
11 0 22 175 186 213 200 20 7 37 17 37 22 0 4 37 45 81 90 95 94 111 126 108
212 -2 52 1 66 19 86 12 12 22 26 22 31 0 4 4 8 10 8 5 0 20 10 33 23 13 12
40 37 60 55 20 19 37 38 37 43 0 6 4 8 9 5 4 -3 8 12 8 34 0 22 -4 40 -8 40
-25 0 -4 28 29 39 42 16 52 26 52 59 0 15 4 21 13 16 6 -3 -1 5 -18 20 -16 14
-34 25 -39 26 -5 0 -17 7 -27 16 -9 8 -32 18 -51 20 -19 3 -41 16 -52 30 -10
14 -29 30 -42 35 -15 5 -24 17 -24 29 0 12 -9 24 -24 29 -17 7 -25 20 -30 49
-3 22 -9 42 -13 44 -13 5 -44 80 -37 87 4 3 9 0 11 -6 3 -7 8 -13 13 -13 14 0
21 32 9 46 -10 12 -8 13 7 8 18 -5 18 -5 2 9 -10 8 -18 27 -18 43 0 26 -1 27
-14 9 -8 -11 -12 -24 -9 -30 4 -5 2 -6 -2 -2 -5 4 -10 13 -11 20 -1 7 -5 24
-9 38 -6 23 -3 27 22 34 15 4 22 10 16 12 -19 7 -17 63 2 63 9 0 15 -9 15 -23
0 -12 9 -48 20 -80 11 -31 20 -68 20 -82 0 -14 4 -25 9 -25 17 0 8 -40 -10
-45 -10 -3 -17 -16 -17 -33 0 -41 9 -47 30 -21 l18 24 -9 -27 c-7 -18 -7 -29
0 -34 14 -8 40 16 32 30 -12 18 -15 49 -11 101 2 28 -5 48 -19 60 -7 5 -15 24
-17 40 -9 60 -24 132 -44 205 -13 47 -18 78 -12 84 6 6 10 24 10 41 0 17 6 37
13 44 10 11 8 13 -12 8 -14 -3 -29 0 -37 8 -16 16 -7 24 30 27 14 1 26 6 26
11 0 11 -33 44 -36 37 -2 -3 -15 17 -29 44 -31 58 -27 79 12 70 16 -4 25 -3
21 1 -4 5 -3 14 3 21 8 9 5 11 -9 7 -25 -6 -62 13 -62 32 0 8 -11 26 -25 41
-19 21 -22 30 -14 40 9 11 7 14 -7 14 -11 0 -25 10 -33 21 -11 19 -11 21 2 16
12 -4 14 0 11 20 -6 30 -60 98 -86 108 -22 8 -63 78 -49 83 6 2 9 8 5 13 -10
17 12 9 29 -11 9 -11 22 -20 29 -20 16 1 -43 50 -59 50 -17 0 -34 35 -27 55 4
10 2 15 -7 13 -7 -2 -13 2 -14 7 0 6 -13 27 -29 48 -16 21 -26 40 -24 43 3 3
15 -7 27 -22 11 -15 21 -24 21 -20 0 8 74 -29 112 -55 31 -22 52 -25 24 -4
-11 8 -16 15 -12 15 5 0 -19 14 -53 32 -35 18 -67 41 -72 51 -6 10 -27 34 -47
53 -41 39 -32 47 12 9 31 -26 63 -34 50 -12 -10 16 -58 53 -60 47 -5 -11 -54
44 -54 59 1 11 8 8 25 -11 13 -16 27 -23 30 -18 3 6 3 10 -2 10 -12 1 -46 50
-34 50 23 0 64 -47 64 -73 0 -15 3 -27 7 -27 5 0 7 11 6 25 -3 21 -1 23 16 14
10 -5 16 -14 13 -19 -3 -5 0 -12 6 -16 8 -4 9 -3 5 4 -13 21 10 13 30 -10 15
-19 16 -20 2 -9 -12 9 -18 9 -18 2 0 -6 17 -19 39 -30 21 -11 41 -27 44 -36 4
-8 14 -15 22 -15 9 0 13 4 10 10 -3 6 1 7 9 4 9 -3 16 -1 16 5 0 6 -4 11 -10
11 -13 0 -51 32 -123 102 -32 31 -66 60 -75 63 -15 6 -15 8 3 15 26 10 48 1
41 -17 -3 -8 -1 -11 5 -8 5 4 21 -4 34 -17 12 -12 38 -31 57 -42 26 -15 22 -9
-20 29 -42 38 -52 53 -50 74 2 19 -3 29 -21 39 -16 8 -28 9 -34 3 -7 -7 -17
-6 -30 1 -19 10 -17 12 18 23 20 8 43 11 50 9 7 -3 15 2 19 11 5 13 2 15 -17
9 -46 -15 -72 -10 -75 13 -3 21 -4 21 -21 5 -10 -9 -16 -20 -14 -24 2 -4 -4
-5 -13 -1 -11 4 -13 8 -6 11 7 2 10 7 7 12 -3 5 2 15 10 24 13 12 14 20 5 36
-9 16 -7 26 9 48 10 15 26 43 34 62 l15 35 1 -29 c1 -32 9 -31 16 2 2 11 9 30
15 41 13 26 -4 29 -19 4 -15 -26 -13 -1 2 36 10 24 16 28 25 19 9 -9 9 -4 0
20 -14 36 -28 42 -28 11 0 -11 -4 -17 -10 -14 -10 6 -12 0 -14 -45 -1 -15 -8
-26 -18 -28 -17 -3 -17 -1 -1 45 9 26 22 63 30 80 11 26 11 37 2 55 -11 21
-11 22 4 9 10 -7 17 -24 17 -37 0 -12 5 -26 10 -29 13 -8 13 26 0 59 -5 14 -6
26 -2 26 18 0 9 39 -9 45 -21 7 -32 29 -43 85 -6 29 -5 33 6 20 7 -8 22 -22
33 -30 11 -8 7 0 -9 18 -16 17 -32 29 -36 27 -4 -3 -14 10 -21 28 -24 59 -100
177 -115 177 -8 0 -14 4 -14 9 0 18 -125 134 -203 188 -109 77 -160 101 -234
109 -58 6 -63 5 -56 -11 4 -12 3 -16 -4 -12 -6 4 -13 2 -15 -3 -2 -7 -25 -3
-61 9 -32 11 -62 20 -65 19 -4 -1 -20 4 -37 11 -21 9 -31 9 -33 1 -2 -6 -19
-17 -38 -25 -28 -12 -34 -19 -34 -45 0 -26 -6 -33 -37 -47 l-37 -15 -49 51
c-27 28 -54 51 -60 51 -7 0 -21 7 -31 15 -11 8 -25 15 -30 15 -6 0 -2 -7 8
-15 17 -13 18 -15 3 -15 -9 0 -18 5 -18 10 -3 19 -5 25 -27 67 -37 71 -58 81
-170 81 -81 0 -115 -6 -207 -34z m172 10 c-16 -9 -31 -13 -34 -10 -3 3 5 10
18 15 37 15 47 12 16 -5z m113 -4 c6 -11 16 -19 22 -17 7 1 13 -7 15 -18 1
-11 0 -15 -3 -9 -2 6 -16 9 -29 6 -15 -2 -25 0 -25 7 0 6 -4 11 -10 11 -15 0
-12 -30 3 -31 9 0 9 -2 -1 -6 -6 -2 -10 -9 -6 -14 7 -12 2 -11 -34 7 -18 8
-32 20 -32 25 0 5 -7 9 -15 9 -27 0 -16 18 18 29 29 9 61 17 79 20 4 0 12 -8
18 -19z m-210 -16 c0 -25 -25 -43 -68 -49 -26 -4 -57 -11 -70 -17 -17 -9 -25
-9 -34 0 -9 9 -4 13 20 18 18 4 35 10 38 15 2 5 17 7 32 5 15 -2 20 -1 12 2
-10 3 -3 9 20 18 41 15 50 16 50 8z m278 -39 c-3 -3 -9 2 -12 12 -6 14 -5 15
5 6 7 -7 10 -15 7 -18z m-218 -7 c0 -10 -49 -22 -56 -15 -4 3 -3 10 0 16 8 12
56 11 56 -1z m-250 -29 c0 -5 -19 -9 -42 -8 l-43 0 35 13 c36 13 50 12 50 -5z
m446 -25 c-13 -14 -27 2 -19 22 4 10 8 10 17 1 9 -8 10 -14 2 -23z m39 26 c3
-5 1 -10 -4 -10 -6 0 -11 5 -11 10 0 6 2 10 4 10 3 0 8 -4 11 -10z m-278 -16
c-3 -3 -12 -4 -19 -1 -8 3 -5 6 6 6 11 1 17 -2 13 -5z m73 -20 c0 -16 -26 -19
-35 -4 -3 6 -4 14 0 20 8 13 35 1 35 -16z m-925 -19 c39 -7 72 -14 75 -15 3
-2 -22 -6 -54 -10 -48 -6 -67 -4 -100 11 -23 10 -52 19 -66 20 -23 1 -23 2 5
9 17 5 39 6 50 3 11 -3 52 -11 90 -18z m865 15 c0 -5 -7 -7 -15 -4 -8 4 -15 8
-15 10 0 2 7 4 15 4 8 0 15 -4 15 -10z m-53 -6 c-3 -3 -12 -4 -19 -1 -8 3 -5
6 6 6 11 1 17 -2 13 -5z m388 -14 c4 -6 11 -8 16 -4 13 8 61 -24 54 -36 -3 -5
-1 -11 5 -15 6 -4 8 -11 4 -16 -3 -5 -9 -7 -13 -5 -4 3 -8 -1 -8 -9 0 -18 14
-20 19 -3 5 14 28 2 28 -14 0 -6 -3 -9 -6 -5 -4 3 -13 0 -21 -8 -18 -19 -47
-20 -40 -1 3 8 -1 13 -11 12 -11 -1 -17 6 -17 19 0 11 -8 28 -17 38 -10 9 -18
26 -18 37 0 21 15 27 25 10z m360 -1 c16 -7 12 -8 -17 -6 -21 2 -38 0 -38 -4
0 -4 -7 -9 -15 -13 -10 -4 -15 1 -15 14 0 16 7 20 33 19 17 0 41 -5 52 -10z
m-1681 -12 c29 -13 28 -13 -20 -10 -27 1 -55 2 -61 2 -7 1 -13 6 -13 11 0 14
59 12 94 -3z m966 3 c8 -5 12 -12 9 -15 -8 -8 -39 5 -39 16 0 11 11 11 30 -1z
m620 -6 c0 -17 -22 -14 -28 4 -2 7 3 12 12 12 9 0 16 -7 16 -16z m-341 -24
c11 -24 11 -24 -3 -6 -9 11 -16 24 -16 30 0 12 5 7 19 -24z m491 20 c0 -5 -17
-9 -37 -9 l-38 2 35 7 c19 4 36 8 38 9 1 0 2 -3 2 -9z m34 -52 c-8 -43 -29
-75 -51 -81 -10 -2 -5 -3 10 -1 17 2 26 0 22 -6 -3 -6 -27 -10 -53 -9 -35 0
-42 3 -27 9 11 5 14 9 6 9 -7 1 -11 7 -7 16 4 10 -1 14 -17 12 -18 -2 -23 4
-25 30 -3 31 -2 32 50 41 95 17 98 17 92 -20z m-2389 2 c-32 -21 -45 -25 -45
-12 0 5 12 13 28 19 43 17 50 15 17 -7z m2233 -45 c2 -16 -3 -20 -30 -20 -23
0 -34 5 -36 18 -4 20 9 22 27 5 10 -11 11 -9 5 6 -5 14 -3 17 12 14 10 -2 20
-12 22 -23z m212 0 c0 -8 -9 -15 -20 -15 -20 0 -26 11 -13 23 12 13 33 7 33
-8z m45 -15 c3 -5 1 -10 -4 -10 -6 0 -11 5 -11 10 0 6 2 10 4 10 3 0 8 -4 11
-10z m80 -10 c10 -11 16 -20 13 -20 -3 0 -13 9 -23 20 -10 11 -16 20 -13 20 3
0 13 -9 23 -20z m-520 -10 c-3 -5 0 -7 9 -4 8 3 19 -3 25 -14 11 -20 6 -32
-14 -32 -17 0 -67 45 -59 53 11 11 46 8 39 -3z m718 -15 c4 -8 12 -13 17 -10
11 6 64 -74 56 -83 -3 -3 -2 -10 3 -16 4 -6 11 -19 14 -28 10 -27 -15 -12 -40
25 -30 43 -96 113 -105 110 -4 -2 -5 4 -2 11 7 18 45 12 57 -9z m-263 5 c0 -5
-7 -10 -15 -10 -8 0 -15 5 -15 10 0 6 7 10 15 10 8 0 15 -4 15 -10z m125 -30
c27 -18 28 -20 8 -20 -12 0 -29 7 -37 16 -31 30 -15 33 29 4z m-273 -20 c-2
-8 -8 -17 -14 -19 -6 -2 -5 -7 3 -13 11 -7 9 -8 -6 -6 -11 2 -20 10 -20 18 0
8 -3 20 -7 25 -4 7 4 11 20 10 18 0 26 -6 24 -15z m-67 0 c-3 -5 -2 -10 2 -10
5 0 9 -10 10 -22 2 -22 1 -22 -12 2 -17 30 -18 40 -4 40 5 0 7 -4 4 -10z m122
-4 c-3 -8 -1 -17 6 -20 7 -2 5 -5 -5 -5 -9 -1 -19 7 -22 17 -2 9 -4 1 -3 -18
2 -27 -2 -35 -18 -39 -11 -2 -25 -10 -31 -19 -9 -12 -13 -12 -19 -2 -5 9 -4
11 3 6 11 -7 17 6 13 28 -1 5 5 6 13 3 18 -7 31 9 16 18 -15 9 11 45 33 45 13
0 17 -5 14 -14z m122 -20 c-3 -3 -11 5 -18 17 -13 21 -12 21 5 5 10 -10 16
-20 13 -22z m-288 -12 c21 -24 22 -26 3 -16 -25 13 -50 42 -37 42 5 0 20 -12
34 -26z m394 -7 c11 -11 13 -16 4 -9 -9 7 -20 8 -24 4 -5 -4 -5 -1 -1 6 6 10
1 11 -18 6 -20 -5 -26 -2 -26 11 0 21 37 11 65 -18z m-415 -36 c0 -18 -4 -14
-24 29 l-17 35 20 -25 c11 -14 21 -31 21 -39z m-60 39 c0 -5 -2 -10 -4 -10 -3
0 -8 5 -11 10 -3 6 -1 10 4 10 6 0 11 -4 11 -10z m301 -7 c11 -15 11 -16 0 -6
-21 18 -41 -6 -30 -34 5 -14 5 -23 -1 -23 -6 0 -10 7 -10 16 0 8 -4 12 -10 9
-6 -4 -10 5 -10 20 0 14 4 24 9 20 5 -3 12 -1 16 5 9 15 21 12 36 -7z m-273
-28 c-3 -3 -9 2 -12 12 -6 14 -5 15 5 6 7 -7 10 -15 7 -18z m422 15 c12 -8 11
-10 -7 -10 -13 0 -23 5 -23 10 0 13 11 13 30 0z m-2539 -26 c12 -15 6 -17 -28
-8 -13 4 -23 12 -23 19 0 16 35 8 51 -11z m2429 13 c0 -7 -9 -13 -20 -14 -16
-1 -17 1 -7 12 15 18 27 19 27 2z m-2590 -7 c0 -5 -7 -10 -16 -10 -8 0 -12 5
-9 10 3 6 10 10 16 10 5 0 9 -4 9 -10z m2350 -1 c0 -5 -5 -7 -11 -3 -8 4 -9
-1 -4 -17 6 -19 5 -22 -5 -12 -7 6 -10 19 -7 27 7 18 27 22 27 5z m628 -14
c-3 -3 -9 2 -12 12 -6 14 -5 15 5 6 7 -7 10 -15 7 -18z m-500 -13 c-4 -21 -32
-22 -36 -2 -2 10 5 16 18 17 15 1 20 -3 18 -15z m230 -1 c11 -7 11 -9 -1 -14
-9 -3 -18 1 -21 9 -6 16 2 18 22 5z m47 -1 c3 -5 -1 -10 -10 -10 -9 0 -13 5
-10 10 3 6 8 10 10 10 2 0 7 -4 10 -10z m-2065 -15 c11 -13 10 -14 -4 -9 -9 3
-16 10 -16 15 0 13 6 11 20 -6z m-1092 -7 c-2 -6 -20 -14 -39 -16 -51 -5 -19
19 34 27 5 0 7 -4 5 -11z m2969 -24 c4 -12 -53 -44 -78 -44 -25 0 -24 8 3 31
23 21 38 24 38 9 0 -5 4 -10 10 -10 5 0 7 7 3 16 -4 11 -2 15 7 12 8 -2 15 -8
17 -14z m148 6 c3 -5 1 -10 -4 -10 -6 0 -11 5 -11 10 0 6 2 10 4 10 3 0 8 -4
11 -10z m35 -22 c0 -5 -4 -8 -10 -8 -5 0 -10 10 -10 23 0 18 2 19 10 7 5 -8
10 -18 10 -22z m46 -8 c17 -25 30 -37 34 -30 5 8 9 6 14 -5 3 -10 1 -24 -6
-33 -10 -12 -10 -16 0 -19 15 -6 16 -53 1 -53 -5 0 -7 4 -4 10 3 5 -5 20 -18
32 -24 24 -43 65 -51 111 -6 36 -1 34 30 -13z m32 -6 c-10 -10 -28 6 -28 24 0
15 1 15 17 -1 9 -9 14 -19 11 -23z m267 -4 c9 -16 11 -30 6 -30 -5 0 -11 8
-15 18 -3 9 -9 23 -12 30 -12 26 6 10 21 -18z m-2965 9 c0 -5 -4 -7 -10 -4 -5
3 -10 -1 -10 -9 0 -19 1 -19 -38 -5 -18 6 -29 15 -26 20 7 13 84 11 84 -2z
m2517 -11 c-2 -7 -10 -12 -16 -10 -6 1 -11 -3 -11 -10 0 -6 -2 -9 -5 -6 -10 9
7 38 22 38 8 0 13 -6 10 -12z m11 -31 c-7 -7 -22 -16 -33 -21 -15 -5 -12 1 10
21 29 27 51 27 23 0z m110 -23 c7 -13 8 -24 4 -24 -12 0 -38 20 -27 20 6 0 2
5 -8 11 -9 6 -15 14 -12 19 9 14 31 1 43 -26z m-188 11 c0 -8 -6 -15 -14 -15
-8 0 -16 7 -20 15 -4 10 1 15 14 15 11 0 20 -7 20 -15z m-2079 -12 c13 -16 12
-17 -3 -4 -10 7 -18 15 -18 17 0 8 8 3 21 -13z m-891 -64 c0 -10 -95 -20 -115
-12 -18 6 -17 7 1 14 23 8 114 7 114 -2z m3287 -11 c-3 -8 -6 -5 -6 6 -1 11 2
17 5 13 3 -3 4 -12 1 -19z m253 1 c0 -6 -4 -7 -10 -4 -5 3 -10 11 -10 16 0 6
5 7 10 4 6 -3 10 -11 10 -16z m-3787 -56 c-7 -2 -19 -2 -25 0 -7 3 -2 5 12 5
14 0 19 -2 13 -5z m3800 -97 c3 3 3 -3 0 -15 -5 -20 -23 -30 -23 -13 0 4 -3
18 -6 32 -5 23 -4 24 9 8 8 -10 17 -15 20 -12z m-3978 -85 c-3 -6 -11 -11 -17
-11 -6 0 -6 6 2 15 14 17 26 13 15 -4z m-43 -13 c-7 -7 -12 -8 -12 -2 0 14 12
26 19 19 2 -3 -1 -11 -7 -17z m3965 -10 c-3 -7 -5 -2 -5 12 0 14 2 19 5 13 2
-7 2 -19 0 -25z m40 -20 c-3 -7 -5 -2 -5 12 0 14 2 19 5 13 2 -7 2 -19 0 -25z
m-3837 -27 c0 -9 -61 -22 -69 -15 -5 4 39 22 57 23 6 1 12 -3 12 -8z m-117
-57 c-18 -18 -45 -35 -58 -38 -15 -4 -33 -21 -44 -44 -20 -37 -20 -37 -21 -9
0 19 10 37 32 57 17 16 35 27 39 24 4 -2 11 2 16 10 4 7 17 16 28 18 13 2 19
10 17 22 -3 15 -1 16 11 5 12 -11 9 -18 -20 -45z m132 -14 c3 -5 1 -10 -4 -10
-6 0 -11 5 -11 10 0 6 2 10 4 10 3 0 8 -4 11 -10z m-56 -33 c-7 -7 -26 -14
-43 -15 l-31 -2 25 15 c33 19 66 20 49 2z m208 -23 c-3 -3 -12 -4 -19 -1 -8 3
-5 6 6 6 11 1 17 -2 13 -5z m-379 -48 c-21 -31 -49 -50 -70 -47 -5 1 -8 -4 -8
-11 0 -6 -3 -9 -6 -6 -7 8 25 58 38 58 5 0 6 -4 3 -10 -3 -5 -1 -10 5 -10 6 0
19 13 28 30 9 16 20 30 25 30 4 0 -3 -16 -15 -34z m103 -9 c-10 -9 -11 -8 -5
6 3 10 9 15 12 12 3 -3 0 -11 -7 -18z m3933 -8 c-3 -5 -12 -9 -21 -9 -12 0
-13 3 -4 13 6 8 7 18 3 23 -4 4 1 2 10 -5 10 -7 15 -17 12 -22z m-3599 11 c3
-6 -1 -7 -9 -4 -18 7 -21 14 -7 14 6 0 13 -4 16 -10z m-472 -69 c-12 -10 -19
-21 -16 -25 4 -3 1 -6 -5 -6 -7 0 -12 -7 -12 -15 0 -9 -16 -29 -35 -46 -19
-17 -35 -37 -35 -44 0 -7 -7 -18 -15 -25 -24 -20 -18 -1 17 54 36 57 98 125
113 125 6 0 0 -8 -12 -18z m101 -24 c-3 -8 -12 -18 -20 -21 -11 -4 -11 0 2 20
18 26 28 27 18 1z m2800 -3 c7 -19 -12 -47 -25 -38 -5 3 -9 16 -9 30 0 27 24
33 34 8z m-2996 -39 c-10 -23 -28 -34 -28 -18 0 7 31 43 36 43 2 0 -2 -11 -8
-25z m1267 -25 c-9 -16 -18 -30 -21 -30 -2 0 2 14 11 30 9 17 18 30 21 30 2 0
-2 -13 -11 -30z m392 -7 c-3 -10 -5 -4 -5 12 0 17 2 24 5 18 2 -7 2 -21 0 -30z
m2557 29 c2 -4 -3 -13 -12 -18 -13 -8 -21 -6 -34 8 -17 17 -17 18 11 18 17 0
32 -4 35 -8z m50 2 c9 -3 16 -10 16 -14 0 -10 -38 -1 -46 11 -6 10 7 12 30 3z
m-1482 -46 c-2 -10 1 -18 8 -18 9 0 10 -3 1 -13 -6 -8 -9 -16 -6 -19 3 -3 -2
-11 -12 -19 -11 -9 -14 -10 -9 -2 4 7 3 28 -3 47 -10 37 -8 43 13 43 8 0 11
-8 8 -19z m218 -51 c0 -45 -25 -12 -27 37 -3 40 -3 41 12 16 8 -14 14 -38 15
-53z m-3056 3 c-9 -23 -14 -43 -11 -46 3 -4 1 -18 -4 -33 l-9 -26 26 30 c25
29 25 29 19 5 -4 -14 -17 -33 -30 -42 -12 -10 -37 -42 -56 -73 -19 -30 -40
-55 -46 -55 -17 0 -16 5 4 43 9 18 18 45 19 60 2 16 12 41 23 55 10 15 21 37
25 49 7 21 43 73 52 73 2 0 -3 -18 -12 -40z m1732 -1 c-7 -46 -28 -83 -41 -71
-4 4 -5 -1 -2 -10 3 -10 2 -20 -3 -23 -6 -4 -10 8 -10 25 0 17 3 29 8 26 4 -2
6 14 4 36 -3 27 -1 38 6 34 6 -3 17 0 24 8 20 23 21 20 14 -25z m-1661 11 c3
-5 1 -10 -4 -10 -6 0 -11 5 -11 10 0 6 2 10 4 10 3 0 8 -4 11 -10z m407 -17
c-3 -16 -7 -22 -10 -15 -4 13 4 42 11 42 2 0 2 -12 -1 -27z m2421 -11 c4 -21
3 -31 -3 -27 -6 3 -10 20 -10 37 0 38 5 34 13 -10z m-2608 -51 c-8 -40 -15
-84 -14 -99 1 -26 1 -26 11 6 19 58 27 40 27 -62 0 -28 -2 -52 -4 -55 -3 -2
-5 25 -6 60 -1 60 -2 62 -11 29 -5 -19 -15 -65 -21 -102 -13 -72 -25 -97 -21
-45 1 18 -2 54 -7 80 -6 35 -5 57 5 80 11 28 23 76 42 166 3 13 7 21 10 19 2
-3 -2 -37 -11 -77z m32 57 c-3 -8 -6 -5 -6 6 -1 11 2 17 5 13 3 -3 4 -12 1
-19z m294 -40 c-8 -28 -9 -30 -10 -8 -1 34 12 80 17 58 2 -9 -1 -31 -7 -50z
m-114 20 c-3 -8 -6 -5 -6 6 -1 11 2 17 5 13 3 -3 4 -12 1 -19z m2868 12 c3 -5
-1 -10 -9 -10 -9 0 -16 5 -16 10 0 6 4 10 9 10 6 0 13 -4 16 -10z m-3515 -4
c0 -2 -7 -7 -16 -10 -8 -3 -12 -2 -9 4 6 10 25 14 25 6z m74 -17 c-3 -5 -10
-7 -15 -3 -5 3 -7 10 -3 15 3 5 10 7 15 3 5 -3 7 -10 3 -15z m663 -16 c-3 -10
-5 -4 -5 12 0 17 2 24 5 18 2 -7 2 -21 0 -30z m50 15 c-3 -8 -6 -5 -6 6 -1 11
2 17 5 13 3 -3 4 -12 1 -19z m-426 -35 c-12 -20 -14 -14 -5 12 4 9 9 14 11 11
3 -2 0 -13 -6 -23z m30 -16 c-10 -9 -11 -8 -5 6 3 10 9 15 12 12 3 -3 0 -11
-7 -18z m2826 -9 c-3 -7 -5 -2 -5 12 0 14 2 19 5 13 2 -7 2 -19 0 -25z m-2468
-37 c1 -35 -5 -22 -12 24 -5 28 -4 34 3 20 5 -11 9 -31 9 -44z m1128 27 c-3
-7 -5 -2 -5 12 0 14 2 19 5 13 2 -7 2 -19 0 -25z m-1635 0 c-7 -7 -12 -8 -12
-2 0 14 12 26 19 19 2 -3 -1 -11 -7 -17z m2549 -1 c-10 -9 -11 -8 -5 6 3 10 9
15 12 12 3 -3 0 -11 -7 -18z m-2592 -19 c-10 -35 -24 -54 -31 -41 -9 15 12 73
27 73 11 0 12 -7 4 -32z m588 10 c-3 -8 -6 -5 -6 6 -1 11 2 17 5 13 3 -3 4
-12 1 -19z m-427 -11 c0 -7 -10 -23 -21 -37 -17 -20 -19 -21 -14 -5 4 11 10
30 12 42 5 23 23 22 23 0z m-210 -7 c-6 -11 -15 -20 -21 -20 -6 0 -7 -6 -3
-12 5 -10 3 -10 -7 0 -12 11 -10 16 11 32 31 25 33 25 20 0z m591 -30 c6 0 7
-6 2 -12 -4 -7 -7 -31 -6 -53 2 -25 -4 -46 -15 -59 -9 -11 -11 -16 -4 -12 11
7 13 -3 8 -50 -4 -40 -3 -53 3 -39 13 28 13 2 0 -32 -6 -15 -11 -50 -12 -78 0
-29 -2 -38 -5 -21 -3 23 -6 26 -14 15 -7 -10 -7 -5 -2 16 4 17 5 44 3 60 -6
58 1 219 11 229 6 6 11 28 11 51 2 29 3 33 6 13 2 -16 9 -28 14 -28z m1079
-51 l-19 -74 2 55 c1 30 6 58 11 62 6 4 5 12 -2 20 -9 11 -9 17 0 26 24 24 27
-14 8 -89z m-1590 76 c0 -3 -4 -13 -9 -23 -42 -78 -67 -158 -37 -116 8 10 17
17 19 14 3 -3 -6 -18 -19 -33 l-24 -28 4 65 c4 55 2 64 -9 53 -15 -15 -59 -97
-75 -142 -9 -23 -13 -26 -20 -15 -6 9 -6 16 0 18 6 2 10 12 10 23 0 10 5 19
10 19 6 0 10 11 10 25 0 14 8 33 18 43 9 10 22 27 28 38 6 10 17 20 25 20 8 1
19 2 26 3 6 0 15 10 18 21 6 17 25 29 25 15z m141 -48 c-6 -6 -11 -21 -11 -34
0 -13 -4 -23 -10 -23 -14 0 -12 15 6 58 10 22 18 31 21 24 3 -8 0 -19 -6 -25z
m-412 -8 c-9 -5 -15 -4 -18 2 -2 6 3 15 10 20 9 5 15 4 18 -2 2 -6 -3 -15 -10
-20z m3278 -11 c-3 -7 -5 -2 -5 12 0 14 2 19 5 13 2 -7 2 -19 0 -25z m-3151
-33 c-3 -8 -10 -15 -15 -15 -7 0 -6 10 1 26 12 26 25 16 14 -11z m229 15 c3
-5 1 -10 -4 -10 -6 0 -11 5 -11 10 0 6 2 10 4 10 3 0 8 -4 11 -10z m2781 -23
c4 -12 20 -49 35 -83 16 -34 29 -68 29 -77 0 -9 4 -18 9 -21 5 -3 18 -37 30
-75 11 -37 28 -74 36 -81 8 -7 15 -21 15 -31 0 -10 5 -21 10 -24 6 -4 8 -11 5
-16 -4 -5 -1 -9 5 -9 6 0 8 -5 5 -10 -4 -6 -22 5 -42 25 -54 54 -153 178 -153
191 0 6 -6 17 -14 23 -8 7 -12 21 -8 33 3 12 1 19 -4 15 -6 -3 -11 5 -12 18
-1 13 3 27 8 30 6 3 10 11 10 16 0 6 -5 7 -11 3 -8 -4 -9 1 -4 17 10 33 15 36
26 16 6 -9 17 -17 25 -17 11 0 9 8 -10 33 -15 19 -26 39 -26 45 0 19 29 2 36
-21z m-3158 9 c-7 -8 -17 -12 -22 -9 -4 3 -2 9 5 14 22 13 31 11 17 -5z m433
-59 c-10 -29 -9 -30 4 -13 8 11 15 15 15 9 0 -5 -9 -20 -20 -33 -11 -13 -20
-33 -20 -44 0 -12 -6 -30 -14 -41 -7 -11 -17 -36 -21 -55 -9 -44 -46 -132 -53
-126 -7 8 -34 -23 -28 -33 8 -12 -38 -41 -66 -41 l-23 0 25 13 c13 7 32 28 41
47 44 89 61 132 55 137 -3 4 -6 -1 -6 -10 0 -9 -5 -17 -11 -17 -15 0 -1 41 24
68 14 15 16 22 7 22 -10 0 -10 4 2 18 9 9 19 32 23 49 3 18 11 36 17 39 6 4 8
-1 3 -15 -3 -11 -2 -21 3 -21 5 0 17 28 28 63 13 43 20 55 22 39 2 -13 -1 -38
-7 -55z m-82 19 c-7 -14 -16 -26 -21 -26 -5 0 -1 14 7 31 20 37 31 33 14 -5z
m54 4 c-3 -12 -8 -19 -11 -16 -5 6 5 36 12 36 2 0 2 -9 -1 -20z m334 -52 c-2
-13 -4 -5 -4 17 -1 22 1 32 4 23 2 -10 2 -28 0 -40z m-537 17 c0 -14 -4 -25
-9 -25 -4 0 -6 11 -3 25 2 14 6 25 8 25 2 0 4 -11 4 -25z m106 -30 c-3 -8 -1
-15 3 -15 5 0 12 6 14 13 4 9 6 9 6 -1 1 -11 -39 -34 -47 -27 -4 3 21 45 26
45 2 0 2 -7 -2 -15z m1541 -17 c-3 -8 -6 -5 -6 6 -1 11 2 17 5 13 3 -3 4 -12
1 -19z m1086 -49 c-8 -28 -26 -23 -21 6 3 13 1 22 -3 19 -5 -3 -9 7 -9 23 l0
28 19 -28 c10 -16 16 -37 14 -48z m-2709 36 c-3 -7 -14 -11 -25 -8 -10 3 -19
0 -19 -6 0 -6 -8 -11 -17 -11 -14 0 -13 4 6 24 23 25 64 25 55 1z m501 -26
c-5 -22 -3 -34 6 -40 7 -4 11 -10 8 -13 -2 -3 -11 -1 -18 3 -10 6 -12 19 -7
45 4 20 9 36 12 36 3 0 3 -14 -1 -31z m2239 15 c3 -8 2 -12 -4 -9 -6 3 -10 10
-10 16 0 14 7 11 14 -7z m-1133 -25 c-5 -13 -10 -19 -10 -12 -1 15 10 45 15
40 3 -2 0 -15 -5 -28z m-1532 -24 l0 -20 -9 20 c-5 11 -9 27 -9 35 -1 13 0 13
9 0 5 -8 9 -24 9 -35z m2440 -39 c-9 -8 -10 -5 -5 14 3 14 7 34 7 45 1 11 4 5
6 -14 3 -19 -1 -39 -8 -45z m-2569 54 c0 -5 -5 -10 -11 -10 -5 0 -7 5 -4 10 3
6 8 10 11 10 2 0 4 -4 4 -10z m249 -27 c0 -25 -1 -25 -8 -8 -5 11 -7 23 -4 28
8 14 13 7 12 -20z m2547 0 c-3 -8 -2 -12 2 -9 11 6 25 -4 45 -34 19 -27 23
-55 7 -45 -6 3 -7 -1 -4 -9 16 -41 -35 0 -63 51 -19 33 -17 74 3 66 8 -3 13
-12 10 -20z m-2806 -27 c0 -2 -7 -17 -15 -32 -15 -29 -22 -13 -9 20 5 14 24
23 24 12z m14 -67 c-8 -16 -17 -29 -20 -29 -4 0 0 55 5 67 1 1 8 0 16 -3 13
-5 13 -9 -1 -35z m1062 26 c-11 -8 -24 -15 -30 -15 -5 0 -1 7 10 15 10 8 24
14 29 14 6 0 1 -6 -9 -14z m1314 -15 c-6 -11 -12 -20 -14 -20 -3 0 -1 23 3 38
1 1 6 2 11 2 7 0 7 -6 0 -20z m-1890 -4 c0 -2 -8 -10 -17 -17 -16 -13 -17 -12
-4 4 13 16 21 21 21 13z m1860 -10 c0 -2 -8 -10 -17 -17 -16 -13 -17 -12 -4 4
13 16 21 21 21 13z m554 -11 c3 -8 1 -15 -3 -15 -5 0 -11 7 -15 15 -3 8 -1 15
3 15 5 0 11 -7 15 -15z m-2954 -3 c0 -5 -7 -17 -15 -28 -15 -19 -20 -8 -9 20
6 17 24 22 24 8z m2410 -6 c0 -2 -8 -10 -17 -17 -16 -13 -17 -12 -4 4 13 16
21 21 21 13z m-2398 -38 c-3 -13 -11 -27 -19 -31 -7 -4 -14 -25 -14 -45 -1
-20 -3 -29 -6 -19 -2 9 -8 17 -13 17 -4 0 -6 9 -3 20 3 11 9 20 13 20 4 0 13
14 20 30 14 35 31 40 22 8z m91 5 c-3 -10 -12 -25 -18 -33 -7 -8 -15 -22 -18
-30 -5 -13 -6 -13 -6 0 -1 15 35 80 44 80 2 0 2 -8 -2 -17z m2267 8 c0 -6 -4
-12 -8 -15 -5 -3 -9 1 -9 9 0 8 4 15 9 15 4 0 8 -4 8 -9z m666 -58 c41 -44 63
-74 60 -85 -2 -10 1 -18 7 -18 6 0 7 -3 4 -6 -10 -10 -57 25 -57 42 0 9 -5 12
-12 8 -7 -4 -8 -3 -4 5 4 6 0 14 -8 17 -9 3 -24 23 -33 43 -9 20 -24 41 -33
48 -12 10 -12 12 -1 13 7 0 42 -30 77 -67z m-3172 -41 c-6 -32 -34 -46 -34
-17 0 8 5 15 11 15 6 0 8 7 5 16 -8 20 3 39 15 27 5 -5 6 -24 3 -41z m3241 28
c10 -11 16 -20 13 -20 -3 0 -13 9 -23 20 -10 11 -16 20 -13 20 3 0 13 -9 23
-20z m-3060 -49 c-3 -12 -11 -21 -16 -21 -15 0 -10 -37 6 -44 13 -5 20 9 17
35 -1 8 48 22 55 16 2 -3 3 -27 1 -53 -3 -46 -4 -48 -16 -24 -11 23 -11 22 -6
-14 6 -37 6 -38 -16 -26 -18 10 -21 9 -18 -2 3 -7 11 -13 19 -13 8 0 14 -8 14
-17 0 -9 3 -20 7 -23 10 -10 -15 -33 -29 -28 -22 9 -14 -13 10 -26 22 -11 22
-11 -3 -5 -14 4 -27 11 -28 15 -2 5 -8 7 -13 3 -5 -3 -9 0 -9 5 0 6 5 11 12
11 6 0 1 11 -12 25 -16 17 -26 21 -31 14 -8 -13 -29 20 -29 45 0 18 16 21 25
6 3 -5 1 -10 -4 -10 -6 0 -11 -5 -11 -11 0 -8 7 -6 22 3 22 15 36 58 18 58 -6
0 -10 -3 -10 -7 0 -5 -11 -8 -24 -8 -20 0 -22 3 -13 22 5 13 17 25 26 28 9 3
25 21 35 40 20 37 32 40 21 6z m3108 -6 c23 -32 17 -32 -13 0 -13 14 -19 25
-14 25 5 0 17 -12 27 -25z m31 -67 c69 -54 131 -111 138 -130 4 -10 5 -18 2
-18 -11 0 -60 37 -78 58 -10 13 -21 21 -24 17 -7 -7 -62 45 -62 59 0 5 -7 18
-17 28 -25 28 -5 21 41 -14z m-3274 -13 c-7 -9 -15 -13 -19 -10 -3 3 1 10 9
15 21 14 24 12 10 -5z m1980 -24 c0 -5 -7 -12 -16 -15 -14 -5 -15 -4 -4 9 14
17 20 19 20 6z m-1954 -27 c-4 -9 -9 -15 -11 -12 -3 3 -3 13 1 22 4 9 9 15 11
12 3 -3 3 -13 -1 -22z m3420 -21 c-7 -7 -26 7 -26 19 0 6 6 6 15 -2 9 -7 13
-15 11 -17z m-3484 -38 c3 -14 1 -25 -3 -25 -5 0 -9 11 -9 25 0 14 2 25 4 25
2 0 6 -11 8 -25z m3608 -25 c13 -9 13 -10 0 -11 -10 0 -9 -3 5 -10 17 -7 17
-8 2 -6 -10 1 -17 6 -17 11 1 5 -4 13 -12 17 -7 5 -8 9 -3 9 6 0 17 -5 25 -10z
m-3684 -57 c-7 -7 -26 7 -26 19 0 6 6 6 15 -2 9 -7 13 -15 11 -17z m3829 5 c7
-7 -6 -9 -44 -5 -30 4 -59 12 -65 18 -8 9 3 10 44 5 30 -4 60 -12 65 -18z
m1013 -32 c1 -17 7 -82 13 -144 6 -63 8 -117 4 -120 -4 -4 -15 3 -25 16 -14
16 -18 36 -16 75 1 28 -2 66 -7 82 -14 46 -27 127 -22 136 3 4 15 2 28 -4 16
-7 24 -20 25 -41z m-1280 4 c6 0 12 -6 12 -14 0 -18 -62 -6 -68 13 -3 10 2 12
19 8 13 -4 30 -7 37 -7z m-3574 -6 c9 -3 16 -15 16 -26 0 -11 8 -22 19 -25 11
-3 22 -15 26 -26 4 -14 8 -17 12 -9 11 28 37 -3 48 -58 1 -8 8 -14 15 -12 6 1
9 -2 5 -8 -4 -6 5 -26 19 -44 14 -19 22 -36 19 -40 -4 -3 -1 -6 5 -6 17 0 15
10 -5 33 -10 11 -12 17 -5 13 12 -7 62 -80 62 -91 0 -3 -6 -5 -13 -5 -14 0
-117 99 -117 112 0 4 -6 8 -14 8 -8 0 -16 10 -20 23 -8 31 -63 90 -69 73 -16
-40 37 -133 101 -176 18 -13 31 -24 29 -26 -9 -9 -77 34 -86 55 -10 20 -14 21
-29 10 -13 -10 -14 -10 -6 0 9 9 6 23 -9 54 -17 35 -34 177 -22 177 2 0 10 -3
19 -6z m4016 -194 c13 -9 13 -10 0 -10 -8 0 -22 5 -30 10 -13 9 -13 10 0 10 8
0 22 -5 30 -10z m-4027 -28 c-4 -18 -8 -20 -19 -11 -19 15 -18 30 1 23 8 -4
15 -1 15 7 0 7 2 10 5 8 2 -3 2 -15 -2 -27z m1147 -16 l45 -15 -43 0 c-24 -1
-41 3 -37 8 3 5 -3 12 -12 14 -10 3 -13 5 -8 6 6 0 30 -6 55 -13z m-1115 -26
c3 -6 -1 -7 -9 -4 -18 7 -21 14 -7 14 6 0 13 -4 16 -10z m2224 -16 c2 -2 -10
-4 -27 -4 -18 0 -32 5 -32 10 0 9 47 4 59 -6z m1628 10 c-3 -3 -12 -4 -19 -1
-8 3 -5 6 6 6 11 1 17 -2 13 -5z m-2760 -10 c-3 -3 -12 -4 -19 -1 -8 3 -5 6 6
6 11 1 17 -2 13 -5z m-909 -63 c13 -14 20 -19 16 -11 -4 9 2 7 17 -6 31 -27
54 -41 45 -26 -3 6 -2 13 3 16 5 4 12 -2 15 -11 8 -25 56 -74 66 -68 4 3 11
-2 14 -11 5 -12 2 -15 -10 -10 -8 3 -24 6 -34 6 -10 0 -20 9 -23 20 -4 17 -11
19 -31 14 -14 -3 -26 -2 -26 2 0 5 -16 20 -36 33 -19 13 -43 36 -54 51 -17 24
-17 27 -3 27 9 0 28 -12 41 -26z m3902 14 c7 -9 8 -15 2 -15 -5 0 -12 7 -16
15 -3 8 -4 15 -2 15 2 0 9 -7 16 -15z m-2900 -75 c-8 -5 -22 -10 -30 -10 -13
0 -13 1 0 10 8 5 22 10 30 10 13 0 13 -1 0 -10z m-999 -9 c-11 -7 -4 -12 27
-20 58 -16 58 -26 -2 -29 -30 -1 -46 1 -38 6 10 7 10 11 -3 22 -13 11 -13 15
-3 21 7 5 18 9 23 9 6 0 4 -4 -4 -9z m959 -21 c0 -5 -7 -10 -15 -10 -8 0 -15
5 -15 10 0 6 7 10 15 10 8 0 15 -4 15 -10z m305 -20 c3 -5 1 -10 -4 -10 -6 0
-11 5 -11 10 0 6 2 10 4 10 3 0 8 -4 11 -10z m-21 -19 c3 -5 -3 -11 -13 -14
-12 -3 -22 1 -25 9 -6 16 29 20 38 5z m-1362 -14 c-24 -7 -36 -7 -44 1 -9 9
-1 12 33 11 l44 -1 -33 -11z m128 -17 c-8 -5 -22 -10 -30 -10 -13 0 -13 1 0
10 8 5 22 10 30 10 13 0 13 -1 0 -10z m2155 -8 c-3 -3 -11 0 -18 7 -9 10 -8
11 6 5 10 -3 15 -9 12 -12z m-811 -67 c3 -8 1 -15 -3 -15 -5 0 -12 6 -14 13
-3 6 -6 3 -6 -8 -1 -16 -3 -17 -11 -5 -6 9 -5 17 3 22 18 11 24 10 31 -7z m90
-2 c12 -30 -27 -37 -61 -10 -22 17 -14 27 21 27 22 0 36 -6 40 -17z m42 -9
c-4 -9 -9 -15 -11 -12 -3 3 -3 13 1 22 4 9 9 15 11 12 3 -3 3 -13 -1 -22z
m-384 -58 c6 -9 -3 -45 -12 -45 -3 1 -24 -18 -48 -40 -24 -23 -49 -41 -57 -41
-8 0 -15 -4 -15 -10 0 -5 -13 -16 -30 -25 -37 -19 -37 -16 -4 43 52 93 139
155 166 118z m3686 -18 c17 -17 15 -38 -3 -38 -8 0 -15 4 -15 9 0 5 -3 16 -6
25 -7 19 7 21 24 4z m-1329 -17 c4 -7 12 -11 17 -10 23 4 55 -16 60 -38 8 -32
-34 -69 -91 -79 -22 -3 -46 -15 -53 -26 -10 -14 -17 -16 -26 -9 -9 8 -13 7
-13 -4 0 -8 7 -15 16 -16 9 0 5 -5 -9 -10 -14 -6 -40 -7 -59 -4 l-34 6 31 19
c36 22 77 90 86 142 4 20 12 39 19 41 19 8 48 2 56 -12z m-2049 -21 c0 -5 -4
-10 -10 -10 -5 0 -10 5 -10 10 0 6 5 10 10 10 6 0 10 -4 10 -10z m1642 -83
c38 -65 65 -80 144 -78 l65 1 -27 -25 c-30 -27 -39 -32 -28 -12 5 8 2 8 -9 -2
-15 -11 -17 -11 -17 2 0 8 -9 17 -19 20 -15 4 -20 -2 -26 -27 -6 -30 -7 -30
-16 -8 -5 13 -7 28 -3 33 3 5 0 9 -5 9 -6 0 -12 -8 -12 -17 -1 -16 -2 -16 -6
-2 -2 10 -13 19 -25 22 -11 3 -17 10 -14 15 3 5 -12 12 -33 16 -21 3 -41 12
-44 19 -3 7 0 37 6 67 10 51 11 52 26 33 9 -11 28 -41 43 -66z m-1874 -11 c25
-55 35 -96 22 -96 -5 0 -10 4 -10 9 0 8 -37 19 -94 27 -37 5 -40 8 -32 38 6
24 55 63 81 63 8 0 23 -19 33 -41z m3746 8 c26 -10 18 -24 -14 -24 -20 0 -30
5 -30 15 0 16 17 19 44 9z m-2019 -14 c-3 -5 -13 -10 -21 -10 -8 0 -12 5 -9
10 3 6 13 10 21 10 8 0 12 -4 9 -10z m2105 -10 c0 -13 -12 -19 -26 -13 -21 8
-17 19 6 19 11 0 20 -3 20 -6z m-3240 -45 c0 -8 -7 -15 -16 -15 -14 0 -14 3
-4 15 7 8 14 15 16 15 2 0 4 -7 4 -15z m-2228 -17 c-9 -9 -15 -9 -24 0 -9 9
-7 12 12 12 19 0 21 -3 12 -12z m3535 -25 c13 -20 12 -20 -34 -16 -58 4 -62 8
-26 26 34 18 42 17 60 -10z m188 7 c3 -5 1 -10 -4 -10 -6 0 -11 5 -11 10 0 6
2 10 4 10 3 0 8 -4 11 -10z m-80 -40 c3 -5 1 -10 -4 -10 -6 0 -11 5 -11 10 0
6 2 10 4 10 3 0 8 -4 11 -10z m131 -57 c-3 -4 -6 -1 -6 6 0 7 -4 9 -10 6 -6
-4 -7 1 -3 11 6 15 7 15 15 -1 6 -9 7 -19 4 -22z m64 -13 c0 -13 -12 -19 -26
-13 -8 3 -12 8 -9 12 5 10 35 10 35 1z m-3233 -196 c-3 -3 -12 -4 -19 -1 -8 3
-5 6 6 6 11 1 17 -2 13 -5z m43 -365 c0 -5 -10 -9 -21 -9 -18 0 -19 2 -9 15
12 15 30 12 30 -6z m312 -1267 c-6 -2 -8 -10 -5 -18 3 -8 1 -14 -4 -14 -20 0
-22 13 -5 35 9 13 19 18 21 12 2 -6 -1 -13 -7 -15z m-62 -46 c0 -8 -4 -17 -9
-20 -10 -7 -23 19 -14 28 11 11 23 6 23 -8z m37 -53 c-9 -2 -14 -9 -11 -15 4
-7 2 -8 -5 -4 -15 10 -4 26 17 25 15 -1 15 -2 -1 -6z m47 -31 c2 -4 -4 -9 -15
-9 -11 -1 -17 2 -14 8 7 11 22 12 29 1z m63 -378 c-8 -76 -47 -88 -47 -15 0
39 14 61 38 61 11 0 13 -10 9 -46z"/>
<path d="M6585 9360 c3 -5 11 -10 16 -10 6 0 7 5 4 10 -3 6 -11 10 -16 10 -6
0 -7 -4 -4 -10z"/>
<path d="M6952 9301 c-11 -6 -10 -10 4 -15 20 -8 32 0 18 14 -5 5 -15 5 -22 1z"/>
<path d="M6365 7750 c-3 -5 -1 -10 4 -10 6 0 11 5 11 10 0 6 -2 10 -4 10 -3 0
-8 -4 -11 -10z"/>
<path d="M3605 7771 c-3 -5 -1 -12 5 -16 5 -3 10 1 10 9 0 18 -6 21 -15 7z"/>
<path d="M3578 7675 c-3 -14 -1 -25 3 -25 5 0 9 11 9 25 0 14 -2 25 -4 25 -2
0 -6 -11 -8 -25z"/>
<path d="M5756 9552 c-2 -4 12 -8 32 -9 20 0 51 -4 67 -7 28 -7 29 -7 11 8
-20 17 -101 22 -110 8z"/>
<path d="M5426 9524 c-24 -23 -19 -27 9 -8 14 9 25 18 25 20 0 10 -20 3 -34
-12z"/>
<path d="M5160 9500 c-9 -6 -10 -10 -3 -10 6 0 15 5 18 10 8 12 4 12 -15 0z"/>
<path d="M4488 9363 c7 -3 16 -2 19 1 4 3 -2 6 -13 5 -11 0 -14 -3 -6 -6z"/>
<path d="M7770 8774 c0 -8 4 -12 10 -9 5 3 12 -7 16 -22 9 -44 12 -50 13 -26
1 29 -16 73 -29 73 -5 0 -10 -7 -10 -16z"/>
<path d="M7790 8566 c0 -14 4 -27 8 -30 5 -3 6 8 4 25 -5 35 -12 38 -12 5z"/>
<path d="M7690 8425 c-22 -23 -18 -34 6 -17 10 6 27 42 20 42 -1 0 -13 -11
-26 -25z"/>
<path d="M3385 8379 c-11 -16 -1 -19 13 -3 7 8 8 14 3 14 -5 0 -13 -5 -16 -11z"/>
<path d="M7823 8213 c9 -2 23 -2 30 0 6 3 -1 5 -18 5 -16 0 -22 -2 -12 -5z"/>
<path d="M6654 8023 c11 -13 26 -23 35 -22 14 0 14 1 1 6 -8 3 -24 13 -35 22
-20 16 -20 16 -1 -6z"/>
<path d="M7760 8012 c0 -5 16 -16 35 -25 19 -9 35 -22 35 -29 0 -6 3 -9 6 -5
3 3 16 -3 27 -14 12 -11 33 -23 47 -26 14 -3 41 -20 60 -36 l34 -30 12 29 c11
26 10 31 -14 51 -33 26 -39 23 -17 -11 10 -14 13 -26 8 -26 -14 0 -44 35 -37
42 3 3 -10 6 -28 5 -22 -1 -46 8 -69 25 -44 33 -99 61 -99 50z"/>
<path d="M6740 7989 c0 -5 5 -7 10 -4 6 3 10 8 10 11 0 2 -4 4 -10 4 -5 0 -10
-5 -10 -11z"/>
<path d="M7916 7983 c-26 -14 -27 -16 -12 -25 10 -5 18 -8 19 -6 1 1 8 13 15
26 7 12 11 22 10 22 -2 -1 -16 -8 -32 -17z"/>
<path d="M6820 7980 c0 -5 5 -10 11 -10 5 0 7 5 4 10 -3 6 -8 10 -11 10 -2 0
-4 -4 -4 -10z"/>
<path d="M7015 7980 c-19 -8 -19 -9 3 -9 12 -1 22 4 22 9 0 6 -1 10 -2 9 -2 0
-12 -4 -23 -9z"/>
<path d="M6851 7975 c8 -7 129 -9 136 -2 3 4 -27 7 -67 7 -40 0 -71 -2 -69 -5z"/>
<path d="M7951 7971 c-8 -5 -9 -11 -3 -15 14 -8 43 4 36 15 -7 11 -15 11 -33
0z"/>
<path d="M7895 7860 c3 -5 11 -10 16 -10 6 0 7 5 4 10 -3 6 -11 10 -16 10 -6
0 -7 -4 -4 -10z"/>
<path d="M8031 7848 c8 -7 21 -21 28 -30 12 -15 11 -18 -3 -18 -10 0 -15 4
-12 9 3 5 -2 15 -11 22 -13 11 -15 11 -9 1 6 -10 0 -12 -31 -8 l-38 5 39 -12
c22 -8 42 -19 44 -25 2 -7 8 -10 13 -7 5 3 17 1 28 -5 21 -10 51 -4 51 11 0 5
-3 8 -7 7 -9 -3 -63 49 -57 54 1 2 -9 5 -23 6 -23 2 -25 0 -12 -10z"/>
<path d="M3125 7789 c-11 -17 1 -21 15 -4 8 9 8 15 2 15 -6 0 -14 -5 -17 -11z"/>
<path d="M3080 7725 c-11 -21 -11 -27 0 -38 10 -9 11 -9 6 1 -4 6 -2 12 3 12
6 0 11 5 11 11 0 7 8 18 18 25 16 12 16 13 -4 14 -12 0 -26 -10 -34 -25z"/>
<path d="M3256 7673 c-6 -14 -5 -15 5 -6 7 7 10 15 7 18 -3 3 -9 -2 -12 -12z"/>
<path d="M3077 7663 c-4 -3 -7 -11 -7 -17 0 -6 5 -5 12 2 6 6 9 14 7 17 -3 3
-9 2 -12 -2z"/>
<path d="M3186 7627 c-8 -19 -19 -38 -25 -41 -12 -8 -15 -46 -3 -46 12 0 61
109 51 115 -4 3 -15 -10 -23 -28z"/>
<path d="M8210 7611 c0 -5 6 -14 14 -21 12 -9 15 -8 13 9 -1 20 -27 31 -27 12z"/>
<path d="M3083 7518 c-4 -7 -8 -17 -8 -23 -1 -5 -4 -17 -6 -25 -14 -38 -39
-118 -39 -124 0 -3 6 -6 13 -6 17 0 49 34 41 43 -8 8 5 47 17 47 5 0 9 -8 9
-17 1 -17 40 51 40 68 0 16 -28 -3 -33 -22 -3 -10 -10 -19 -16 -19 -12 0 -15
33 -4 44 10 9 11 46 2 46 -4 0 -11 -6 -16 -12z"/>
<path d="M8197 7499 c7 -7 15 -10 18 -7 3 3 -2 9 -12 12 -14 6 -15 5 -6 -5z"/>
<path d="M8266 7494 c-8 -21 -8 -24 3 -24 12 0 22 28 12 35 -5 3 -12 -2 -15
-11z"/>
<path d="M5957 7403 c-4 -3 -7 -18 -6 -32 1 -26 1 -25 10 3 9 31 7 41 -4 29z"/>
<path d="M6341 7334 c0 -11 3 -14 6 -6 3 7 2 16 -1 19 -3 4 -6 -2 -5 -13z"/>
<path d="M3030 7306 c0 -8 5 -18 11 -21 6 -4 8 -14 5 -22 -3 -8 -1 -11 4 -8 6
4 8 17 6 30 -3 16 1 25 12 28 10 3 5 5 -10 6 -18 1 -28 -4 -28 -13z"/>
<path d="M5690 7285 c13 -14 26 -25 28 -25 3 0 -5 11 -18 25 -13 14 -26 25
-28 25 -3 0 5 -11 18 -25z"/>
<path d="M6770 7306 c0 -2 9 -6 20 -9 11 -3 18 -1 14 4 -5 9 -34 13 -34 5z"/>
<path d="M6939 7303 c-1 -5 -2 -14 -3 -21 0 -7 -8 -17 -16 -22 -12 -8 -11 -10
8 -10 18 0 22 6 22 30 0 26 -8 43 -11 23z"/>
<path d="M5737 7239 c4 -13 59 -34 70 -25 1 1 -15 11 -36 22 -35 19 -38 19
-34 3z"/>
<path d="M2946 7185 c-17 -27 -21 -55 -7 -55 12 0 41 46 41 65 0 23 -16 18
-34 -10z"/>
<path d="M5828 7203 c7 -3 16 -2 19 1 4 3 -2 6 -13 5 -11 0 -14 -3 -6 -6z"/>
<path d="M7154 7188 l-19 -23 23 19 c21 18 27 26 19 26 -2 0 -12 -10 -23 -22z"/>
<path d="M2896 7103 c-6 -14 -5 -15 5 -6 7 7 10 15 7 18 -3 3 -9 -2 -12 -12z"/>
<path d="M2970 7111 c0 -6 4 -12 8 -15 5 -3 9 1 9 9 0 8 -4 15 -9 15 -4 0 -8
-4 -8 -9z"/>
<path d="M6960 7102 c0 -5 11 -14 25 -20 14 -6 25 -10 25 -8 0 2 -11 11 -25
20 -14 9 -25 13 -25 8z"/>
<path d="M2870 7040 c0 -6 7 -10 15 -10 8 0 15 2 15 4 0 2 -7 6 -15 10 -8 3
-15 1 -15 -4z"/>
<path d="M2920 7010 c0 -5 5 -10 11 -10 5 0 7 5 4 10 -3 6 -8 10 -11 10 -2 0
-4 -4 -4 -10z"/>
<path d="M6077 6990 c-3 -11 -1 -23 4 -26 5 -3 9 6 9 20 0 31 -6 34 -13 6z"/>
<path d="M7115 6800 c27 -12 43 -12 25 0 -8 5 -22 9 -30 9 -10 0 -8 -3 5 -9z"/>
<path d="M5853 6785 c0 -8 4 -12 9 -9 5 3 6 10 3 15 -9 13 -12 11 -12 -6z"/>
<path d="M2933 6771 c-13 -11 -23 -21 -23 -24 0 -5 83 3 89 8 5 5 -26 35 -36
35 -4 -1 -18 -9 -30 -19z"/>
<path d="M7187 6759 c7 -7 15 -10 18 -7 3 3 -2 9 -12 12 -14 6 -15 5 -6 -5z"/>
<path d="M5860 6730 c0 -5 5 -10 11 -10 5 0 7 5 4 10 -3 6 -8 10 -11 10 -2 0
-4 -4 -4 -10z"/>
<path d="M7220 6726 c0 -2 9 -6 20 -9 11 -3 20 -1 20 4 0 5 -9 9 -20 9 -11 0
-20 -2 -20 -4z"/>
<path d="M4033 6645 c10 -21 18 -25 52 -24 l40 2 -40 6 c-36 6 -38 7 -16 15
18 6 21 10 10 17 -8 5 -24 9 -36 9 -19 0 -20 -2 -10 -25z"/>
<path d="M2876 6644 c-9 -9 -29 -19 -44 -23 -27 -7 -44 -41 -21 -41 12 0 119
69 119 77 0 10 -41 1 -54 -13z"/>
<path d="M5560 6630 c0 -5 5 -10 11 -10 5 0 7 5 4 10 -3 6 -8 10 -11 10 -2 0
-4 -4 -4 -10z"/>
<path d="M5423 6369 c15 -23 26 -25 23 -2 -2 9 -10 17 -19 19 -13 2 -14 -1 -4
-17z"/>
<path d="M2740 6345 c0 -8 -4 -15 -10 -15 -5 0 -10 -5 -10 -10 0 -7 14 -8 38
-4 51 9 58 15 37 31 -25 17 -55 17 -55 -2z"/>
<path d="M4940 6340 c0 -5 5 -10 10 -10 6 0 10 5 10 10 0 6 -4 10 -10 10 -5 0
-10 -4 -10 -10z"/>
<path d="M4865 6180 c-4 -6 -11 -7 -17 -4 -7 4 -8 2 -4 -4 7 -12 36 -5 36 9 0
12 -7 11 -15 -1z"/>
<path d="M3631 6024 c0 -11 3 -14 6 -6 3 7 2 16 -1 19 -3 4 -6 -2 -5 -13z"/>
<path d="M2726 5855 c-22 -23 -11 -106 20 -153 27 -39 30 -34 37 45 3 38 1 50
-9 46 -6 -2 -15 0 -19 6 -3 6 -1 11 5 11 7 0 9 8 5 23 -11 34 -21 40 -39 22z"/>
<path d="M5244 5565 c-9 -19 -16 -50 -16 -70 0 -19 -5 -35 -11 -35 -7 0 -7 -4
1 -12 10 -9 15 -9 27 2 25 26 52 91 47 115 -7 38 -30 38 -48 0z"/>
<path d="M3605 5470 c-3 -5 -1 -10 4 -10 6 0 11 5 11 10 0 6 -2 10 -4 10 -3 0
-8 -4 -11 -10z"/>
<path d="M5851 5351 c-7 -5 -31 -9 -52 -9 -21 -1 -45 -4 -51 -9 -22 -13 -51
-14 -61 -1 -6 9 -7 7 -3 -6 5 -14 2 -17 -10 -12 -15 6 -15 4 -3 -11 9 -11 10
-14 1 -9 -7 4 -15 1 -18 -9 -13 -32 73 -68 103 -43 7 6 13 7 13 2 0 -5 7 -1
14 9 11 15 15 15 19 3 6 -16 47 -11 47 6 0 5 3 7 8 5 12 -6 37 26 38 51 1 12
-4 22 -11 22 -8 0 -15 4 -17 10 -2 5 -9 6 -17 1z"/>
<path d="M7825 5304 c-71 -36 -114 -40 -181 -19 -25 8 -40 -18 -20 -34 15 -13
112 -17 144 -6 29 8 104 58 122 80 17 20 16 20 -65 -21z"/>
<path d="M6010 5291 c-95 -35 -149 -63 -150 -77 0 -6 -17 -17 -37 -25 -43 -17
-49 -16 -189 42 -147 61 -302 77 -332 34 -4 -6 -19 -18 -34 -28 -16 -10 -28
-25 -28 -35 0 -10 -9 -3 -25 20 -14 20 -25 42 -25 47 0 15 -17 14 -17 -1 -1
-17 -10 -63 -18 -87 -3 -10 1 -23 9 -30 8 -7 18 -26 21 -42 5 -20 13 -29 26
-29 10 0 19 -4 19 -9 0 -12 74 -30 142 -33 20 -2 34 -6 32 -10 -8 -13 17 -20
31 -8 12 10 15 10 15 1 0 -8 9 -10 23 -7 12 3 16 3 10 0 -21 -9 -15 -26 7 -19
14 5 20 2 20 -10 0 -12 5 -13 18 -7 21 10 77 1 74 -13 -1 -5 4 -10 11 -10 6 0
15 -4 19 -10 5 -6 12 -5 19 2 10 10 17 9 33 -5 11 -9 16 -11 12 -4 -5 7 -1 12
11 13 24 2 25 2 46 -6 10 -4 17 -3 17 5 0 6 -5 8 -12 4 -7 -4 -8 -3 -4 4 4 6
13 9 21 6 8 -3 28 8 45 26 26 26 38 31 65 28 18 -2 32 -1 29 3 -2 4 4 13 13
20 14 12 16 12 8 0 -6 -10 -4 -12 4 -6 7 4 11 16 8 26 -3 11 -1 19 5 19 5 0 6
5 3 10 -3 6 -1 10 6 10 7 0 9 3 6 6 -4 4 2 19 13 34 15 21 28 27 59 28 31 1
41 -2 41 -13 0 -9 -6 -18 -14 -21 -8 -3 -16 -14 -19 -24 -4 -15 0 -18 27 -14
118 14 161 35 168 83 5 34 -3 39 -23 15 -15 -18 -69 -47 -75 -41 -3 3 1 11 9
18 27 28 67 94 67 112 0 44 -102 48 -210 8z"/>
<path d="M7615 5220 c3 -5 8 -10 11 -10 2 0 4 5 4 10 0 6 -5 10 -11 10 -5 0
-7 -4 -4 -10z"/>
<path d="M7467 4852 c-15 -9 -25 -22 -23 -29 3 -7 -1 -10 -9 -7 -15 6 -61 -21
-59 -34 1 -4 0 -11 -1 -17 -2 -5 -10 -41 -20 -80 -29 -123 -96 -317 -147 -430
-72 -160 -72 -158 -48 -145 11 6 37 11 57 12 21 0 49 5 63 10 39 15 72 20 66
10 -6 -11 -41 -24 -104 -42 -55 -14 -47 -25 16 -21 72 4 180 68 222 130 14 21
37 51 53 66 18 18 27 38 27 59 0 17 7 44 15 60 20 37 20 76 0 76 -16 0 -21 25
-7 34 12 7 14 140 2 171 -5 14 -12 40 -15 58 -5 27 -51 138 -58 137 -1 0 -14
-8 -30 -18z m-51 -167 c3 -14 3 -46 -1 -71 -5 -35 -9 -44 -18 -35 -11 11 -18
95 -9 119 7 20 21 14 28 -13z m-41 -465 c-3 -5 -22 -14 -43 -20 -45 -12 -52
-12 -52 -1 0 5 17 13 38 19 50 13 64 14 57 2z m35 -59 c0 -5 -9 -11 -21 -14
-16 -4 -18 -3 -8 9 13 16 29 19 29 5z"/>
<path d="M5435 4840 c-3 -6 1 -7 9 -4 18 7 21 14 7 14 -6 0 -13 -4 -16 -10z"/>
<path d="M5257 4769 c7 -7 15 -10 18 -7 3 3 -2 9 -12 12 -14 6 -15 5 -6 -5z"/>
<path d="M5140 4760 c-8 -5 -10 -10 -5 -10 6 0 17 5 25 10 8 5 11 10 5 10 -5
0 -17 -5 -25 -10z"/>
<path d="M4971 4722 c-12 -13 -12 -14 0 -10 8 3 21 2 30 -3 11 -6 21 -4 29 6
8 9 8 15 2 15 -6 0 -12 -5 -14 -11 -3 -8 -9 -7 -19 3 -13 13 -16 13 -28 0z"/>
<path d="M5244 4730 c-12 -5 -25 -14 -29 -20 -4 -7 7 -4 24 4 17 9 31 19 31
21 0 6 1 6 -26 -5z"/>
<path d="M6473 4689 c-24 -25 -43 -49 -43 -53 0 -16 -58 -57 -95 -67 -22 -6
-57 -18 -77 -26 -37 -16 -68 -12 -68 7 0 5 9 10 20 10 11 0 20 5 20 10 0 6 -8
10 -17 10 -10 0 -30 7 -45 14 -16 8 -45 17 -65 21 -58 9 -112 25 -117 34 -9
14 -96 12 -96 -2 0 -9 -2 -9 -8 0 -6 9 -22 9 -71 -1 -52 -11 -74 -11 -115 -1
-28 7 -58 13 -66 14 -8 0 -29 3 -46 7 -22 4 -58 -4 -120 -26 -49 -18 -98 -32
-109 -33 -11 0 -23 -5 -27 -11 -4 -6 -17 -11 -30 -12 -13 -1 -35 -6 -50 -13
-21 -8 -28 -8 -28 1 0 7 -5 5 -12 -4 -7 -9 -25 -19 -41 -22 -22 -5 -29 -2 -37
16 -5 13 -9 18 -9 13 -1 -6 -14 -11 -31 -10 -29 0 -39 11 -54 58 -3 11 -15 21
-26 24 -11 3 -17 10 -13 17 4 6 -2 4 -12 -4 -15 -12 -17 -12 -10 -1 6 11 3 13
-13 8 -12 -4 -32 -9 -44 -12 -18 -4 -19 -4 -5 3 10 4 18 12 17 17 -1 5 4 11
12 13 9 2 8 0 -2 -8 -13 -10 -12 -11 3 -6 10 3 21 6 23 6 3 0 -1 6 -8 14 -7 7
-19 11 -27 8 -9 -3 -12 -1 -7 6 5 8 1 10 -10 5 -11 -4 -13 -8 -6 -11 9 -3 8
-9 -3 -25 -8 -12 -15 -30 -15 -40 0 -10 -4 -16 -8 -13 -14 8 -52 -33 -52 -55
0 -11 -4 -18 -9 -14 -6 3 -14 -2 -19 -11 -5 -9 -12 -15 -15 -15 -23 3 -27 0
-18 -16 5 -10 14 -30 21 -44 9 -21 19 -26 58 -28 25 -1 52 -7 58 -12 7 -5 16
-9 20 -7 5 1 25 -4 44 -11 19 -8 38 -15 43 -16 4 -1 8 -4 10 -5 6 -7 47 -6 47
0 0 9 26 7 36 -2 3 -4 16 -3 28 1 40 15 96 12 103 -6 6 -14 7 -14 19 1 6 9 21
18 32 19 11 0 19 4 16 9 -2 4 4 12 15 18 17 9 20 8 15 -5 -7 -17 16 -17 28 -1
10 15 50 18 42 4 -5 -10 -4 -10 5 -2 7 7 29 8 59 4 26 -4 52 -5 59 -3 7 3 13
0 13 -6 0 -16 25 -14 40 4 7 8 17 12 22 9 6 -4 5 -10 -3 -16 -9 -5 -3 -6 16
-2 17 4 35 10 40 14 6 5 33 10 60 12 28 2 55 7 62 11 6 4 14 3 17 -2 4 -5 17
-8 31 -6 14 1 28 -2 31 -7 3 -5 11 -4 19 2 12 10 65 -2 65 -15 0 -4 -4 -3 -10
0 -5 3 -10 1 -10 -4 0 -6 7 -11 15 -11 8 0 15 4 15 8 0 9 59 32 84 32 9 0 14
4 11 10 -4 6 6 8 24 6 17 -2 31 1 31 5 0 5 11 9 24 9 12 0 38 5 56 11 25 9 49
9 101 -1 66 -13 72 -12 113 9 58 29 159 18 171 -19 7 -21 62 -23 83 -2 8 7 17
10 22 7 13 -8 18 18 8 39 -6 10 -8 32 -5 49 3 26 2 28 -9 13 -11 -15 -12 -13
-10 18 2 19 0 33 -5 31 -14 -10 -19 13 -6 27 12 11 12 16 0 26 -7 7 -13 10
-13 7 0 -4 -14 4 -32 16 -21 16 -33 19 -36 11 -2 -7 -8 -12 -14 -12 -6 0 -8 6
-5 14 12 30 -29 10 -70 -35z m-569 -224 c11 -8 15 -15 9 -15 -7 0 -15 5 -19
11 -5 8 -10 6 -16 -5 -5 -9 -14 -14 -19 -10 -6 4 -6 11 2 20 14 17 19 17 43
-1z m-259 -25 c-3 -5 -11 -10 -16 -10 -6 0 -7 5 -4 10 3 6 11 10 16 10 6 0 7
-4 4 -10z"/>
<path d="M5108 4707 c4 -14 7 -16 13 -5 7 11 9 10 9 -1 0 -8 2 -12 5 -9 9 9
-5 35 -19 35 -8 0 -11 -8 -8 -20z"/>
<path d="M6650 4700 c0 -6 7 -10 15 -10 8 0 15 2 15 4 0 2 -7 6 -15 10 -8 3
-15 1 -15 -4z"/>
<path d="M4860 4680 c-13 -8 -12 -10 3 -10 9 0 17 5 17 10 0 12 -1 12 -20 0z"/>
<path d="M5057 4595 c3 -8 9 -12 14 -9 12 7 11 11 -5 17 -10 4 -13 1 -9 -8z"/>
<path d="M5377 4386 c-4 -10 -1 -13 8 -9 8 3 12 9 9 14 -7 12 -11 11 -17 -5z"/>
<path d="M5418 4376 c-25 -18 -22 -35 4 -28 13 3 19 1 15 -5 -4 -6 0 -13 8
-17 8 -3 17 -1 19 3 10 16 76 -2 76 -20 0 -6 -10 -4 -22 3 -30 16 -40 16 -61
-2 -16 -14 -16 -16 -1 -27 9 -7 21 -10 27 -6 5 3 7 0 5 -8 -3 -8 -14 -14 -26
-13 -12 0 -18 -4 -15 -9 4 -6 0 -8 -9 -4 -12 4 -14 1 -10 -15 3 -15 1 -19 -7
-14 -11 7 -45 -19 -47 -36 -1 -4 -3 -9 -4 -10 -7 -8 -6 -48 1 -48 5 0 9 -7 9
-16 0 -11 5 -14 16 -10 14 5 15 4 5 -8 -8 -9 -8 -16 -2 -20 5 -4 13 -1 17 5 4
8 9 7 15 -2 7 -11 9 -10 9 3 0 9 -6 18 -12 21 -7 3 -3 5 8 4 16 -1 21 -7 19
-24 -1 -12 2 -20 7 -17 5 3 9 0 7 -7 -3 -25 1 -39 11 -39 5 0 7 6 4 14 -6 16
19 16 33 1 4 -4 2 -5 -4 -1 -23 13 -13 -4 18 -32 28 -25 37 -27 110 -27 43 0
79 -4 79 -8 0 -9 109 -3 154 9 14 3 24 10 21 14 -3 4 3 7 13 6 9 0 16 5 14 12
-1 8 2 11 7 8 10 -7 41 19 41 34 0 5 -8 10 -17 13 -12 2 -7 7 17 14 19 6 29
12 23 12 -7 1 -13 8 -13 17 0 14 3 14 15 4 9 -7 18 -10 21 -7 9 9 12 57 3 57
-10 0 -24 48 -21 67 1 6 -7 18 -19 26 l-21 15 21 18 c26 22 27 34 4 34 -15 0
-16 2 -3 9 8 6 19 7 25 4 5 -4 6 -2 2 3 -14 15 -56 12 -62 -5 -5 -13 -7 -14
-16 -1 -5 10 -12 11 -16 5 -11 -13 -36 -18 -28 -5 3 5 1 10 -4 10 -6 0 -11 -4
-11 -8 0 -5 -18 -8 -40 -7 -22 1 -40 -2 -40 -7 0 -5 -9 -4 -20 2 -16 8 -22 8
-26 -4 -7 -18 -40 -13 -64 9 -11 10 -20 12 -24 7 -3 -6 -16 -8 -28 -4 -12 3
-19 1 -15 -4 5 -8 -11 -9 -56 -5 -5 1 -5 6 -1 13 4 6 3 8 -3 5 -6 -4 -14 0
-17 9 -3 8 -10 12 -16 9 -5 -3 -10 -1 -10 6 0 6 -8 9 -20 6 -11 -3 -23 0 -27
5 -4 7 -1 8 7 3 8 -5 11 -4 7 3 -4 5 -17 8 -29 4 -14 -3 -19 -2 -14 6 9 15 5
15 -16 -2z"/>
<path d="M5275 4370 c-3 -5 -1 -10 4 -10 6 0 11 5 11 10 0 6 -2 10 -4 10 -3 0
-8 -4 -11 -10z"/>
<path d="M6055 4370 c-3 -5 1 -10 10 -10 9 0 13 5 10 10 -3 6 -8 10 -10 10 -2
0 -7 -4 -10 -10z"/>
<path d="M6055 4340 c3 -5 8 -10 11 -10 2 0 4 5 4 10 0 6 -5 10 -11 10 -5 0
-7 -4 -4 -10z"/>
<path d="M5415 4310 c4 -6 11 -8 16 -5 14 9 11 15 -7 15 -8 0 -12 -5 -9 -10z"/>
<path d="M4700 4130 c0 -5 5 -10 10 -10 6 0 10 5 10 10 0 6 -4 10 -10 10 -5 0
-10 -4 -10 -10z"/>
<path d="M6005 4050 c-3 -5 -1 -10 4 -10 6 0 11 5 11 10 0 6 -2 10 -4 10 -3 0
-8 -4 -11 -10z"/>
<path d="M7025 3924 c-20 -31 -35 -194 -18 -194 13 0 36 28 39 46 1 7 12 27
24 44 24 33 23 87 -1 116 -16 20 -24 18 -44 -12z"/>
<path d="M5404 3483 c-7 -2 -10 -13 -7 -24 4 -15 2 -18 -11 -13 -9 3 -16 11
-16 17 0 6 -13 -3 -30 -21 -23 -26 -34 -31 -55 -26 -16 4 -25 2 -25 -6 0 -7
-7 -10 -15 -6 -17 6 -21 -9 -5 -19 15 -9 12 -25 -5 -25 -8 0 -15 -4 -15 -10 0
-5 5 -10 12 -10 6 0 9 -3 6 -6 -4 -3 2 -14 13 -25 20 -20 26 -45 9 -34 -5 3
-10 -1 -10 -10 0 -9 5 -13 11 -9 7 4 10 1 7 -6 -8 -26 -35 -35 -53 -17 -9 9
-13 21 -10 27 3 5 1 10 -4 10 -6 0 -11 -5 -11 -11 0 -5 -5 -7 -12 -3 -13 8 -3
-11 21 -40 9 -11 11 -17 6 -13 -6 3 -11 -3 -11 -13 0 -15 4 -17 19 -8 15 8 18
7 12 -3 -6 -9 -3 -11 8 -6 11 4 20 -1 27 -13 6 -11 18 -20 26 -20 8 0 12 -4 9
-10 -3 -5 -1 -10 5 -10 6 0 9 -4 5 -9 -3 -5 -1 -12 5 -16 6 -4 8 -10 5 -14 -2
-5 8 -14 23 -21 24 -11 25 -13 9 -19 -10 -4 -17 -9 -16 -11 7 -13 -24 -51 -37
-46 -9 3 -12 1 -9 -4 9 -14 -9 -12 -23 2 -7 7 -38 13 -68 14 -31 1 -59 6 -63
11 -3 5 -17 9 -31 8 -14 0 -31 8 -39 18 -8 11 -20 16 -29 12 -9 -3 -13 -3 -9
1 3 4 -24 17 -61 30 -37 13 -79 33 -95 45 -16 11 -34 18 -42 15 -7 -2 -16 1
-18 8 -3 7 -22 21 -43 31 -34 16 -38 16 -46 1 -5 -9 -15 -16 -23 -16 -16 0 -9
-29 9 -43 7 -5 3 -6 -8 -3 -11 4 -23 1 -27 -5 -4 -7 -12 -8 -20 -3 -8 5 -23
10 -33 11 -11 2 -25 8 -32 14 -14 11 -34 4 -34 -12 0 -5 6 -8 13 -6 6 1 13 -5
13 -13 1 -8 3 -19 4 -25 1 -5 2 -13 1 -17 0 -4 8 -10 19 -13 10 -3 21 -19 25
-35 3 -16 13 -34 21 -40 14 -12 9 -35 -6 -25 -4 3 -13 -2 -20 -10 -10 -12 -8
-14 9 -10 11 2 20 1 20 -3 -4 -28 29 -72 55 -72 9 0 16 -4 16 -10 0 -9 -15
-14 -33 -11 -5 1 -6 -3 -2 -9 3 -6 10 -8 15 -5 4 3 10 -2 14 -10 3 -8 13 -15
22 -15 13 0 14 -3 5 -14 -7 -9 -8 -17 -2 -20 5 -3 11 0 14 6 2 7 7 -2 11 -19
8 -33 51 -77 67 -67 8 5 13 -10 10 -29 -1 -4 4 -7 11 -6 7 1 20 1 28 0 12 -1
13 -3 1 -10 -10 -6 -2 -20 34 -57 25 -27 47 -47 48 -44 2 3 15 -5 29 -16 15
-12 25 -24 22 -27 -3 -3 3 -8 14 -11 11 -4 23 -14 26 -22 3 -9 11 -12 18 -8
10 6 11 4 1 -7 -17 -17 -16 -30 1 -23 8 3 17 0 22 -7 5 -8 3 -10 -6 -4 -9 6
-11 4 -6 -4 5 -7 14 -10 22 -7 8 3 14 -1 14 -10 0 -8 4 -12 10 -9 6 3 7 -1 4
-9 -7 -19 7 -21 25 -3 11 10 12 9 5 -3 -17 -30 -13 -42 12 -37 13 2 26 1 29
-3 3 -5 80 -5 80 0 0 1 27 3 61 4 33 1 65 5 70 9 5 3 43 5 84 5 41 0 84 4 94
8 13 5 17 4 13 -3 -8 -13 11 -12 32 1 16 10 185 11 201 1 5 -3 10 -1 10 5 0
15 43 30 51 18 4 -7 14 -6 28 1 12 7 26 9 31 6 6 -3 10 -2 10 4 0 6 8 8 18 4
14 -5 14 -4 -2 9 -18 14 -18 15 8 22 25 6 26 8 12 27 -7 11 -11 29 -9 40 5 18
6 19 19 2 14 -17 14 -17 12 2 -2 11 -7 23 -13 27 -5 4 -2 10 8 14 20 7 23 34
5 34 -7 0 -14 14 -15 30 -1 17 2 30 6 30 5 0 8 14 7 30 -1 17 2 30 7 30 4 0 5
5 2 10 -4 6 -10 8 -14 6 -4 -3 -8 1 -8 9 0 8 3 15 7 15 3 0 6 9 7 20 1 11 -3
20 -8 20 -6 0 -8 -4 -4 -9 3 -5 1 -12 -5 -16 -5 -3 -10 0 -10 9 0 8 -2 20 -3
28 -2 7 -2 10 0 6 3 -5 9 -8 14 -8 14 0 11 68 -3 73 -10 4 -9 8 2 16 8 6 11
11 6 11 -5 0 -3 7 4 16 8 8 9 14 4 13 -22 -4 -23 2 -2 23 20 20 21 23 5 26 -9
2 -15 8 -11 13 3 5 11 7 17 3 7 -3 4 1 -6 9 -13 11 -14 16 -5 19 8 3 -1 16
-22 36 -29 26 -31 30 -12 25 16 -4 22 -1 22 11 0 10 4 15 8 12 5 -3 9 1 9 9 0
8 -4 12 -9 9 -4 -3 -8 -1 -8 5 0 19 21 23 34 6 11 -16 13 -16 19 -2 3 9 0 18
-9 21 -16 6 -19 26 -3 26 6 0 31 16 55 36 24 20 44 32 44 28 0 -5 5 -1 11 9 5
9 16 17 24 17 18 0 49 46 40 60 -3 6 -11 8 -16 5 -5 -4 -9 -1 -9 6 0 8 -7 6
-19 -5 -12 -11 -21 -14 -26 -7 -3 6 -1 11 6 11 10 0 10 3 2 11 -6 6 -9 18 -6
25 3 8 -1 14 -8 14 -8 0 -23 7 -33 15 -17 13 -18 17 -6 28 10 10 11 9 5 -2 -5
-9 -4 -12 3 -7 10 6 8 24 -5 48 -2 4 -12 4 -21 -1 -9 -5 -25 -12 -35 -15 -11
-4 -15 -11 -11 -18 5 -8 2 -9 -10 -5 -10 4 -20 7 -22 7 -2 0 -4 7 -4 16 0 13
-3 14 -14 5 -10 -8 -16 -9 -21 -1 -3 6 -12 7 -18 3 -6 -4 -34 -10 -62 -15 -78
-12 -90 -15 -88 -25 2 -12 -36 -14 -59 -2 -13 7 -18 6 -18 -3 -1 -9 -5 -7 -14
4 -9 12 -16 14 -23 7 -13 -13 -36 -2 -27 12 3 5 10 7 15 4 5 -4 9 1 9 9 0 21
-9 20 -32 -1 -16 -14 -22 -15 -40 -4 -16 10 -19 10 -13 -1 6 -10 5 -11 -6 0
-15 14 -43 17 -35 3 4 -5 -3 -7 -14 -4 -11 3 -18 8 -16 12 6 9 -21 31 -29 23
-3 -4 -24 -7 -45 -8 -33 -1 -39 2 -42 21 -2 12 -8 20 -14 18z m-24 -49 c0 -2
-7 -4 -15 -4 -8 0 -15 4 -15 10 0 5 7 7 15 4 8 -4 15 -8 15 -10z m730 -4 c0
-5 -5 -10 -11 -10 -5 0 -7 5 -4 10 3 6 8 10 11 10 2 0 4 -4 4 -10z m-830 -40
c0 -5 -4 -10 -10 -10 -5 0 -10 5 -10 10 0 6 5 10 10 10 6 0 10 -4 10 -10z
m775 -14 c12 -12 10 -14 -15 -18 -25 -4 -28 -2 -19 14 12 22 16 22 34 4z m-82
-901 c-3 -9 -8 -14 -10 -11 -3 3 -2 9 2 15 9 16 15 13 8 -4z"/>
<path d="M5305 3430 c-3 -6 1 -7 9 -4 18 7 21 14 7 14 -6 0 -13 -4 -16 -10z"/>
<path d="M5730 3420 c0 -5 5 -10 10 -10 6 0 10 5 10 10 0 6 -4 10 -10 10 -5 0
-10 -4 -10 -10z"/>
<path d="M6217 3353 c-12 -12 -7 -21 14 -26 17 -5 18 -3 7 11 -7 9 -13 18 -14
20 0 1 -4 -1 -7 -5z"/>
<path d="M6041 2774 c0 -11 3 -14 6 -6 3 7 2 16 -1 19 -3 4 -6 -2 -5 -13z"/>
<path d="M3378 2629 c-18 -10 -26 -68 -10 -70 4 -1 16 -3 27 -4 39 -4 133 -79
115 -90 -13 -8 -13 -55 0 -55 6 0 10 5 10 11 0 5 5 7 10 4 16 -10 12 -48 -4
-42 -23 9 -27 -21 -6 -36 18 -12 18 -15 4 -35 -14 -20 -14 -21 3 -16 14 5 15
4 4 -4 -22 -16 -76 10 -68 33 3 6 -6 12 -20 13 -19 1 -24 -2 -19 -13 3 -8 1
-15 -5 -15 -6 0 -7 -4 -4 -10 3 -6 -1 -7 -9 -4 -9 3 -24 3 -33 -1 -10 -5 -23
-9 -29 -10 -6 -2 -22 -6 -34 -10 -15 -5 -20 -4 -16 4 4 6 1 13 -6 16 -19 7
-90 -20 -81 -30 5 -5 1 -4 -7 2 -19 14 -58 0 -67 -24 -11 -29 -30 -43 -56 -43
-38 0 -39 -24 -1 -50 38 -25 33 -52 -5 -29 -18 12 -23 11 -38 -5 -13 -13 -13
-16 -3 -11 11 6 10 3 -3 -12 -9 -11 -14 -23 -10 -26 3 -4 1 -7 -5 -7 -7 0 -12
5 -12 11 0 6 -7 9 -15 5 -8 -3 -28 2 -45 12 -25 14 -30 23 -30 55 0 42 -9 46
-35 17 -10 -12 -24 -19 -31 -16 -7 3 -15 -2 -18 -11 -5 -11 -14 -14 -34 -10
-16 3 -46 2 -68 -3 -21 -5 -115 -16 -209 -25 -277 -26 -319 -35 -455 -97 -86
-39 -93 -42 -178 -69 -40 -12 -76 -27 -79 -33 -15 -23 401 -388 627 -551 767
-551 1617 -860 2574 -935 162 -13 551 -13 716 0 976 76 1879 415 2650 996 128
96 178 140 169 147 -14 10 -176 84 -239 108 -86 34 -105 43 -215 104 -44 24
-102 52 -130 61 -27 9 -68 24 -91 34 -22 10 -65 26 -95 34 -47 14 -61 24 -95
69 -21 28 -43 54 -48 56 -6 2 -26 22 -45 44 -20 22 -51 56 -70 76 -18 19 -47
60 -64 91 -56 99 -97 159 -116 170 -29 15 -171 13 -171 -3 0 -7 18 -46 40 -87
22 -41 40 -83 40 -93 0 -24 -71 -99 -144 -151 -150 -107 -406 -206 -623 -240
-213 -34 -551 -30 -868 10 -309 39 -859 144 -1016 194 -52 16 -99 30 -105 30
-25 0 -352 114 -476 166 -125 52 -156 66 -303 135 -33 15 -75 42 -94 59 l-34
30 19 23 c11 12 46 50 77 85 31 35 57 67 57 71 0 13 -332 13 -352 0z m227
-379 c-3 -5 -10 -10 -16 -10 -5 0 -9 5 -9 10 0 6 7 10 16 10 8 0 12 -4 9 -10z
m-345 -220 c0 -5 -5 -10 -11 -10 -5 0 -7 5 -4 10 3 6 8 10 11 10 2 0 4 -4 4
-10z"/>
<path d="M3395 2360 c-8 -13 15 -24 27 -12 6 6 4 11 -6 15 -8 3 -18 2 -21 -3z"/>
<path d="M3004 2159 c-3 -6 -1 -16 5 -22 6 -6 11 -9 12 -6 0 2 2 12 4 22 4 19
-10 23 -21 6z"/>
</g>
</svg>
